<svg width="355" height="286" viewBox="0 0 355 286" fill="none" xmlns="http://www.w3.org/2000/svg">
<path d="M320.8 88.4C320.8 87.1 319.7 86 318.4 86C317.1 86 316 87.1 316 88.4C316 88.9 316.6 89.2 317.3 89.3V91.6H319.3V89.3C320.2 89.1 320.8 88.8 320.8 88.4Z" fill="#FFD15C"/>
<path d="M272.6 108.175C273.6 107.375 273.8 105.875 272.9 104.875C272.1 103.875 270.6 103.675 269.6 104.575C269.2 104.875 269.4 105.475 269.8 106.175L268 107.575L269.3 109.175L271.1 107.675C271.6 108.175 272.2 108.475 272.6 108.175Z" fill="#FFD15C"/>
<path fill-rule="evenodd" clip-rule="evenodd" d="M315.194 105.2C315.194 104 316.194 103 317.394 103C318.694 103 319.694 104 319.594 105.2C319.594 106.4 318.594 107.4 317.394 107.4C316.194 107.4 315.194 106.4 315.194 105.2ZM315.994 105.2C315.994 106 316.594 106.6 317.394 106.6C318.194 106.6 318.794 106 318.794 105.2C318.794 104.4 318.194 103.8 317.394 103.8C316.594 103.8 315.994 104.4 315.994 105.2Z" fill="#FF7058"/>
<path fill-rule="evenodd" clip-rule="evenodd" d="M276 86.2C276 85 277 84 278.2 84C279.5 84 280.5 85 280.4 86.2C280.4 87.4 279.4 88.4 278.2 88.4C277 88.4 276 87.4 276 86.2ZM276.8 86.2C276.8 87 277.4 87.6 278.2 87.6C279 87.6 279.6 87 279.6 86.2C279.6 85.4 279 84.8 278.2 84.8C277.4 84.8 276.8 85.4 276.8 86.2Z" fill="#FF7058"/>
<path fill-rule="evenodd" clip-rule="evenodd" d="M308 116.713C308 115.513 309 114.513 310.2 114.513C311.4 114.513 312.4 115.513 312.4 116.713C312.4 117.913 311.4 118.913 310.2 118.913C309 118.913 308 117.913 308 116.713ZM308.8 116.613C308.8 117.413 309.4 118.013 310.2 118.013C311 118.013 311.6 117.413 311.6 116.613C311.6 115.813 311 115.213 310.2 115.213C309.4 115.213 308.8 115.813 308.8 116.613Z" fill="#FF7058"/>
<path d="M107.5 285C107.5 285 -62.5 258 167.5 243C397.5 228 326 303.5 300.5 191C275 78.5 356.5 259.5 330 176C303.5 92.5 491 152 359.5 89C228 26 327.5 193 192.5 142.5C57.5 92 76 1 76 1" stroke="#868686" stroke-linecap="round" stroke-dasharray="5"/>
<path d="M335.057 138.849C346.479 143.68 352.023 156.921 347.34 168.51C342.583 180.286 329.212 185.885 317.529 181.164C305.94 176.482 300.228 163.389 304.726 151.724L326.329 160.453L335.057 138.849Z" fill="#FF7058"/>
<path d="M326.329 160.453L333.484 142.743C342.774 146.712 347.175 157.442 343.391 166.807C339.533 176.357 328.597 180.999 319.048 177.14C309.683 173.357 305.114 162.775 308.62 153.298L326.329 160.453Z" fill="#FFD15C"/>
<path d="M318.034 169.504C318.344 168.736 317.973 167.862 317.205 167.552C316.437 167.241 315.563 167.613 315.252 168.381C314.942 169.149 315.313 170.023 316.081 170.333C316.849 170.644 317.724 170.273 318.034 169.504Z" fill="#F8B64C"/>
<path d="M311.589 159.027C310.662 158.653 309.714 159.132 309.376 159.967C309.002 160.894 309.481 161.843 310.316 162.18C310.594 162.292 310.929 161.996 311.247 161.477L312.823 162.114L313.385 160.723L311.809 160.087C311.996 159.623 311.96 159.177 311.589 159.027Z" fill="#F2F2F2"/>
<path d="M335.739 172.667C335.407 171.886 334.48 171.511 333.699 171.843C332.918 172.174 332.543 173.102 332.875 173.883C332.985 174.143 333.393 174.2 333.969 174.109L334.577 175.541L335.786 174.951L335.179 173.519C335.607 173.261 335.849 172.927 335.739 172.667Z" fill="#F2F2F2"/>
<path fill-rule="evenodd" clip-rule="evenodd" d="M333.217 160.755C332.383 160.418 331.996 159.507 332.333 158.672C332.67 157.838 333.582 157.451 334.416 157.788C335.25 158.125 335.637 159.036 335.3 159.871C334.963 160.705 334.052 161.092 333.217 160.755ZM333.442 160.199C333.998 160.424 334.519 160.202 334.744 159.646C334.931 159.183 334.748 158.569 334.191 158.344C333.635 158.12 333.114 158.341 332.889 158.897C332.665 159.453 332.886 159.974 333.442 160.199Z" fill="#FF7058"/>
<path fill-rule="evenodd" clip-rule="evenodd" d="M327.762 175.592C327.02 175.292 326.633 174.381 326.933 173.639C327.233 172.897 328.107 172.603 328.886 172.81C329.628 173.11 330.014 174.021 329.715 174.763C329.415 175.505 328.504 175.892 327.762 175.592ZM327.987 175.036C328.45 175.223 328.971 175.002 329.158 174.538C329.346 174.075 329.125 173.554 328.661 173.367C328.197 173.179 327.677 173.4 327.489 173.864C327.302 174.328 327.523 174.848 327.987 175.036Z" fill="#FF7058"/>
<path d="M319.009 140.131L317.351 136.225C322.521 134.108 328.426 133.905 334.027 136.06L325.861 156.273L319.009 140.131Z" fill="#FF7058"/>
<path d="M325.86 156.273L319.009 140.131C323.137 138.455 327.928 138.342 332.416 140.047L325.86 156.273Z" fill="#FFD15C"/>
<path d="M330.463 140.876C330.169 140.002 329.187 139.497 328.313 139.792C327.439 140.086 326.935 141.068 327.229 141.942C327.302 142.295 327.803 142.389 328.379 142.299L328.912 143.916L330.269 143.494L329.736 141.876C330.201 141.525 330.574 141.136 330.463 140.876Z" fill="#F2F2F2"/>
<path fill-rule="evenodd" clip-rule="evenodd" d="M325.508 150.738C324.674 150.401 324.287 149.489 324.624 148.655C324.961 147.821 325.873 147.434 326.707 147.771C327.541 148.108 327.928 149.019 327.591 149.854C327.254 150.688 326.343 151.075 325.508 150.738ZM325.826 150.219C326.382 150.444 326.903 150.223 327.128 149.666C327.315 149.203 327.039 148.552 326.575 148.365C326.111 148.177 325.498 148.361 325.273 148.917C325.086 149.381 325.269 149.994 325.826 150.219Z" fill="#FF7058"/>
<path fill-rule="evenodd" clip-rule="evenodd" d="M323.302 144.454C322.467 144.117 322.08 143.205 322.418 142.371C322.755 141.536 323.666 141.15 324.5 141.487C325.335 141.824 325.722 142.735 325.385 143.57C325.047 144.404 324.136 144.791 323.302 144.454ZM323.619 143.935C324.083 144.122 324.696 143.939 324.921 143.382C325.146 142.826 324.832 142.268 324.368 142.08C323.812 141.856 323.291 142.077 323.067 142.633C322.842 143.189 323.063 143.71 323.619 143.935Z" fill="#FF7058"/>
<path d="M334.81 167.223C335.203 166.25 334.733 165.143 333.76 164.749C332.788 164.356 331.68 164.826 331.287 165.799C330.894 166.772 331.364 167.88 332.337 168.273C333.31 168.666 334.417 168.196 334.81 167.223Z" fill="#F8B64C"/>
<path d="M339.175 151.082C339.568 150.109 339.098 149.002 338.125 148.609C337.152 148.216 336.044 148.686 335.651 149.659C335.258 150.632 335.728 151.739 336.701 152.132C337.674 152.525 338.781 152.055 339.175 151.082Z" fill="#F8B64C"/>
<path d="M316.796 141.07L323.648 157.212L303.435 149.046C305.775 143.52 310.023 139.412 315.138 137.165L316.796 141.07Z" fill="#FF7058"/>
<path d="M316.796 141.07L323.648 157.212L307.422 150.657C309.313 146.244 312.685 142.968 316.796 141.07Z" fill="#FFD15C"/>
<path fill-rule="evenodd" clip-rule="evenodd" d="M314.716 146.485C313.881 146.148 313.494 145.237 313.831 144.402C314.169 143.568 315.08 143.181 315.914 143.518C316.749 143.855 317.136 144.767 316.798 145.601C316.461 146.436 315.55 146.822 314.716 146.485ZM314.94 145.929C315.497 146.154 316.017 145.933 316.242 145.376C316.467 144.82 316.246 144.299 315.69 144.074C315.226 143.887 314.613 144.071 314.388 144.627C314.163 145.183 314.384 145.704 314.94 145.929Z" fill="#FF7058"/>
<path d="M319.431 152.165C319.824 151.192 319.354 150.085 318.381 149.692C317.408 149.299 316.301 149.769 315.908 150.742C315.515 151.715 315.985 152.822 316.958 153.215C317.931 153.608 319.038 153.138 319.431 152.165Z" fill="#F8B64C"/>
<path d="M311.426 147.421C311.666 147.626 311.739 147.979 311.534 148.22C310.881 149.035 311.026 150.279 311.878 150.839C312.119 151.044 312.192 151.397 311.987 151.638C311.782 151.879 311.428 151.952 311.188 151.747C309.892 150.684 309.656 148.863 310.627 147.529C310.832 147.289 311.185 147.216 311.426 147.421Z" fill="#F8B64C"/>
<path d="M335.082 153.204C334.969 153.482 334.616 153.555 334.338 153.443C333.486 152.883 332.297 153.157 331.699 154.102C331.587 154.38 331.234 154.453 330.955 154.341C330.677 154.228 330.604 153.875 330.717 153.597C331.594 152.226 333.397 151.768 334.806 152.553C335.214 152.61 335.287 152.963 335.082 153.204Z" fill="#F8B64C"/>
<path d="M330.061 160.558C330.351 159.842 330.004 159.026 329.287 158.736C328.57 158.446 327.755 158.793 327.465 159.51C327.175 160.226 327.522 161.042 328.238 161.332C328.955 161.622 329.771 161.275 330.061 160.558Z" fill="#F8B64C"/>
<path d="M324.233 175.784C323.803 176.581 322.837 176.838 322.077 176.315C321.28 175.885 321.024 174.919 321.546 174.159C321.658 173.881 322.16 173.976 322.661 174.07L323.408 172.754L324.538 173.427L323.754 174.835C324.18 175.115 324.438 175.543 324.233 175.784Z" fill="#F2F2F2"/>
<path d="M341.314 166.076C341.727 165.051 341.233 163.886 340.209 163.472C339.184 163.058 338.019 163.553 337.605 164.577C337.191 165.601 337.686 166.767 338.71 167.181C339.734 167.594 340.9 167.1 341.314 166.076Z" fill="#F8B64C"/>
<path d="M338.405 158.86C338.292 159.139 338.496 159.436 338.811 159.456C339.721 159.608 340.293 160.594 340.141 161.503C340.029 161.781 340.232 162.079 340.548 162.099C340.826 162.211 341.124 162.008 341.143 161.692C341.52 160.227 340.596 158.775 339.13 158.399C338.815 158.379 338.517 158.582 338.405 158.86Z" fill="#F8B64C"/>
<path d="M321.677 168.496C321.565 168.774 321.768 169.072 322.084 169.091C322.993 169.243 323.565 170.229 323.414 171.139C323.301 171.417 323.504 171.715 323.82 171.734C324.098 171.847 324.396 171.643 324.416 171.328C324.792 169.862 323.869 168.411 322.403 168.034C321.995 167.977 321.697 168.18 321.677 168.496Z" fill="#F8B64C"/>
<path d="M318.908 158.533C319.018 158.793 318.868 159.164 318.515 159.237C317.511 159.586 316.969 160.662 317.318 161.666C317.429 161.926 317.279 162.297 316.926 162.37C316.666 162.48 316.295 162.331 316.222 161.977C315.689 160.36 316.549 158.766 318.073 158.196C318.519 158.16 318.797 158.272 318.908 158.533Z" fill="#F8B64C"/>
<path d="M325.913 162.55C326.024 162.81 325.874 163.181 325.521 163.254C324.517 163.603 323.974 164.678 324.324 165.682C324.434 165.943 324.284 166.314 323.931 166.387C323.671 166.497 323.3 166.347 323.227 165.994C322.694 164.377 323.554 162.783 325.079 162.212C325.562 162.084 325.803 162.289 325.913 162.55Z" fill="#F8B64C"/>
<path d="M270.8 188.98H266.8C266.4 188.98 266 188.58 266 188.18C266 187.78 266.3 187.38 266.8 187.38H270.8C271.2 187.38 271.6 187.78 271.6 188.18C271.5 188.68 271.2 188.98 270.8 188.98Z" fill="#CD807D"/>
<path d="M278.5 177.081C278.2 177.081 278 176.881 277.8 176.681L276 173.081C275.8 172.681 276 172.281 276.3 172.081C276.7 171.881 277.1 172.081 277.3 172.381L279.1 175.981C279.4 176.281 279.3 177.081 278.5 177.081Z" fill="#CD807D"/>
<path d="M272.8 203.081L270.8 199.581C270.6 199.181 270.7 198.781 271.1 198.581C271.5 198.381 271.9 198.481 272.1 198.881L274.1 202.381C274.3 202.781 274.2 203.181 273.8 203.381C273.5 203.581 273 203.281 272.8 203.081Z" fill="#84DBFF"/>
<path d="M267.4 199.181C268.118 199.181 268.7 198.598 268.7 197.881C268.7 197.163 268.118 196.581 267.4 196.581C266.682 196.581 266.1 197.163 266.1 197.881C266.1 198.598 266.682 199.181 267.4 199.181Z" fill="#FFD15C"/>
<path d="M269.4 180.28C270.118 180.28 270.7 179.698 270.7 178.98C270.7 178.263 270.118 177.68 269.4 177.68C268.682 177.68 268.1 178.263 268.1 178.98C268.1 179.698 268.682 180.28 269.4 180.28Z" fill="#84DBFF"/>
<path fill-rule="evenodd" clip-rule="evenodd" d="M282.154 235.703C281.185 235.307 280.216 234.911 279.261 234.337L278.92 234.132C269.914 228.721 266.973 216.925 272.384 207.92C277.836 198.846 289.523 195.932 298.596 201.384L298.937 201.589C299.893 202.163 300.738 202.764 301.502 203.502C308.214 209.485 309.928 219.614 305.132 227.596C300.336 235.578 290.587 238.821 282.154 235.703ZM280.646 224.305C281.328 225.179 282.16 225.957 283.115 226.531L283.388 226.695C288.3 229.647 294.744 228.04 297.695 223.128C300.647 218.216 299.108 211.813 294.128 208.821L293.855 208.657C292.832 208.042 291.822 207.714 290.73 207.522C286.581 206.7 282.157 208.499 279.821 212.388C277.484 216.277 277.973 221.027 280.646 224.305Z" fill="#F1543F"/>
<path d="M290.73 207.522C291.905 205.721 293.653 204.357 295.838 203.812C297.148 203.486 298.282 202.681 298.937 201.589C299.893 202.163 300.697 202.833 301.502 203.502C300.341 205.126 298.675 206.353 296.6 206.87C295.508 207.143 294.497 207.743 293.828 208.548C292.832 208.042 291.822 207.714 290.73 207.522Z" fill="white"/>
<path d="M279.261 234.337C279.849 233.204 280.095 231.866 279.768 230.556C279.183 228.44 279.566 226.256 280.646 224.305C281.328 225.179 282.092 225.916 283.115 226.531C282.678 227.568 282.595 228.633 282.936 229.766C283.453 231.841 283.151 233.889 282.263 235.676C281.185 235.307 280.216 234.911 279.261 234.337Z" fill="white"/>
<path d="M279.768 230.556C279.251 228.481 279.566 226.256 280.646 224.305C277.973 221.027 277.525 216.208 279.821 212.388C282.157 208.499 286.581 206.7 290.73 207.522C291.905 205.721 293.653 204.357 295.838 203.812C297.148 203.486 298.213 202.64 298.938 201.589C298.801 201.507 298.733 201.466 298.596 201.384C289.523 195.932 277.837 198.846 272.384 207.92C266.932 216.993 269.846 228.68 278.92 234.132C279.056 234.214 279.124 234.255 279.261 234.337C279.849 233.204 280.095 231.867 279.768 230.556Z" fill="#FFD15C"/>
<path d="M284.368 230.627C284.409 230.559 284.45 230.491 284.559 230.463C284.778 230.409 284.914 230.491 284.901 230.668L285.336 232.416C285.391 232.634 285.309 232.771 285.131 232.757C284.913 232.811 284.776 232.729 284.79 232.552L284.355 230.805C284.355 230.805 284.327 230.695 284.368 230.627Z" fill="#84DBFF"/>
<path d="M296.502 231.604C296.612 231.577 296.68 231.618 296.748 231.659C296.884 231.741 296.939 231.959 296.789 232.055L295.75 233.473C295.668 233.61 295.45 233.664 295.355 233.514C295.218 233.432 295.164 233.214 295.314 233.118L296.352 231.699C296.284 231.658 296.393 231.631 296.502 231.604Z" fill="white"/>
<path d="M291.396 234.385C291.423 234.494 291.382 234.563 291.341 234.631C291.259 234.767 291.04 234.822 290.945 234.672L289.526 233.633C289.39 233.551 289.335 233.333 289.485 233.237C289.567 233.101 289.786 233.047 289.881 233.197L291.3 234.235C291.341 234.167 291.368 234.276 291.396 234.385Z" fill="#FFD15C"/>
<path d="M300.303 222.652C300.262 222.72 300.221 222.788 300.248 222.898C300.302 223.116 300.439 223.198 300.589 223.103L302.337 222.667C302.555 222.612 302.637 222.476 302.541 222.326C302.446 222.176 302.351 222.025 302.2 222.121L300.494 222.488C300.385 222.516 300.344 222.584 300.303 222.652Z" fill="#84DBFF"/>
<path d="M299.617 227.811C299.658 227.743 299.699 227.675 299.808 227.648C300.027 227.593 300.163 227.675 300.149 227.852L300.585 229.6C300.639 229.818 300.557 229.955 300.38 229.941C300.162 229.996 300.025 229.914 300.039 229.736L299.603 227.989C299.603 227.989 299.576 227.879 299.617 227.811Z" fill="#FFD15C"/>
<path d="M305.833 219.011C305.943 218.984 306.011 219.025 306.079 219.066C306.215 219.148 306.27 219.366 306.12 219.462L305.081 220.88C304.999 221.017 304.781 221.071 304.686 220.921C304.549 220.839 304.495 220.621 304.645 220.525L305.683 219.106C305.724 219.038 305.833 219.011 305.833 219.011Z" fill="#FFD15C"/>
<path d="M304.854 214.151C304.881 214.26 304.84 214.328 304.799 214.397C304.717 214.533 304.498 214.588 304.403 214.437L302.943 213.467C302.807 213.385 302.752 213.167 302.902 213.071C302.984 212.935 303.203 212.88 303.298 213.031L304.717 214.069C304.826 214.042 304.854 214.151 304.854 214.151Z" fill="white"/>
<path d="M300.707 209.152C300.666 209.221 300.625 209.289 300.652 209.398C300.707 209.617 300.843 209.699 300.993 209.603L302.741 209.167C302.959 209.113 303.041 208.977 302.946 208.826C302.891 208.608 302.755 208.526 302.605 208.621L300.857 209.057C300.857 209.057 300.748 209.084 300.707 209.152Z" fill="#84DBFF"/>
<path d="M299.112 206.244L299.794 206.654L301.147 204.403L300.465 203.993C299.373 203.337 298.514 202.449 297.695 201.493C297.463 201.261 297.232 201.029 296.849 200.892C295.949 200.536 294.966 200.782 294.337 201.518C293.545 202.528 293.858 204.016 294.95 204.672C295.223 204.836 295.537 204.931 295.782 204.986C296.915 205.11 298.089 205.629 299.112 206.244Z" fill="#F1543F"/>
<path d="M297.076 209.478L297.827 209.929L298.81 208.291L298.06 207.84C297.378 207.43 296.818 206.816 296.259 206.201C296.095 206.01 295.864 205.778 295.618 205.723C295.031 205.463 294.267 205.654 293.829 206.227C293.269 207.005 293.473 208.056 294.224 208.507C294.428 208.63 294.606 208.644 294.852 208.698C295.63 208.794 296.394 209.068 297.076 209.478Z" fill="#F1543F"/>
<path d="M282.455 235.048L282.932 235.335L283.588 234.244L283.11 233.957C282.633 233.67 282.237 233.247 281.842 232.823C281.746 232.673 281.542 232.55 281.405 232.468C280.955 232.29 280.477 232.467 280.163 232.836C279.767 233.341 279.889 234.064 280.435 234.392C280.571 234.474 280.708 234.556 280.817 234.529C281.417 234.611 281.977 234.762 282.455 235.048Z" fill="#F1543F"/>
<path d="M282.688 232.496L283.37 232.906L284.313 231.337L283.631 230.927C282.949 230.517 282.39 229.902 281.898 229.329C281.735 229.138 281.503 228.905 281.257 228.851C280.67 228.591 279.906 228.782 279.51 229.286C278.95 230.064 279.195 231.047 279.945 231.498C280.15 231.621 280.327 231.635 280.505 231.648C281.242 231.813 282.006 232.086 282.688 232.496Z" fill="#F1543F"/>
</svg>
