<svg viewBox="0 0 18 18" xmlns="http://www.w3.org/2000/svg">
<path fill-rule="evenodd" clip-rule="evenodd" d="M17.3334 8.99999C17.3334 13.6024 13.6025 17.3333 9.00008 17.3333C4.39771 17.3333 0.666748 13.6024 0.666748 8.99999C0.666748 4.39762 4.39771 0.666656 9.00008 0.666656C13.6025 0.666656 17.3334 4.39762 17.3334 8.99999ZM9.05109 2.74999C8.67797 2.74999 8.37549 3.05246 8.37549 3.42558V4.32212C8.32476 4.33317 8.27409 4.34498 8.22349 4.35756C7.80417 4.46172 7.42764 4.6263 7.09389 4.85131C6.76015 5.07631 6.49059 5.3638 6.2852 5.71381C6.07982 6.06381 5.97713 6.48464 5.97713 6.97631C5.97713 7.37631 6.04345 7.71589 6.1761 7.99506C6.30874 8.27422 6.48417 8.51172 6.70238 8.70756C6.9206 8.90339 7.16877 9.06381 7.44689 9.18881C7.72501 9.31381 8.00955 9.42214 8.30051 9.51381C8.60002 9.60547 8.86744 9.69089 9.10277 9.77006C9.33811 9.84922 9.53493 9.93672 9.69324 10.0326C9.85156 10.1284 9.9735 10.2346 10.0591 10.3513C10.1447 10.468 10.1874 10.6096 10.1874 10.7763C10.1874 10.9513 10.1532 11.1013 10.0848 11.2263C10.0163 11.3513 9.9243 11.4513 9.80877 11.5263C9.69324 11.6013 9.55847 11.6555 9.40443 11.6888C9.25039 11.7221 9.09208 11.7388 8.92948 11.7388C8.57007 11.7388 8.20851 11.6492 7.84482 11.4701C7.48112 11.2909 7.18803 11.068 6.96553 10.8013L5.52786 12.2263C5.93007 12.6346 6.43496 12.9492 7.04255 13.1701C7.47598 13.3276 7.92029 13.4289 8.37549 13.4741V14.5744C8.37549 14.9475 8.67797 15.25 9.05109 15.25C9.42421 15.25 9.72668 14.9475 9.72668 14.5744V13.4367C9.89508 13.4088 10.0615 13.3721 10.226 13.3263C10.6453 13.2096 11.0175 13.0305 11.3427 12.7888C11.6679 12.5471 11.9268 12.2409 12.1193 11.8701C12.3119 11.4992 12.4081 11.0596 12.4081 10.5513C12.4081 10.1096 12.3183 9.74089 12.1386 9.44506C11.9589 9.14922 11.7321 8.90131 11.4582 8.70131C11.1844 8.5013 10.8806 8.34089 10.5469 8.22006C10.2131 8.09922 9.89221 7.98881 9.58414 7.88881C9.3702 7.82214 9.17765 7.75756 9.0065 7.69506C8.83535 7.63256 8.68773 7.56381 8.56365 7.48881C8.43956 7.41381 8.34543 7.32631 8.28125 7.22631C8.21707 7.12631 8.18498 7.00131 8.18498 6.85131C8.18498 6.6763 8.22563 6.53256 8.30692 6.42006C8.38822 6.30756 8.48877 6.21589 8.60858 6.14506C8.72838 6.07422 8.86316 6.02631 9.01292 6.00131C9.16268 5.97631 9.31029 5.96381 9.45577 5.96381C9.73817 5.96381 10.0313 6.03256 10.3351 6.17006C10.6389 6.30756 10.8849 6.49297 11.0731 6.72631L12.4723 5.28881C12.0701 4.93047 11.6016 4.65964 11.0667 4.47631C10.6123 4.32055 10.1656 4.23095 9.72668 4.20753V3.42558C9.72668 3.05246 9.42421 2.74999 9.05109 2.74999Z"/>
</svg>
