<svg width="76" height="70" viewBox="0 0 76 70" xmlns="http://www.w3.org/2000/svg">
<path d="M30.9562 49.9072C14.4403 49.9072 0.333984 52.4585 0.333984 62.6557C0.333984 72.8609 14.3507 75.5 30.9562 75.5C47.4721 75.5 61.5784 72.9487 61.5784 62.7515C61.5784 52.5464 47.5618 49.9072 30.9562 49.9072Z"/>
<path opacity="0.4" d="M30.956 40.1868C42.2044 40.1868 51.2186 31.3591 51.2186 20.3434C51.2186 9.32771 42.2044 0.5 30.956 0.5C19.7116 0.5 10.6934 9.32771 10.6934 20.3434C10.6934 31.3591 19.7116 40.1868 30.956 40.1868Z"/>
<path opacity="0.4" d="M59.3902 20.703C59.3902 26.3127 57.6697 31.547 54.6528 35.895C54.3388 36.3422 54.6161 36.9451 55.1624 37.0409C55.9207 37.1647 56.6994 37.2405 57.4944 37.2565C65.4038 37.4601 72.5018 32.4733 74.4628 24.9632C77.3697 13.8197 68.8407 3.81421 57.9755 3.81421C56.7973 3.81421 55.6679 3.93399 54.5672 4.15358C54.4163 4.18552 54.2532 4.25739 54.1717 4.38516C54.0657 4.54885 54.1431 4.76046 54.2491 4.9002C57.5148 9.38393 59.3902 14.8419 59.3902 20.703Z"/>
<path d="M82.7468 51.2057C81.2995 48.1833 77.8055 46.1111 72.4892 45.093C69.9818 44.4941 63.1896 43.6437 56.8743 43.7635C56.7805 43.7754 56.7275 43.8393 56.7194 43.8793C56.7072 43.9431 56.7357 44.039 56.858 44.1068C59.7771 45.5202 71.0581 51.6689 69.6393 64.6369C69.5782 65.2039 70.0389 65.683 70.6137 65.6032C73.3902 65.2159 80.533 63.7107 82.7468 59.0313C83.974 56.5559 83.974 53.6812 82.7468 51.2057Z"/>
</svg>
