<svg width="76" height="74" viewBox="0 0 76 74" fill="none" xmlns="http://www.w3.org/2000/svg">
<path fill-rule="evenodd" clip-rule="evenodd" d="M55.5113 11.7398C55.5113 20.9939 63.0243 28.4959 72.292 28.4959C73.3124 28.4909 74.3303 28.3929 75.333 28.2032V61.4227C75.333 75.3983 67.0892 83.6666 53.0931 83.6666H22.6095C8.57678 83.6666 0.333008 75.3983 0.333008 61.4227V30.9837C0.333008 17.0081 8.57678 8.66663 22.6095 8.66663H55.8044C55.6074 9.67914 55.5093 10.7084 55.5113 11.7398ZM46.7912 54.0691L58.6989 38.7032V38.6301C59.7183 37.2602 59.4582 35.3287 58.1126 34.2764C57.4614 33.7737 56.6338 33.556 55.8191 33.6732C55.0043 33.7905 54.2719 34.2325 53.7892 34.8983L43.7502 47.813L32.3188 38.813C31.6662 38.3045 30.8359 38.08 30.0155 38.1902C29.1951 38.3003 28.4537 38.7358 27.9588 39.3983L15.6481 55.2764C15.2153 55.8158 14.9824 56.4878 14.9886 57.1788C14.9171 58.5755 15.7991 59.8443 17.1345 60.2658C18.47 60.6874 19.922 60.1554 20.6676 58.9715L30.9632 45.6544L42.3945 54.6179C43.0447 55.142 43.8804 55.3797 44.7096 55.2762C45.5388 55.1727 46.2902 54.7369 46.7912 54.0691Z" fill="#F5F6FA"/>
<ellipse opacity="0.4" cx="73.2497" cy="10.75" rx="10.4167" ry="10.4167" fill="#F5F6FA"/>
</svg>
