<svg width="20" height="20" viewBox="0 0 20 20" fill="none" xmlns="http://www.w3.org/2000/svg">
<path opacity="0.4" d="M14.6756 0H5.33333C1.92889 0 0 1.92889 0 5.33333V14.6667C0 18.0711 1.92889 20 5.33333 20H14.6756C18.08 20 20 18.0711 20 14.6667V5.33333C20 1.92889 18.08 0 14.6756 0Z" fill="#5E81F4"/>
<path d="M5.36866 7.36896C4.91533 7.36896 4.54199 7.74229 4.54199 8.20451V15.0756C4.54199 15.529 4.91533 15.9023 5.36866 15.9023C5.83088 15.9023 6.20421 15.529 6.20421 15.0756V8.20451C6.20421 7.74229 5.83088 7.36896 5.36866 7.36896Z" fill="#5E81F4"/>
<path d="M10.0354 4.08899C9.58207 4.08899 9.20874 4.46232 9.20874 4.92454V15.0757C9.20874 15.529 9.58207 15.9023 10.0354 15.9023C10.4976 15.9023 10.871 15.529 10.871 15.0757V4.92454C10.871 4.46232 10.4976 4.08899 10.0354 4.08899Z" fill="#5E81F4"/>
<path d="M14.64 10.9957C14.1778 10.9957 13.8044 11.369 13.8044 11.8312V15.0757C13.8044 15.529 14.1778 15.9023 14.6311 15.9023C15.0933 15.9023 15.4667 15.529 15.4667 15.0757V11.8312C15.4667 11.369 15.0933 10.9957 14.64 10.9957Z" fill="#5E81F4"/>
</svg>
