<svg width="20" height="20" viewBox="0 0 20 20" xmlns="http://www.w3.org/2000/svg">
<path opacity="0.4" d="M11.0876 4.90204V5.05458C10.6787 5.04655 10.2698 5.04655 9.86088 5.04655V4.91007C9.86088 4.35613 9.39474 3.90655 8.83864 3.90655H8.02902C7.10491 3.90655 6.35254 3.16796 6.35254 2.2688C6.35254 1.93965 6.63059 1.66669 6.96589 1.66669C7.30936 1.66669 7.57923 1.93965 7.57923 2.2688C7.57923 2.50965 7.78368 2.70232 8.02902 2.70232H8.83864C10.0735 2.71035 11.0794 3.69782 11.0876 4.90204Z"/>
<path fill-rule="evenodd" clip-rule="evenodd" d="M12.6366 5.06889C12.8992 5.07249 13.1624 5.0761 13.4265 5.0788C16.2643 5.0788 18.3333 7.10191 18.3333 9.89571V13.4843C18.3333 16.2781 16.2643 18.3012 13.4265 18.3012C12.2898 18.3253 11.1531 18.3333 10.0081 18.3333C8.86322 18.3333 7.71013 18.3253 6.5734 18.3012C3.73565 18.3012 1.66663 16.2781 1.66663 13.4843V9.89571C1.66663 7.10191 3.73565 5.0788 6.58158 5.0788C7.65289 5.06275 8.74873 5.04669 9.86093 5.04669C10.2698 5.04669 10.6787 5.04669 11.0876 5.05472C11.6032 5.05472 12.1187 5.06179 12.6366 5.06889ZM9.04314 12.2881H8.18445V13.1391C8.18445 13.4683 7.9064 13.7412 7.57111 13.7412C7.22763 13.7412 6.95776 13.4683 6.95776 13.1391V12.2881H6.0909C5.7556 12.2881 5.47755 12.0232 5.47755 11.686C5.47755 11.3568 5.7556 11.0839 6.0909 11.0839H6.95776V10.2409C6.95776 9.91177 7.22763 9.63881 7.57111 9.63881C7.9064 9.63881 8.18445 9.91177 8.18445 10.2409V11.0839H9.04314C9.37843 11.0839 9.65648 11.3568 9.65648 11.686C9.65648 12.0232 9.37843 12.2881 9.04314 12.2881ZM12.5188 10.9313H12.6005C12.9358 10.9313 13.2139 10.6664 13.2139 10.3292C13.2139 10.0001 12.9358 9.72712 12.6005 9.72712H12.5188C12.1753 9.72712 11.9054 10.0001 11.9054 10.3292C11.9054 10.6664 12.1753 10.9313 12.5188 10.9313ZM13.9172 13.693H13.999C14.3343 13.693 14.6123 13.4281 14.6123 13.0909C14.6123 12.7618 14.3343 12.4888 13.999 12.4888H13.9172C13.5737 12.4888 13.3039 12.7618 13.3039 13.0909C13.3039 13.4281 13.5737 13.693 13.9172 13.693Z"/>
</svg>
