<svg xmlns="http://www.w3.org/2000/svg" width="22.923" height="31.259" viewBox="0 0 22.923 31.259">
  <g id="attach" transform="translate(-0.5 0)">
    <path id="Path_548" data-name="Path 548" d="M23.417,8.826a.5.5,0,0,0-.031-.149.411.411,0,0,0-.02-.052.516.516,0,0,0-.113-.156l-5.731-5.21a.52.52,0,0,0-.148-.092c-.016-.007-.032-.01-.048-.015a.518.518,0,0,0-.124-.023l-.03,0H9.878V2.605A2.608,2.608,0,0,0,7.273,0H6.231a2.608,2.608,0,0,0-2.6,2.6v.521H3.105a2.608,2.608,0,0,0-2.6,2.6V28.654a2.608,2.608,0,0,0,2.6,2.6H20.819a2.608,2.608,0,0,0,2.6-2.6V8.857c0-.011-.006-.02-.007-.031Zm-5.724-4,3.862,3.511H18.214a.521.521,0,0,1-.521-.521ZM4.668,2.605A1.563,1.563,0,0,1,6.231,1.042H7.273A1.563,1.563,0,0,1,8.836,2.605V8.857A1.563,1.563,0,0,1,7.273,10.42H6.231A1.563,1.563,0,0,1,4.668,8.857v-2.6h.521v2.6A1.042,1.042,0,0,0,6.231,9.9H7.273A1.042,1.042,0,0,0,8.315,8.857V2.605A1.042,1.042,0,0,0,7.273,1.563H6.231A1.042,1.042,0,0,0,5.189,2.605v.521H4.668Zm2.6.521H6.231V2.605H7.273ZM20.819,30.217H3.105a1.563,1.563,0,0,1-1.563-1.563V5.731A1.563,1.563,0,0,1,3.105,4.168H7.273V8.857H6.231V5.731A.521.521,0,0,0,5.71,5.21H4.147a.521.521,0,0,0-.521.521V8.857a2.608,2.608,0,0,0,2.6,2.6H7.273a2.608,2.608,0,0,0,2.6-2.6V4.168h6.773V7.815a1.563,1.563,0,0,0,1.563,1.563h4.168V28.654A1.563,1.563,0,0,1,20.819,30.217Zm0,0" transform="translate(0 0)"/>
    <path id="Path_549" data-name="Path 549" d="M113.021,209.042h11.461a.521.521,0,0,0,0-1.042H113.021a.521.521,0,1,0,0,1.042Zm0,0" transform="translate(-104.706 -194.454)"/>
    <path id="Path_550" data-name="Path 550" d="M49.021,257.042H64.65a.521.521,0,0,0,0-1.042H49.021a.521.521,0,0,0,0,1.042Zm0,0" transform="translate(-44.874 -239.328)"/>
    <path id="Path_551" data-name="Path 551" d="M49.021,305.042H64.65a.521.521,0,1,0,0-1.042H49.021a.521.521,0,1,0,0,1.042Zm0,0" transform="translate(-44.874 -284.202)"/>
    <path id="Path_552" data-name="Path 552" d="M49.021,353.042H64.65a.521.521,0,1,0,0-1.042H49.021a.521.521,0,1,0,0,1.042Zm0,0" transform="translate(-44.874 -329.077)"/>
    <path id="Path_553" data-name="Path 553" d="M60.482,400H49.021a.521.521,0,0,0,0,1.042H60.482a.521.521,0,0,0,0-1.042Zm0,0" transform="translate(-44.874 -373.951)"/>
    <path id="Path_554" data-name="Path 554" d="M275.1,400a.521.521,0,0,0-.521.521v1.042a.521.521,0,0,1-.521.521h-1.042a.521.521,0,1,0,0,1.042h1.042a1.563,1.563,0,0,0,1.563-1.563v-1.042A.521.521,0,0,0,275.1,400Zm0,0" transform="translate(-254.286 -373.951)"/>
  </g>
</svg>
