<svg width="20" height="20" viewBox="0 0 20 20" xmlns="http://www.w3.org/2000/svg">
<path d="M9.95752 12.1166C7.08253 12.1166 4.65674 12.5864 4.65674 14.3995C4.65674 16.2134 7.0982 16.6667 9.95752 16.6667C12.8325 16.6667 15.2583 16.1969 15.2583 14.3838C15.2583 12.5699 12.8168 12.1166 9.95752 12.1166Z"/>
<path opacity="0.4" d="M9.95751 10.3892C11.9043 10.3892 13.4653 8.81921 13.4653 6.86126C13.4653 4.90255 11.9043 3.33333 9.95751 3.33333C8.01075 3.33333 6.44977 4.90255 6.44977 6.86126C6.44977 8.81921 8.01075 10.3892 9.95751 10.3892Z"/>
<path opacity="0.4" d="M17.5733 7.68271C18.077 5.70148 16.6003 3.92213 14.72 3.92213C14.5155 3.92213 14.32 3.94465 14.129 3.98292C14.1036 3.98893 14.0753 4.00168 14.0603 4.0242C14.0432 4.05272 14.0559 4.09099 14.0745 4.11575C14.6394 4.91275 14.964 5.8831 14.964 6.92474C14.964 7.92285 14.6662 8.85343 14.1439 9.62566C14.0902 9.70521 14.1379 9.81252 14.2327 9.82903C14.364 9.8523 14.4983 9.8643 14.6356 9.86806C16.0049 9.90408 17.2338 9.01778 17.5733 7.68271Z" />
<path d="M19.0077 12.3474C18.757 11.8101 18.1519 11.4416 17.2318 11.2608C16.7976 11.1542 15.6223 11.0041 14.5292 11.0244C14.5128 11.0266 14.5038 11.0379 14.5023 11.0454C14.5001 11.0559 14.5046 11.0739 14.5262 11.0852C15.0314 11.3366 16.9841 12.43 16.7386 14.7362C16.7282 14.836 16.808 14.9223 16.9073 14.9073C17.3878 14.8382 18.6242 14.5711 19.0077 13.7388C19.2196 13.299 19.2196 12.788 19.0077 12.3474Z" />
<path opacity="0.4" d="M5.87063 3.98315C5.68036 3.94413 5.48412 3.92236 5.27967 3.92236C3.39932 3.92236 1.92265 5.70171 2.42706 7.68294C2.76582 9.01801 3.99476 9.90431 5.36398 9.86829C5.50128 9.86453 5.63633 9.85177 5.76691 9.82926C5.86168 9.81275 5.90943 9.70543 5.85571 9.62589C5.33339 8.85291 5.03567 7.92308 5.03567 6.92497C5.03567 5.88257 5.361 4.91222 5.92585 4.11598C5.94376 4.09122 5.95719 4.05294 5.93928 4.02443C5.92436 4.00116 5.89675 3.98915 5.87063 3.98315Z" />
<path d="M2.76794 11.2606C1.84792 11.4414 1.24352 11.8099 0.992807 12.3472C0.780148 12.7877 0.780148 13.2988 0.992807 13.7393C1.37634 14.5708 2.61274 14.8388 3.09327 14.9071C3.19251 14.9221 3.27161 14.8365 3.26116 14.7359C3.01567 12.4305 4.96839 11.3371 5.4743 11.0857C5.49519 11.0737 5.49967 11.0564 5.49743 11.0452C5.49594 11.0377 5.48773 11.0264 5.47131 11.0249C4.37743 11.0039 3.20296 11.154 2.76794 11.2606Z" />
</svg>
