<svg width="72" height="74" viewBox="0 0 72 74" fill="none" xmlns="http://www.w3.org/2000/svg">
<path fill-rule="evenodd" clip-rule="evenodd" d="M75.1386 59.9782L71.9348 34.1671C69.9831 24.9569 64.4595 21.1667 59.1936 21.1667H16.8821C11.5426 21.1667 5.83477 24.6916 4.17766 34.1671L0.937102 59.9782C-1.71427 78.929 8.04424 83.6668 20.7855 83.6668H55.327C68.0314 83.6668 77.4954 76.8065 75.1386 59.9782ZM25.9041 42.6191C23.8704 42.6191 22.2217 40.9222 22.2217 38.829C22.2217 36.7357 23.8704 35.0388 25.9041 35.0388C27.9379 35.0388 29.5866 36.7357 29.5866 38.829C29.5866 40.9222 27.9379 42.6191 25.9041 42.6191ZM46.3417 38.829C46.3417 40.9222 47.9904 42.6191 50.0242 42.6191C52.058 42.6191 53.7066 40.9222 53.7066 38.829C53.7066 36.7357 52.058 35.0388 50.0242 35.0388C47.9904 35.0388 46.3417 36.7357 46.3417 38.829Z" fill="#F5F6FA"/>
<path opacity="0.4" d="M58.7238 20.2264C58.7369 20.5496 58.6748 20.8714 58.5424 21.1667H52.5544C52.4384 20.8665 52.377 20.5481 52.3729 20.2264C52.3729 12.2368 45.8738 5.75998 37.8566 5.75998C29.8395 5.75998 23.3403 12.2368 23.3403 20.2264C23.3953 20.5374 23.3953 20.8557 23.3403 21.1667H17.2072C17.1523 20.8557 17.1523 20.5374 17.2072 20.2264C17.6732 9.108 26.8535 0.333374 38.0199 0.333374C49.1864 0.333374 58.3667 9.108 58.8327 20.2264H58.7238Z" fill="#F5F6FA"/>
</svg>
