<svg width="20" height="20" viewBox="0 0 20 20" xmlns="http://www.w3.org/2000/svg">
<path opacity="0.4" d="M13.4925 1.66663H6.50833C3.975 1.66663 2.5 3.14996 2.5 5.69163V14.3C2.5 16.8833 3.975 18.3333 6.50833 18.3333H13.4925C16.0667 18.3333 17.5 16.8833 17.5 14.3V5.69163C17.5 3.14996 16.0667 1.66663 13.4925 1.66663Z" fill="#8181A5"/>
<path fill-rule="evenodd" clip-rule="evenodd" d="M6.73281 5.54163V5.54996C6.37364 5.54996 6.08281 5.84163 6.08281 6.19996C6.08281 6.55829 6.37364 6.84996 6.73281 6.84996H9.22364C9.58281 6.84996 9.87448 6.55829 9.87448 6.19079C9.87448 5.83329 9.58281 5.54163 9.22364 5.54163H6.73281ZM13.2661 10.6166H6.73281C6.37364 10.6166 6.08281 10.325 6.08281 9.96663C6.08281 9.60829 6.37364 9.31579 6.73281 9.31579H13.2661C13.6245 9.31579 13.9161 9.60829 13.9161 9.96663C13.9161 10.325 13.6245 10.6166 13.2661 10.6166ZM13.2661 14.425H6.73281C6.48281 14.4583 6.24115 14.3333 6.10781 14.125C5.97448 13.9083 5.97448 13.6333 6.10781 13.425C6.24115 13.2083 6.48281 13.0916 6.73281 13.1166H13.2661C13.5986 13.15 13.8495 13.4333 13.8495 13.775C13.8495 14.1075 13.5986 14.3916 13.2661 14.425Z"/>
</svg>
