<svg width="25" height="24" viewBox="0 0 25 24" fill="none" xmlns="http://www.w3.org/2000/svg">
<path fill-rule="evenodd" clip-rule="evenodd" d="M3.56641 16.87V9.25696H21.5664V16.931C21.5664 20.07 19.5906 22 16.4292 22H8.69374C5.56202 22 3.56641 20.03 3.56641 16.87ZM8.52579 14.41C8.07135 14.431 7.69593 14.07 7.67618 13.611C7.67618 13.151 8.03183 12.771 8.48627 12.75C8.93084 12.75 9.29637 13.101 9.30625 13.55C9.32601 14.011 8.97036 14.391 8.52579 14.41ZM12.5862 14.41C12.1317 14.431 11.7563 14.07 11.7365 13.611C11.7365 13.151 12.0922 12.771 12.5466 12.75C12.9912 12.75 13.3567 13.101 13.3666 13.55C13.3864 14.011 13.0307 14.391 12.5862 14.41ZM16.6169 18.09C16.1625 18.08 15.7969 17.7 15.7969 17.24C15.787 16.78 16.1526 16.401 16.607 16.391H16.6169C17.0812 16.391 17.4566 16.771 17.4566 17.24C17.4566 17.71 17.0812 18.09 16.6169 18.09ZM11.7365 17.24C11.7563 17.7 12.1317 18.061 12.5862 18.04C13.0307 18.021 13.3864 17.641 13.3666 17.181C13.3567 16.731 12.9912 16.38 12.5466 16.38C12.0922 16.401 11.7365 16.78 11.7365 17.24ZM7.6663 17.24C7.68606 17.7 8.06147 18.061 8.51591 18.04C8.96048 18.021 9.31613 17.641 9.29637 17.181C9.28649 16.731 8.92096 16.38 8.4764 16.38C8.02195 16.401 7.6663 16.78 7.6663 17.24ZM15.8068 13.601C15.8068 13.141 16.1625 12.771 16.6169 12.761C17.0615 12.761 17.4171 13.12 17.4369 13.561C17.4468 14.021 17.0911 14.401 16.6465 14.41C16.1921 14.42 15.8167 14.07 15.8068 13.611V13.601Z" fill="#9B9B9B"/>
<path opacity="0.4" d="M3.57031 9.25687C3.58316 8.66987 3.63255 7.50487 3.72542 7.12987C4.19962 5.02087 5.80994 3.68087 8.11181 3.48987H17.0229C19.305 3.69087 20.9351 5.03987 21.4093 7.12987C21.5012 7.49487 21.5506 8.66887 21.5634 9.25687H3.57031Z" fill="#9B9B9B"/>
<path d="M8.87203 6.59C9.30672 6.59 9.63273 6.261 9.63273 5.82V2.771C9.63273 2.33 9.30672 2 8.87203 2C8.43734 2 8.11133 2.33 8.11133 2.771V5.82C8.11133 6.261 8.43734 6.59 8.87203 6.59Z" fill="#9B9B9B"/>
<path d="M16.2607 6.59C16.6855 6.59 17.0214 6.261 17.0214 5.82V2.771C17.0214 2.33 16.6855 2 16.2607 2C15.826 2 15.5 2.33 15.5 2.771V5.82C15.5 6.261 15.826 6.59 16.2607 6.59Z" fill="#9B9B9B"/>
</svg>
