<svg width="10" height="10" viewBox="0 0 10 10" fill="none" xmlns="http://www.w3.org/2000/svg">
<path fill-rule="evenodd" clip-rule="evenodd" d="M6.35133 1.97407C6.35133 2.89948 7.10262 3.64967 8.02939 3.64967C8.13144 3.64917 8.23323 3.63938 8.3335 3.62041V6.94236C8.3335 8.33992 7.50912 9.16675 6.10951 9.16675H3.06115C1.65787 9.16675 0.833496 8.33992 0.833496 6.94236V3.89846C0.833496 2.50089 1.65787 1.66675 3.06115 1.66675H6.38064C6.36094 1.768 6.35112 1.87092 6.35133 1.97407ZM5.47933 6.20699L6.67009 4.6704V4.66309C6.77203 4.52611 6.74602 4.33295 6.61147 4.22772C6.54634 4.17745 6.46359 4.15568 6.38211 4.16741C6.30064 4.17913 6.2274 4.22333 6.17913 4.28992L5.17522 5.58138L4.03209 4.68138C3.96682 4.63053 3.8838 4.60808 3.80176 4.6191C3.71972 4.63011 3.64558 4.67366 3.59608 4.73992L2.36501 6.32772C2.32174 6.38166 2.29845 6.44886 2.29906 6.51796C2.29192 6.65764 2.38012 6.78451 2.51366 6.82666C2.64721 6.86882 2.79241 6.81562 2.86697 6.69723L3.89652 5.36553L5.03966 6.26187C5.10468 6.31429 5.18825 6.33805 5.27117 6.3277C5.35409 6.31735 5.42923 6.27378 5.47933 6.20699Z" fill="white"/>
<ellipse opacity="0.4" cx="8.12516" cy="1.87504" rx="1.04167" ry="1.04167" fill="white"/>
</svg>
