<svg width="28" height="28" viewBox="0 0 28 28" fill="none" xmlns="http://www.w3.org/2000/svg">
<path d="M26.5697 1.43769C25.9031 0.756358 24.9164 0.504357 23.9964 0.771024L2.54306 6.96969C1.5724 7.23902 0.884397 8.00836 0.699064 8.98436C0.509731 9.97902 1.17106 11.243 2.03506 11.771L8.74306 15.867C9.43106 16.2884 10.3191 16.183 10.8884 15.6124L18.5697 7.93102C18.9564 7.52969 19.5964 7.52969 19.9831 7.93102C20.3697 8.31636 20.3697 8.94436 19.9831 9.34436L12.2884 17.0257C11.7177 17.5964 11.6111 18.4817 12.0311 19.171L16.1297 25.9044C16.6097 26.703 17.4364 27.1577 18.3431 27.1577C18.4497 27.1577 18.5697 27.1577 18.6764 27.143C19.7164 27.011 20.5431 26.303 20.8497 25.303L27.2097 4.01102C27.4897 3.10436 27.2364 2.11769 26.5697 1.43769Z" fill="white"/>
<path opacity="0.4" fill-rule="evenodd" clip-rule="evenodd" d="M2.01383 20.4103C1.75783 20.4103 1.50183 20.313 1.30716 20.117C0.916493 19.7263 0.916493 19.0943 1.30716 18.7037L3.12716 16.8823C3.51783 16.493 4.15116 16.493 4.54183 16.8823C4.93116 17.273 4.93116 17.9063 4.54183 18.297L2.72049 20.117C2.52583 20.313 2.26983 20.4103 2.01383 20.4103ZM7.02876 22.0002C6.77276 22.0002 6.51676 21.9029 6.32209 21.7069C5.93143 21.3162 5.93143 20.6842 6.32209 20.2935L8.14209 18.4722C8.53276 18.0829 9.16609 18.0829 9.55676 18.4722C9.94609 18.8629 9.94609 19.4962 9.55676 19.8869L7.73543 21.7069C7.54076 21.9029 7.28476 22.0002 7.02876 22.0002ZM7.36703 26.7575C7.5617 26.9535 7.8177 27.0509 8.0737 27.0509C8.3297 27.0509 8.5857 26.9535 8.78036 26.7575L10.6017 24.9375C10.991 24.5469 10.991 23.9135 10.6017 23.5229C10.211 23.1335 9.5777 23.1335 9.18703 23.5229L7.36703 25.3442C6.97636 25.7349 6.97636 26.3669 7.36703 26.7575Z" fill="white"/>
</svg>
