<svg width="20" height="20" viewBox="0 0 20 20" xmlns="http://www.w3.org/2000/svg">
<path opacity="0.4" d="M13.8963 1.66666H6.11113C3.27409 1.66666 1.66669 3.27406 1.66669 6.1111V13.8889C1.66669 16.7259 3.27409 18.3333 6.11113 18.3333H13.8963C16.7334 18.3333 18.3334 16.7259 18.3334 13.8889V6.1111C18.3334 3.27406 16.7334 1.66666 13.8963 1.66666Z"/>
<path d="M6.14061 7.80746C5.76283 7.80746 5.45172 8.11858 5.45172 8.50376V14.2297C5.45172 14.6075 5.76283 14.9186 6.14061 14.9186C6.5258 14.9186 6.83691 14.6075 6.83691 14.2297V8.50376C6.83691 8.11858 6.5258 7.80746 6.14061 7.80746Z"/>
<path d="M10.0295 5.07413C9.65175 5.07413 9.34064 5.38524 9.34064 5.77042V14.2297C9.34064 14.6075 9.65175 14.9186 10.0295 14.9186C10.4147 14.9186 10.7258 14.6075 10.7258 14.2297V5.77042C10.7258 5.38524 10.4147 5.07413 10.0295 5.07413Z" />
<path d="M13.8666 10.8297C13.4814 10.8297 13.1703 11.1408 13.1703 11.526V14.2297C13.1703 14.6075 13.4814 14.9186 13.8592 14.9186C14.2444 14.9186 14.5555 14.6075 14.5555 14.2297V11.526C14.5555 11.1408 14.2444 10.8297 13.8666 10.8297Z" />
</svg>
