<svg width="18" height="18" viewBox="0 0 18 18" xmlns="http://www.w3.org/2000/svg">
<path opacity="0.4" d="M16.4998 11.9552C16.4998 14.0477 14.8198 15.7427 12.7273 15.7502H12.7198H5.28729C3.20229 15.7502 1.49979 14.0627 1.49979 11.9702V11.9627C1.49979 11.9627 1.50429 8.64315 1.51029 6.97365C1.51104 6.66015 1.87104 6.48465 2.11629 6.67965C3.89829 8.0934 7.08504 10.6712 7.12479 10.7049C7.65729 11.1317 8.33229 11.3724 9.02229 11.3724C9.71229 11.3724 10.3873 11.1317 10.9198 10.6967C10.9595 10.6704 14.075 8.1699 15.884 6.7329C16.13 6.53715 16.4915 6.71265 16.4923 7.0254C16.4998 8.68215 16.4998 11.9552 16.4998 11.9552Z"/>
<path d="M16.1069 4.25521C15.4574 3.03121 14.1794 2.24971 12.7724 2.24971H5.28735C3.88035 2.24971 2.60235 3.03121 1.95285 4.25521C1.80735 4.52896 1.87635 4.87021 2.1186 5.06371L7.68735 9.51796C8.07735 9.83296 8.54985 9.98971 9.02235 9.98971C9.02535 9.98971 9.0276 9.98971 9.02985 9.98971C9.0321 9.98971 9.0351 9.98971 9.03735 9.98971C9.50985 9.98971 9.98235 9.83296 10.3724 9.51796L15.9411 5.06371C16.1834 4.87021 16.2524 4.52896 16.1069 4.25521Z"/>
</svg>
