<svg width="20" height="20" viewBox="0 0 20 20" xmlns="http://www.w3.org/2000/svg">
<path fill-rule="evenodd" clip-rule="evenodd" d="M15.1798 2.41C15.1798 1.08 16.2598 0 17.5898 0C18.9198 0 19.9998 1.08 19.9998 2.41C19.9998 3.74 18.9198 4.82 17.5898 4.82C16.2598 4.82 15.1798 3.74 15.1798 2.41ZM11.3297 12.7593L14.2197 9.0303L14.1797 9.0503C14.3397 8.8303 14.3697 8.5503 14.2597 8.3003C14.1507 8.0503 13.9097 7.8803 13.6507 7.8603C13.3797 7.8303 13.1107 7.9503 12.9497 8.1703L10.5307 11.3003L7.75969 9.1203C7.58969 8.9903 7.38969 8.9393 7.18969 8.9603C6.99069 8.9903 6.81069 9.0993 6.68969 9.2593L3.73069 13.1103L3.66969 13.2003C3.49969 13.5193 3.57969 13.9293 3.87969 14.1503C4.01969 14.2403 4.16969 14.3003 4.33969 14.3003C4.57069 14.3103 4.78969 14.1893 4.92969 14.0003L7.43969 10.7693L10.2897 12.9103L10.3797 12.9693C10.6997 13.1393 11.0997 13.0603 11.3297 12.7593ZM13.4497 1.7803C13.4097 2.0303 13.3897 2.2803 13.3897 2.5303C13.3897 4.7803 15.2097 6.5993 17.4497 6.5993C17.6997 6.5993 17.9397 6.5703 18.1897 6.5303V14.5993C18.1897 17.9903 16.1897 20.0003 12.7897 20.0003H5.40069C1.99969 20.0003 -0.000305176 17.9903 -0.000305176 14.5993V7.2003C-0.000305176 3.8003 1.99969 1.7803 5.40069 1.7803H13.4497Z"/>
</svg>
