<svg width="10" height="8" viewBox="0 0 10 8" fill="none" xmlns="http://www.w3.org/2000/svg">
<path fill-rule="evenodd" clip-rule="evenodd" d="M7.39041 1.51915C8.10179 2.06824 8.70748 2.87269 9.14244 3.87875C9.17496 3.95511 9.17496 4.0444 9.14244 4.11713C8.27252 6.12925 6.72374 7.33329 5.00016 7.33329H4.9961C3.27659 7.33329 1.72781 6.12925 0.857886 4.11713C0.825366 4.0444 0.825366 3.95511 0.857886 3.87875C1.72781 1.86622 3.27659 0.666626 4.9961 0.666626H5.00016C5.86195 0.666626 6.67902 0.965616 7.39041 1.51915ZM3.37416 3.99996C3.37416 4.88885 4.1018 5.61208 5.00018 5.61208C5.89449 5.61208 6.62213 4.88885 6.62213 3.99996C6.62213 3.10703 5.89449 2.3838 5.00018 2.3838C4.1018 2.3838 3.37416 3.10703 3.37416 3.99996Z" fill="white"/>
<path opacity="0.4" d="M6.01283 3.99863C6.01283 4.55216 5.55754 5.00469 5.00063 5.00469C4.43966 5.00469 3.98438 4.55216 3.98438 3.99863C3.98438 3.92994 3.99251 3.8657 4.0047 3.80105H4.02503C4.47624 3.80105 4.8421 3.44549 4.85836 3.00065C4.90307 2.99297 4.95185 2.98853 5.00063 2.98853C5.55754 2.98853 6.01283 3.44105 6.01283 3.99863Z" fill="white"/>
</svg>
