<svg width="32" height="32" viewBox="0 0 32 32" fill="none" xmlns="http://www.w3.org/2000/svg">
<path opacity="0.4" d="M29.3332 21.2536C29.3332 24.9736 26.3465 27.9869 22.6265 28.0003H22.6132H9.39984C5.69317 28.0003 2.6665 25.0003 2.6665 21.2803V21.2669C2.6665 21.2669 2.6745 15.3656 2.68517 12.3976C2.6865 11.8403 3.3265 11.5283 3.7625 11.8749C6.9305 14.3883 12.5958 18.9709 12.6665 19.0309C13.6132 19.7896 14.8132 20.2176 16.0398 20.2176C17.2665 20.2176 18.4665 19.7896 19.4132 19.0163C19.4838 18.9696 25.0225 14.5243 28.2385 11.9696C28.6758 11.6216 29.3185 11.9336 29.3198 12.4896C29.3332 15.4349 29.3332 21.2536 29.3332 21.2536Z" fill="white"/>
<path d="M28.6347 7.56478C27.48 5.38878 25.208 3.99945 22.7067 3.99945H9.40001C6.89867 3.99945 4.62667 5.38878 3.47201 7.56478C3.21334 8.05145 3.33601 8.65812 3.76667 9.00212L13.6667 16.9208C14.36 17.4808 15.2 17.7594 16.04 17.7594C16.0453 17.7594 16.0493 17.7594 16.0533 17.7594C16.0573 17.7594 16.0627 17.7594 16.0667 17.7594C16.9067 17.7594 17.7467 17.4808 18.44 16.9208L28.34 9.00212C28.7707 8.65812 28.8933 8.05145 28.6347 7.56478Z" fill="white"/>
</svg>
