<svg width="16" height="14" viewBox="0 0 16 14" xmlns="http://www.w3.org/2000/svg">
<path opacity="0.4" d="M4.02898 7.66791C3.6419 7.66791 3.32854 7.98592 3.32854 8.37877L3.13544 11.8128C3.13544 12.3134 3.53569 12.7188 4.02898 12.7188C4.52227 12.7188 4.92165 12.3134 4.92165 11.8128L4.72942 8.37877C4.72942 7.98592 4.41607 7.66791 4.02898 7.66791Z" />
<path d="M4.98512 0.755085C4.98512 0.755085 4.78412 0.548419 4.65948 0.458448C4.47866 0.319483 4.25572 0.25 4.03365 0.25C3.78437 0.25 3.55264 0.328391 3.36393 0.476264C3.3297 0.511005 3.18399 0.641953 3.06374 0.763993C2.30888 1.47753 1.07389 3.3402 0.696462 4.31563C0.636776 4.4635 0.507747 4.83764 0.499847 5.03807C0.499847 5.2287 0.541979 5.4122 0.627998 5.58591C0.748249 5.80327 0.936964 5.97786 1.15991 6.07318C1.31439 6.13464 1.77697 6.22996 1.78574 6.22996C2.2922 6.32617 3.11553 6.37783 4.02487 6.37783C4.8912 6.37783 5.6803 6.32617 6.19466 6.24778C6.20343 6.23887 6.77748 6.14355 6.97497 6.03844C7.33485 5.84692 7.55867 5.47278 7.55867 5.07281V5.03807C7.54989 4.77706 7.32607 4.22833 7.31817 4.22833C6.94074 3.30545 5.76544 1.48643 4.98512 0.755085Z" />
<path opacity="0.4" d="M11.9709 6.33221C12.358 6.33221 12.6713 6.01419 12.6713 5.62134L12.8635 2.18722C12.8635 1.68657 12.4642 1.28125 11.9709 1.28125C11.4776 1.28125 11.0773 1.68657 11.0773 2.18722L11.2704 5.62134C11.2704 6.01419 11.5838 6.33221 11.9709 6.33221Z" />
<path d="M15.3717 8.41397C15.2514 8.1966 15.0627 8.02289 14.8398 7.92669C14.6853 7.86522 14.2218 7.7699 14.2139 7.7699C13.7075 7.67369 12.8842 7.62202 11.9748 7.62202C11.1085 7.62202 10.3194 7.67369 9.80502 7.75208C9.79625 7.76099 9.2222 7.8572 9.02471 7.96143C8.66396 8.15295 8.44101 8.5271 8.44101 8.92797V8.96271C8.44979 9.22372 8.67273 9.77158 8.68151 9.77158C9.05894 10.6945 10.2334 12.5144 11.0146 13.2449C11.0146 13.2449 11.2156 13.4516 11.3402 13.5406C11.5201 13.6805 11.7431 13.75 11.9669 13.75C12.2153 13.75 12.4462 13.6716 12.6358 13.5237C12.67 13.489 12.8157 13.358 12.9359 13.2369C13.6899 12.5224 14.9258 10.6597 15.3023 9.68517C15.3629 9.53729 15.4919 9.16226 15.4998 8.96271C15.4998 8.77119 15.4577 8.58768 15.3717 8.41397Z"/>
</svg>
