<svg width="20" height="20" viewBox="0 0 20 20" xmlns="http://www.w3.org/2000/svg">
<path fill-rule="evenodd" clip-rule="evenodd" d="M5.67012 -9.91821e-05H14.3401C17.7301 -9.91821e-05 20.0001 2.3799 20.0001 5.9199V14.0909C20.0001 17.6199 17.7301 19.9999 14.3401 19.9999H5.67012C2.28012 19.9999 0.00012207 17.6199 0.00012207 14.0909V5.9199C0.00012207 2.3799 2.28012 -9.91821e-05 5.67012 -9.91821e-05ZM9.43012 12.9899L14.1801 8.2399C14.5201 7.8999 14.5201 7.3499 14.1801 6.9999C13.8401 6.6599 13.2801 6.6599 12.9401 6.9999L8.81012 11.1299L7.06012 9.3799C6.72012 9.0399 6.16012 9.0399 5.82012 9.3799C5.48012 9.7199 5.48012 10.2699 5.82012 10.6199L8.20012 12.9899C8.37012 13.1599 8.59012 13.2399 8.81012 13.2399C9.04012 13.2399 9.26012 13.1599 9.43012 12.9899Z"/>
</svg>
