<svg width="28" height="28" viewBox="0 0 28 28" fill="none" xmlns="http://www.w3.org/2000/svg">
<path opacity="0.4" d="M14.0265 0.666748C6.27984 0.666748 0.666504 6.98675 0.666504 14.0001C0.666504 16.2401 1.31984 18.5467 2.4665 20.6534C2.67984 21.0001 2.7065 21.4401 2.55984 21.8534L1.6665 24.8401C1.4665 25.5601 2.07984 26.0934 2.75984 25.8801L5.45317 25.0801C6.1865 24.8401 6.75984 25.1467 7.44117 25.5601C9.38784 26.7067 11.8132 27.2934 13.9998 27.2934C20.6132 27.2934 27.3332 22.1867 27.3332 13.9601C27.3332 6.86675 21.5998 0.666748 14.0265 0.666748Z" fill="white"/>
<path fill-rule="evenodd" clip-rule="evenodd" d="M13.974 15.7201C13.0273 15.7068 12.2673 14.9468 12.2673 14.0001C12.2673 13.0668 13.0407 12.2935 13.974 12.3068C14.9207 12.3068 15.6807 13.0668 15.6807 14.0135C15.6807 14.9468 14.9207 15.7201 13.974 15.7201ZM7.82678 15.7201C6.89345 15.7201 6.12012 14.9468 6.12012 14.0134C6.12012 13.0668 6.88012 12.3068 7.82678 12.3068C8.77345 12.3068 9.53345 13.0668 9.53345 14.0134C9.53345 14.9468 8.77345 15.7068 7.82678 15.7201ZM18.4137 14.0135C18.4137 14.9468 19.1737 15.7201 20.1204 15.7201C21.0671 15.7201 21.8271 14.9468 21.8271 14.0135C21.8271 13.0668 21.0671 12.3068 20.1204 12.3068C19.1737 12.3068 18.4137 13.0668 18.4137 14.0135Z" fill="white"/>
</svg>

