<svg width="18" height="18" viewBox="0 0 18 18" xmlns="http://www.w3.org/2000/svg">
<path d="M14.9995 2.99947C14.4472 2.44724 13.5519 2.44724 12.9996 2.99947L9 6.99912L5.00035 2.99947C4.44812 2.44723 3.55276 2.44724 3.00053 2.99947C2.44829 3.55171 2.44829 4.44706 3.00053 4.99929L7.00018 8.99894L3.00053 12.9986C2.44829 13.5508 2.44829 14.4462 3.00053 14.9984C3.55276 15.5507 4.44812 15.5506 5.00035 14.9984L9 10.9988L12.9996 14.9984C13.5519 15.5507 14.4472 15.5507 14.9995 14.9984C15.5517 14.4462 15.5517 13.5508 14.9995 12.9986L10.9998 8.99894L14.9995 4.99929C15.5517 4.44706 15.5517 3.55171 14.9995 2.99947Z"/>
</svg>
