<svg width="10" height="10" viewBox="0 0 10 10" fill="none" xmlns="http://www.w3.org/2000/svg">
<path d="M9.00045 0.998495C8.63222 0.630264 8.0352 0.630264 7.66697 0.998495L5 3.66546L2.33303 0.998495C1.9648 0.630264 1.36778 0.630264 0.999552 0.998495C0.631321 1.36673 0.631321 1.96375 0.999552 2.33198L3.66652 4.99894L0.999552 7.66591C0.631321 8.03414 0.631321 8.63116 0.999552 8.99939C1.36778 9.36762 1.9648 9.36762 2.33303 8.99939L5 6.33243L7.66697 8.99939C8.0352 9.36762 8.63222 9.36762 9.00045 8.99939C9.36868 8.63116 9.36868 8.03414 9.00045 7.66591L6.33348 4.99894L9.00045 2.33198C9.36868 1.96375 9.36868 1.36673 9.00045 0.998495Z" fill="#5E81F4"/>
</svg>
