<svg width="24" height="24" viewBox="0 0 24 24" fill="none" xmlns="http://www.w3.org/2000/svg">
<path opacity="0.4" d="M12.02 2C6.21 2 2 6.74 2 12C2 13.68 2.49 15.41 3.35 16.99C3.51 17.25 3.53 17.58 3.42 17.89L2.75 20.13C2.6 20.67 3.06 21.07 3.57 20.91L5.59 20.31C6.14 20.13 6.57 20.36 7.081 20.67C8.541 21.53 10.36 21.97 12 21.97C16.96 21.97 22 18.14 22 11.97C22 6.65 17.7 2 12.02 2Z" fill="white"/>
<path fill-rule="evenodd" clip-rule="evenodd" d="M11.9802 13.2901C11.2702 13.2801 10.7002 12.7101 10.7002 12.0001C10.7002 11.3001 11.2802 10.7201 11.9802 10.7301C12.6902 10.7301 13.2602 11.3001 13.2602 12.0101C13.2602 12.7101 12.6902 13.2901 11.9802 13.2901ZM7.36984 13.2901C6.66984 13.2901 6.08984 12.7101 6.08984 12.0101C6.08984 11.3001 6.65984 10.7301 7.36984 10.7301C8.07984 10.7301 8.64984 11.3001 8.64984 12.0101C8.64984 12.7101 8.07984 13.2801 7.36984 13.2901ZM15.31 12.0101C15.31 12.7101 15.88 13.2901 16.59 13.2901C17.3 13.2901 17.87 12.7101 17.87 12.0101C17.87 11.3001 17.3 10.7301 16.59 10.7301C15.88 10.7301 15.31 11.3001 15.31 12.0101Z" fill="white"/>
</svg>
