<svg width="14" height="14" viewBox="0 0 14 14" fill="none" xmlns="http://www.w3.org/2000/svg">
<path opacity="0.4" d="M7.01398 0.333374C3.14065 0.333374 0.333984 3.49337 0.333984 7.00004C0.333984 8.12004 0.660651 9.27337 1.23398 10.3267C1.34065 10.5 1.35398 10.72 1.28065 10.9267L0.833984 12.42C0.733984 12.78 1.04065 13.0467 1.38065 12.94L2.72732 12.54C3.09398 12.42 3.38065 12.5734 3.72132 12.78C4.69465 13.3534 5.90732 13.6467 7.00065 13.6467C10.3073 13.6467 13.6673 11.0934 13.6673 6.98004C13.6673 3.43337 10.8007 0.333374 7.01398 0.333374Z" fill="white"/>
<path fill-rule="evenodd" clip-rule="evenodd" d="M6.98748 7.86007C6.51414 7.85341 6.13414 7.47341 6.13414 7.00007C6.13414 6.53341 6.52081 6.14674 6.98748 6.15341C7.46081 6.15341 7.84081 6.53341 7.84081 7.00674C7.84081 7.47341 7.46081 7.86007 6.98748 7.86007ZM3.91388 7.86011C3.44721 7.86011 3.06055 7.47345 3.06055 7.00678C3.06055 6.53345 3.44055 6.15345 3.91388 6.15345C4.38721 6.15345 4.76721 6.53345 4.76721 7.00678C4.76721 7.47345 4.38721 7.85345 3.91388 7.86011ZM9.20734 7.00674C9.20734 7.47341 9.58734 7.86007 10.0607 7.86007C10.534 7.86007 10.914 7.47341 10.914 7.00674C10.914 6.53341 10.534 6.15341 10.0607 6.15341C9.58734 6.15341 9.20734 6.53341 9.20734 7.00674Z" fill="white"/>
</svg>
