<svg width="11" height="14" viewBox="0 0 11 14" xmlns="http://www.w3.org/2000/svg">
<path opacity="0.4" d="M8.55087 5.8943C8.29867 5.8943 7.96462 5.88871 7.54872 5.88871C6.53441 5.88871 5.70039 5.0492 5.70039 4.02536V2.22903C5.70039 2.08772 5.58757 1.97266 5.44765 1.97266H2.4932C1.11442 1.97266 0 3.1043 0 4.4912V10.5097C0 11.9647 1.16751 13.1438 2.60823 13.1438H7.00783C8.38163 13.1438 9.49549 12.0194 9.49549 10.6314V6.14565C9.49549 6.00377 9.38322 5.88927 9.24275 5.88983C9.00659 5.8915 8.72342 5.8943 8.55087 5.8943Z" />
<path d="M9.44436 4.77711C9.207 4.77711 8.8926 4.77152 8.50116 4.77152C7.54652 4.77152 6.76156 3.93201 6.76156 2.90817V1.11185C6.76156 0.970532 6.65537 0.855469 6.52368 0.855469H3.74302C2.44535 0.855469 1.39648 1.98711 1.39648 3.37401V9.39248C1.39648 10.8475 2.49532 12.0266 3.85129 12.0266H7.99209C9.28508 12.0266 10.3334 10.9023 10.3334 9.51424V5.02846C10.3334 4.88659 10.2278 4.77208 10.0955 4.77264C9.87327 4.77432 9.60676 4.77711 9.44436 4.77711Z"/>
<path d="M7.9991 0.937827C7.83209 0.764115 7.54053 0.883647 7.54053 1.12439V2.5973C7.54053 3.21507 8.04937 3.72336 8.66714 3.72336C9.05646 3.72783 9.59714 3.72894 10.0563 3.72783C10.2914 3.72727 10.411 3.44631 10.2479 3.27651C9.65858 2.66377 8.60346 1.56565 7.9991 0.937827Z" />
</svg>
