<svg width="20" height="20" viewBox="0 0 20 20" xmlns="http://www.w3.org/2000/svg">
<path fill-rule="evenodd" clip-rule="evenodd" d="M5.33018 9.15527e-05H14.6602C18.0602 9.15527e-05 20.0002 1.92009 20.0002 5.33009V14.6701C20.0002 18.0601 18.0702 20.0001 14.6702 20.0001H5.33018C1.92018 20.0001 0.000183105 18.0601 0.000183105 14.6701V5.33009C0.000183105 1.92009 1.92018 9.15527e-05 5.33018 9.15527e-05ZM10.8202 10.8301H13.6602C14.1202 10.8201 14.4902 10.4501 14.4902 9.99009C14.4902 9.53009 14.1202 9.16009 13.6602 9.16009H10.8202V6.34009C10.8202 5.88009 10.4502 5.51009 9.99018 5.51009C9.53018 5.51009 9.16018 5.88009 9.16018 6.34009V9.16009H6.33018C6.11018 9.16009 5.90018 9.25009 5.74018 9.40009C5.59018 9.56009 5.50018 9.76909 5.50018 9.99009C5.50018 10.4501 5.87018 10.8201 6.33018 10.8301H9.16018V13.6601C9.16018 14.1201 9.53018 14.4901 9.99018 14.4901C10.4502 14.4901 10.8202 14.1201 10.8202 13.6601V10.8301Z" />
</svg>