<svg width="20" height="20" viewBox="0 0 20 20" xmlns="http://www.w3.org/2000/svg">
<path d="M7.79107 12.3815C4.4879 12.3815 1.66663 12.8917 1.66663 14.9312C1.66663 16.9722 4.46996 17.5 7.79107 17.5C11.0942 17.5 13.9155 16.9898 13.9155 14.9503C13.9155 12.9093 11.1122 12.3815 7.79107 12.3815Z"/>
<path opacity="0.4" d="M7.79105 10.4374C10.0407 10.4374 11.8436 8.67181 11.8436 6.46868C11.8436 4.26554 10.0407 2.5 7.79105 2.5C5.54218 2.5 3.73853 4.26554 3.73853 6.46868C3.73853 8.67181 5.54218 10.4374 7.79105 10.4374Z"/>
<path opacity="0.4" d="M13.4778 6.54061C13.4778 7.66254 13.1337 8.70941 12.5303 9.579C12.4675 9.66844 12.5229 9.78901 12.6322 9.80818C12.7839 9.83293 12.9396 9.84811 13.0986 9.8513C14.6805 9.89202 16.1001 8.89467 16.4923 7.39264C17.0737 5.16395 15.3679 3.16284 13.1948 3.16284C12.9592 3.16284 12.7333 3.1868 12.5132 3.23072C12.483 3.2371 12.4504 3.25148 12.4341 3.27703C12.4129 3.30977 12.4284 3.35209 12.4496 3.38004C13.1027 4.27679 13.4778 5.36837 13.4778 6.54061Z"/>
<path d="M18.1492 12.6411C17.8598 12.0366 17.161 11.6222 16.0977 11.4186C15.5962 11.2988 14.2378 11.1287 12.9747 11.1527C12.956 11.1551 12.9454 11.1678 12.9438 11.1758C12.9413 11.1886 12.947 11.2078 12.9715 11.2213C13.5553 11.504 15.8115 12.7338 15.5277 15.3274C15.5155 15.4408 15.6077 15.5366 15.7226 15.5206C16.2779 15.4432 17.7065 15.1421 18.1492 14.2062C18.3947 13.7111 18.3947 13.1362 18.1492 12.6411Z"/>
</svg>
