<svg width="20" height="20" viewBox="0 0 20 20" fill="none" xmlns="http://www.w3.org/2000/svg">
<g id="Bulk/Delete">
<g id="Delete">
<path id="Fill 1" opacity="0.4" d="M16.3696 7.90705C16.3696 7.96371 15.9255 13.581 15.6718 15.9451C15.513 17.3959 14.5777 18.2759 13.1748 18.3009C12.0969 18.325 11.0417 18.3333 10.0035 18.3333C8.90124 18.3333 7.82333 18.325 6.77703 18.3009C5.42113 18.2684 4.48505 17.3709 4.3343 15.9451C4.07333 13.5727 3.6373 7.96371 3.6292 7.90705C3.62109 7.73622 3.67621 7.57373 3.78805 7.44206C3.89827 7.3204 4.05712 7.24707 4.22408 7.24707H15.7829C15.949 7.24707 16.0998 7.3204 16.2189 7.44206C16.3299 7.57373 16.3858 7.73622 16.3696 7.90705Z" fill="#E77B7B"/>
<path id="Fill 4" d="M17.5 4.98074C17.5 4.63825 17.2301 4.36993 16.9059 4.36993H14.4762C13.9818 4.36993 13.5522 4.01827 13.442 3.52246L13.3059 2.91498C13.1154 2.18084 12.4581 1.66669 11.7206 1.66669H8.2802C7.53458 1.66669 6.88378 2.18084 6.68603 2.95498L6.55879 3.52329C6.44775 4.01827 6.01821 4.36993 5.52464 4.36993H3.09488C2.76988 4.36993 2.5 4.63825 2.5 4.98074V5.29739C2.5 5.63155 2.76988 5.90821 3.09488 5.90821H16.9059C17.2301 5.90821 17.5 5.63155 17.5 5.29739V4.98074Z" fill="#E77B7B"/>
</g>
</g>
</svg>
