<svg width="72" height="74" viewBox="0 0 72 74" fill="none" xmlns="http://www.w3.org/2000/svg">
<path opacity="0.4" d="M55.4625 0.333313H20.5417C7.875 0.333313 0.5 7.74998 0.5 20.4583V63.5C0.5 76.4166 7.875 83.6667 20.5417 83.6667H55.4625C68.3333 83.6667 75.5 76.4166 75.5 63.5V20.4583C75.5 7.74998 68.3333 0.333313 55.4625 0.333313Z" fill="#F5F6FA"/>
<path fill-rule="evenodd" clip-rule="evenodd" d="M21.6661 19.7084V19.75C19.8703 19.75 18.4161 21.2084 18.4161 23C18.4161 24.7917 19.8703 26.25 21.6661 26.25H34.1203C35.9161 26.25 37.3744 24.7917 37.3744 22.9542C37.3744 21.1667 35.9161 19.7084 34.1203 19.7084H21.6661ZM54.3328 45.0833H21.6661C19.8703 45.0833 18.4161 43.625 18.4161 41.8333C18.4161 40.0417 19.8703 38.5792 21.6661 38.5792H54.3328C56.1244 38.5792 57.5828 40.0417 57.5828 41.8333C57.5828 43.625 56.1244 45.0833 54.3328 45.0833ZM54.3327 64.125H21.666C20.416 64.2917 19.2077 63.6667 18.541 62.625C17.8743 61.5417 17.8743 60.1667 18.541 59.125C19.2077 58.0417 20.416 57.4584 21.666 57.5834H54.3327C55.9952 57.75 57.2493 59.1667 57.2493 60.875C57.2493 62.5375 55.9952 63.9584 54.3327 64.125Z" fill="#F5F6FA"/>
</svg>
