<svg width="15" height="18" viewBox="0 0 15 18" fill="none" xmlns="http://www.w3.org/2000/svg">
<path opacity="0.4" d="M12.7573 6.51783C12.3811 6.51783 11.8827 6.50949 11.2622 6.50949C9.74892 6.50949 8.50462 5.25699 8.50462 3.72949V1.04949C8.50462 0.838659 8.3363 0.666992 8.12754 0.666992H3.71969C1.66264 0.666992 0 2.35533 0 4.42449V13.4037C0 15.5745 1.74185 17.3337 3.89132 17.3337H10.4552C12.5049 17.3337 14.1667 15.6562 14.1667 13.5853V6.89283C14.1667 6.68116 13.9992 6.51033 13.7896 6.51116C13.4373 6.51366 13.0148 6.51783 12.7573 6.51783Z" fill="white"/>
<path d="M3.091 10.708C3.007 10.606 2.915 10.534 2.815 10.492C2.717 10.45 2.611 10.429 2.497 10.429C2.385 10.429 2.284 10.45 2.194 10.492C2.104 10.534 2.027 10.598 1.963 10.684C1.899 10.768 1.85 10.876 1.816 11.008C1.782 11.138 1.765 11.292 1.765 11.47C1.765 11.65 1.779 11.803 1.807 11.929C1.837 12.053 1.879 12.155 1.933 12.235C1.987 12.313 2.053 12.37 2.131 12.406C2.209 12.44 2.296 12.457 2.392 12.457C2.546 12.457 2.677 12.425 2.785 12.361C2.893 12.297 2.995 12.206 3.091 12.088V10.708ZM3.832 8.54199V13H3.379C3.281 13 3.219 12.955 3.193 12.865L3.13 12.568C3.006 12.71 2.863 12.825 2.701 12.913C2.541 13.001 2.354 13.045 2.14 13.045C1.972 13.045 1.818 13.01 1.678 12.94C1.538 12.87 1.417 12.769 1.315 12.637C1.215 12.503 1.137 12.338 1.081 12.142C1.027 11.946 1 11.722 1 11.47C1 11.242 1.031 11.03 1.093 10.834C1.155 10.638 1.244 10.468 1.36 10.324C1.476 10.18 1.615 10.068 1.777 9.98799C1.939 9.90599 2.121 9.86499 2.323 9.86499C2.495 9.86499 2.642 9.89199 2.764 9.94599C2.886 9.99999 2.995 10.073 3.091 10.165V8.54199H3.832Z" fill="white"/>
<path d="M5.9253 9.87399C6.1533 9.87399 6.3603 9.91099 6.5463 9.98499C6.7343 10.059 6.8943 10.164 7.0263 10.3C7.1603 10.436 7.2633 10.602 7.3353 10.798C7.4073 10.994 7.4433 11.213 7.4433 11.455C7.4433 11.699 7.4073 11.919 7.3353 12.115C7.2633 12.311 7.1603 12.478 7.0263 12.616C6.8943 12.754 6.7343 12.86 6.5463 12.934C6.3603 13.008 6.1533 13.045 5.9253 13.045C5.6953 13.045 5.4863 13.008 5.2983 12.934C5.1103 12.86 4.9493 12.754 4.8153 12.616C4.6833 12.478 4.5803 12.311 4.5063 12.115C4.4343 11.919 4.3983 11.699 4.3983 11.455C4.3983 11.213 4.4343 10.994 4.5063 10.798C4.5803 10.602 4.6833 10.436 4.8153 10.3C4.9493 10.164 5.1103 10.059 5.2983 9.98499C5.4863 9.91099 5.6953 9.87399 5.9253 9.87399ZM5.9253 12.475C6.1813 12.475 6.3703 12.389 6.4923 12.217C6.6163 12.045 6.6783 11.793 6.6783 11.461C6.6783 11.129 6.6163 10.876 6.4923 10.702C6.3703 10.528 6.1813 10.441 5.9253 10.441C5.6653 10.441 5.4723 10.529 5.3463 10.705C5.2223 10.879 5.1603 11.131 5.1603 11.461C5.1603 11.791 5.2223 12.043 5.3463 12.217C5.4723 12.389 5.6653 12.475 5.9253 12.475Z" fill="white"/>
<path d="M10.2136 10.573C10.1916 10.601 10.1696 10.623 10.1476 10.639C10.1276 10.655 10.0976 10.663 10.0576 10.663C10.0196 10.663 9.98261 10.652 9.94661 10.63C9.91061 10.606 9.86761 10.58 9.81761 10.552C9.76761 10.522 9.70761 10.496 9.63761 10.474C9.56961 10.45 9.48461 10.438 9.38261 10.438C9.25261 10.438 9.13861 10.462 9.04061 10.51C8.94261 10.556 8.86061 10.623 8.79461 10.711C8.73061 10.799 8.68261 10.906 8.65061 11.032C8.61861 11.156 8.60261 11.297 8.60261 11.455C8.60261 11.619 8.61961 11.765 8.65361 11.893C8.68961 12.021 8.74061 12.129 8.80661 12.217C8.87261 12.303 8.95261 12.369 9.04661 12.415C9.14061 12.459 9.24661 12.481 9.36461 12.481C9.48261 12.481 9.57761 12.467 9.64961 12.439C9.72361 12.409 9.78561 12.377 9.83561 12.343C9.88561 12.307 9.92861 12.275 9.96461 12.247C10.0026 12.217 10.0446 12.202 10.0906 12.202C10.1506 12.202 10.1956 12.225 10.2256 12.271L10.4386 12.541C10.3566 12.637 10.2676 12.718 10.1716 12.784C10.0756 12.848 9.97561 12.9 9.87161 12.94C9.76961 12.978 9.66361 13.005 9.55361 13.021C9.44561 13.037 9.33761 13.045 9.22961 13.045C9.03961 13.045 8.86061 13.01 8.69261 12.94C8.52461 12.868 8.37761 12.764 8.25161 12.628C8.12561 12.492 8.02561 12.326 7.95161 12.13C7.87961 11.932 7.84361 11.707 7.84361 11.455C7.84361 11.229 7.87561 11.02 7.93961 10.828C8.00561 10.634 8.10161 10.467 8.22761 10.327C8.35361 10.185 8.50961 10.074 8.69561 9.99399C8.88161 9.91399 9.09561 9.87399 9.33761 9.87399C9.56761 9.87399 9.76861 9.91099 9.94061 9.98499C10.1146 10.059 10.2706 10.165 10.4086 10.303L10.2136 10.573Z" fill="white"/>
<path d="M13.6511 13H12.9371C12.8831 13 12.8391 12.986 12.8051 12.958C12.7731 12.93 12.7461 12.898 12.7241 12.862L12.0731 11.791C12.0631 11.825 12.0511 11.857 12.0371 11.887C12.0251 11.917 12.0111 11.945 11.9951 11.971L11.4191 12.862C11.3971 12.896 11.3701 12.928 11.3381 12.958C11.3061 12.986 11.2661 13 11.2181 13H10.5551L11.6111 11.413L10.5971 9.92199H11.3111C11.3651 9.92199 11.4051 9.92999 11.4311 9.94599C11.4571 9.95999 11.4801 9.98399 11.5001 10.018L12.1451 11.044C12.1671 10.976 12.1981 10.909 12.2381 10.843L12.7571 10.033C12.8011 9.95899 12.8581 9.92199 12.9281 9.92199H13.6091L12.5981 11.38L13.6511 13Z" fill="white"/>
<path opacity="0.4" d="M10.4029 1.13947C10.1537 0.880308 9.71875 1.05864 9.71875 1.41781V3.61531C9.71875 4.53698 10.4779 5.29531 11.3996 5.29531C11.9804 5.30198 12.7871 5.30364 13.4721 5.30198C13.8229 5.30114 14.0012 4.88198 13.7579 4.62864C12.8787 3.71448 11.3046 2.07614 10.4029 1.13947Z" fill="white"/>
</svg>
