<svg width="16" height="16" viewBox="0 0 16 16" fill="none" xmlns="http://www.w3.org/2000/svg">
<path opacity="0.4" d="M12.1655 4.47217C14.0037 4.47217 15.5 6.01701 15.5 7.91574L15.5 11.69C15.5 13.5841 14.0075 15.125 12.173 15.125L3.836 15.125C1.997 15.125 0.5 13.581 0.5 11.6822L0.5 7.908C0.5 6.01392 1.99325 4.47217 3.8285 4.47217H4.5335L12.1655 4.47217Z" fill="white"/>
<path d="M8.40945 11.028L10.5912 8.80212C10.8162 8.57206 10.8162 8.20183 10.5897 7.97253C10.3632 7.744 9.99795 7.74476 9.77295 7.97406L8.5782 9.19291L8.5782 1.46157C8.5782 1.13782 8.31945 0.875 7.99995 0.875C7.6812 0.875 7.4232 1.13782 7.4232 1.46157L7.4232 9.19291L6.2277 7.97406C6.0027 7.74476 5.63745 7.744 5.41095 7.97253C5.2977 8.08756 5.2407 8.23763 5.2407 8.38847C5.2407 8.53778 5.2977 8.68785 5.40945 8.80212L7.5912 11.028C7.69995 11.1385 7.84695 11.201 7.99995 11.201C8.1537 11.201 8.3007 11.1385 8.40945 11.028Z" fill="white"/>
</svg>
