<svg width="76" height="74" viewBox="0 0 76 74" fill="none" xmlns="http://www.w3.org/2000/svg">
<path opacity="0.4" d="M61.4354 83.6237H22.5626C16.5355 83.9983 10.6165 81.9088 6.16273 77.838C2.0919 73.3801 0.00236538 67.4612 0.376982 61.4383V22.5617C0.00236538 16.5388 2.08773 10.6199 6.15857 6.16201C10.6165 2.09121 16.5355 0.00169724 22.5626 0.376311H61.4354C67.4542 0.00169724 73.369 2.08704 77.8228 6.15784C81.8895 10.6199 83.9832 16.5346 83.6252 22.5617V61.4383C83.9957 67.4612 81.9103 73.3801 77.8395 77.838C73.3815 81.9088 67.4626 83.9983 61.4354 83.6237Z" fill="#F5F6FA"/>
<path d="M63.0613 35.3232L35.758 62.7622C34.3381 64.1443 32.4719 64.9166 30.5246 64.9166H20.9907C20.4633 64.9166 19.9765 64.7134 19.6114 64.3475C19.2463 63.9817 19.084 63.4939 19.084 62.9654L19.3274 53.3313C19.368 51.4207 20.1388 49.6321 21.4776 48.2906L40.8292 28.9004C41.1538 28.5752 41.7217 28.5752 42.0463 28.9004L48.8336 35.6605C49.2798 36.1036 49.9289 36.3923 50.6186 36.3923C52.1197 36.3923 53.2962 35.1727 53.2962 33.7093C53.2962 32.9776 53.0122 32.3272 52.566 31.8394C52.4442 31.6768 45.9815 25.2418 45.9815 25.2418C45.5758 24.8353 45.5758 24.1443 45.9815 23.7378L48.6997 20.9736C51.215 18.4532 55.2719 18.4532 57.7872 20.9736L63.0613 26.2581C65.536 28.7378 65.536 32.8028 63.0613 35.3232Z" fill="#F5F6FA"/>
</svg>
