<svg width="72" height="70" viewBox="0 0 72 70" fill="none" xmlns="http://www.w3.org/2000/svg">
<path opacity="0.4" d="M71.3027 66.9719H47.5765C45.2617 66.9719 43.3789 68.8845 43.3789 71.236C43.3789 73.592 45.2617 75.5 47.5765 75.5H71.3027C73.6175 75.5 75.5003 73.592 75.5003 71.236C75.5003 68.8845 73.6175 66.9719 71.3027 66.9719Z" fill="#F5F6FA"/>
<path d="M30.9543 16.766L53.437 34.9331C53.9793 35.3676 54.0719 36.1648 53.6487 36.7202L26.9948 71.4508C25.3192 73.5963 22.8501 74.8101 20.2045 74.8549L5.654 75.0341C4.87797 75.043 4.19895 74.5055 4.02258 73.7351L0.715645 59.3574C0.142443 56.7147 0.715645 53.9825 2.39116 51.8774L29.1773 16.981C29.6094 16.4212 30.4075 16.3226 30.9543 16.766Z" fill="#F5F6FA"/>
<path opacity="0.4" d="M63.5024 24.106L59.1681 29.5167C58.7316 30.0676 57.9467 30.1572 57.4044 29.7183C52.1353 25.4542 38.643 14.5119 34.8996 11.4795C34.3528 11.0316 34.2779 10.2344 34.7188 9.67896L38.8988 4.48774C42.6907 -0.394431 49.3046 -0.842336 54.6398 3.41277L60.7686 8.29493C63.2819 10.2657 64.9574 12.8636 65.5306 15.5958C66.192 18.6012 65.4865 21.5529 63.5024 24.106Z" fill="#F5F6FA"/>
</svg>
