<svg width="14" height="14" viewBox="0 0 14 14" xmlns="http://www.w3.org/2000/svg">
<path opacity="0.4" d="M12.9941 12.215H8.72334C8.30667 12.215 7.96777 12.5592 7.96777 12.9825C7.96777 13.4066 8.30667 13.75 8.72334 13.75H12.9941C13.4107 13.75 13.7496 13.4066 13.7496 12.9825C13.7496 12.5592 13.4107 12.215 12.9941 12.215Z"/>
<path d="M5.73177 3.17795L9.77866 6.44802C9.87628 6.52622 9.89295 6.66973 9.81676 6.7697L5.01906 13.0212C4.71746 13.4074 4.27301 13.6259 3.79681 13.6339L1.17772 13.6662C1.03804 13.6678 0.915811 13.5711 0.884064 13.4324L0.288816 10.8444C0.18564 10.3687 0.288816 9.87691 0.590409 9.49798L5.41192 3.21665C5.4897 3.11587 5.63335 3.09813 5.73177 3.17795Z" />
<path opacity="0.4" d="M11.59 4.49908L10.8098 5.473C10.7312 5.57217 10.59 5.58829 10.4923 5.50928C9.54391 4.74175 7.1153 2.77213 6.44148 2.22632C6.34306 2.14569 6.32957 2.00219 6.40893 1.90221L7.16133 0.967793C7.84388 0.0890025 9.03438 0.00837956 9.99471 0.774298L11.0979 1.65309C11.5503 2.00783 11.8519 2.47544 11.9551 2.96724C12.0741 3.50822 11.9471 4.03953 11.59 4.49908Z" />
</svg>
