<svg width="18" height="14" viewBox="0 0 18 14" xmlns="http://www.w3.org/2000/svg">
<path fill-rule="evenodd" clip-rule="evenodd" d="M13.7808 2.03836C15.2036 3.13654 16.415 4.74543 17.2849 6.75755C17.3499 6.91028 17.3499 7.08887 17.2849 7.23432C15.545 11.2586 12.4475 13.6666 9.00033 13.6666H8.9922C5.55317 13.6666 2.45561 11.2586 0.715773 7.23432C0.650732 7.08887 0.650732 6.91028 0.715773 6.75755C2.45561 2.7325 5.55317 0.333313 8.9922 0.333313H9.00033C10.7239 0.333313 12.358 0.931293 13.7808 2.03836ZM5.7483 6.99998C5.7483 8.77776 7.20358 10.2242 9.00033 10.2242C10.7889 10.2242 12.2442 8.77776 12.2442 6.99998C12.2442 5.21412 10.7889 3.76766 9.00033 3.76766C7.20358 3.76766 5.7483 5.21412 5.7483 6.99998Z"/>
</svg>
