<svg width="20" height="20" viewBox="0 0 20 20" xmlns="http://www.w3.org/2000/svg">
<path fill-rule="evenodd" clip-rule="evenodd" d="M12.7023 3.94801C12.7023 5.79884 14.2049 7.29923 16.0584 7.29923C16.2625 7.29822 16.4661 7.27863 16.6666 7.24069V13.8846C16.6666 16.6797 15.0179 18.3334 12.2187 18.3334H6.12193C3.31538 18.3334 1.66663 16.6797 1.66663 13.8846V7.79679C1.66663 5.00167 3.31538 3.33337 6.12193 3.33337H12.7609C12.7215 3.53588 12.7019 3.74172 12.7023 3.94801ZM10.9583 12.4139L13.3398 9.34069V9.32606C13.5437 9.05209 13.4917 8.66578 13.2226 8.45532C13.0923 8.35478 12.9268 8.31125 12.7638 8.33469C12.6009 8.35814 12.4544 8.44654 12.3579 8.57971L10.3501 11.1626L8.06379 9.36264C7.93327 9.26095 7.76722 9.21605 7.60314 9.23808C7.43906 9.26011 7.29078 9.34721 7.19179 9.47971L4.72965 12.6553C4.6431 12.7632 4.59651 12.8976 4.59775 13.0358C4.58346 13.3152 4.75986 13.5689 5.02694 13.6532C5.29403 13.7375 5.58444 13.6311 5.73356 13.3944L7.79267 10.7309L10.0789 12.5236C10.209 12.6285 10.3761 12.676 10.542 12.6553C10.7078 12.6346 10.8581 12.5474 10.9583 12.4139Z"/>
<ellipse opacity="0.4" cx="16.25" cy="3.75002" rx="2.08333" ry="2.08333"/>
</svg>
