<svg width="12" height="12" viewBox="0 0 12 12" xmlns="http://www.w3.org/2000/svg">
<path d="M6 0C4.91346 0 3.90385 0.274038 2.97115 0.822115C2.06731 1.35096 1.35096 2.06731 0.822115 2.97115C0.274038 3.90385 0 4.91346 0 6C0 7.08654 0.274038 8.09615 0.822115 9.02885C1.35096 9.93269 2.06731 10.649 2.97115 11.1779C3.90385 11.726 4.91346 12 6 12C7.08654 12 8.09615 11.726 9.02885 11.1779C9.93269 10.649 10.649 9.93269 11.1779 9.02885C11.726 8.09615 12 7.08654 12 6C12 4.91346 11.726 3.90385 11.1779 2.97115C10.649 2.06731 9.93269 1.35096 9.02885 0.822115C8.09615 0.274038 7.08654 0 6 0ZM6 0.923077C6.92308 0.923077 7.77885 1.15385 8.56731 1.61538C9.32692 2.06731 9.93269 2.67308 10.3846 3.43269C10.8462 4.22115 11.0769 5.07692 11.0769 6C11.0769 6.92308 10.8462 7.77885 10.3846 8.56731C9.93269 9.32692 9.32692 9.93269 8.56731 10.3846C7.77885 10.8462 6.92308 11.0769 6 11.0769C5.07692 11.0769 4.22115 10.8462 3.43269 10.3846C2.67308 9.93269 2.06731 9.32692 1.61538 8.56731C1.15385 7.77885 0.923077 6.92308 0.923077 6C0.923077 5.07692 1.15385 4.22115 1.61538 3.43269C2.06731 2.67308 2.67308 2.06731 3.43269 1.61538C4.22115 1.15385 5.07692 0.923077 6 0.923077Z" />
<path d="M6 5.34731L7.63178 3.71552L8.2845 4.36824L6.65271 6.00002L8.2845 7.63181L7.63178 8.28452L6 6.65274L4.36822 8.28452L3.7155 7.63181L5.34729 6.00002L3.7155 4.36824L4.36822 3.71552L6 5.34731Z" />
</svg>
