<svg width="76" height="74" viewBox="0 0 76 74" fill="none" xmlns="http://www.w3.org/2000/svg">
<path opacity="0.4" d="M47.4379 16.5101V17.2728C45.3934 17.2326 43.3489 17.2326 41.3044 17.2326V16.5502C41.3044 13.7805 38.9737 11.5326 36.1932 11.5326H32.1451C27.5246 11.5326 23.7627 7.83966 23.7627 3.34388C23.7627 1.6981 25.1529 0.333313 26.8294 0.333313C28.5468 0.333313 29.8962 1.6981 29.8962 3.34388C29.8962 4.54811 30.9184 5.51149 32.1451 5.51149H36.1932C42.3675 5.55163 47.397 10.489 47.4379 16.5101Z" fill="#F5F6FA"/>
<path fill-rule="evenodd" clip-rule="evenodd" d="M55.183 17.3445C56.4959 17.3625 57.8119 17.3805 59.1325 17.394C73.3212 17.394 83.6664 27.5095 83.6664 41.4786V59.4216C83.6664 73.3906 73.3212 83.5061 59.1325 83.5061C53.4488 83.6265 47.7651 83.6667 42.0406 83.6667C36.316 83.6667 30.5505 83.6265 24.8669 83.5061C10.6781 83.5061 0.333008 73.3906 0.333008 59.4216V41.4786C0.333008 27.5095 10.6781 17.394 24.9078 17.394C30.2643 17.3137 35.7435 17.2335 41.3046 17.2335C43.349 17.2335 45.3935 17.2335 47.438 17.2736C50.0157 17.2736 52.5934 17.309 55.183 17.3445ZM37.2156 53.4406H32.9222V57.6955C32.9222 59.3413 31.5319 60.7061 29.8554 60.7061C28.1381 60.7061 26.7887 59.3413 26.7887 57.6955V53.4406H22.4544C20.7779 53.4406 19.3877 52.116 19.3877 50.43C19.3877 48.7843 20.7779 47.4195 22.4544 47.4195H26.7887V43.2047C26.7887 41.5589 28.1381 40.1941 29.8554 40.1941C31.5319 40.1941 32.9222 41.5589 32.9222 43.2047V47.4195H37.2156C38.8921 47.4195 40.2823 48.7843 40.2823 50.43C40.2823 52.116 38.8921 53.4406 37.2156 53.4406ZM54.5937 46.6567H55.0026C56.6791 46.6567 58.0694 45.3321 58.0694 43.6462C58.0694 42.0004 56.6791 40.6356 55.0026 40.6356H54.5937C52.8764 40.6356 51.527 42.0004 51.527 43.6462C51.527 45.3321 52.8764 46.6567 54.5937 46.6567ZM61.5858 60.4652H61.9947C63.6712 60.4652 65.0615 59.1405 65.0615 57.4546C65.0615 55.8088 63.6712 54.4441 61.9947 54.4441H61.5858C59.8685 54.4441 58.5191 55.8088 58.5191 57.4546C58.5191 59.1405 59.8685 60.4652 61.5858 60.4652Z" fill="#F5F6FA"/>
</svg>
