<svg width="14" height="14" viewBox="0 0 14 14" fill="none" xmlns="http://www.w3.org/2000/svg">
<path opacity="0.4" d="M7.87006 2.9216V3.04363C7.54294 3.0372 7.21582 3.0372 6.8887 3.0372V2.92802C6.8887 2.48487 6.51579 2.1252 6.07091 2.1252H5.42322C4.68393 2.1252 4.08203 1.53433 4.08203 0.815004C4.08203 0.55168 4.30447 0.333313 4.57271 0.333313C4.84749 0.333313 5.06339 0.55168 5.06339 0.815004C5.06339 1.00768 5.22694 1.16182 5.42322 1.16182H6.07091C7.05881 1.16824 7.86352 1.95822 7.87006 2.9216Z" fill="white"/>
<path fill-rule="evenodd" clip-rule="evenodd" d="M9.10901 3.05511C9.31907 3.058 9.52963 3.06088 9.74092 3.06304C12.0111 3.06304 13.6663 4.68153 13.6663 6.91657V9.78745C13.6663 12.0225 12.0111 13.641 9.74092 13.641C8.83154 13.6602 7.92215 13.6667 7.00622 13.6667C6.09029 13.6667 5.16781 13.6602 4.25842 13.641C1.98823 13.641 0.333008 12.0225 0.333008 9.78745V6.91657C0.333008 4.68153 1.98823 3.06304 4.26497 3.06304C5.12202 3.0502 5.99869 3.03735 6.88845 3.03735C7.21557 3.03735 7.54269 3.03735 7.86981 3.04378C8.28224 3.04378 8.69467 3.04943 9.10901 3.05511ZM6.23422 8.83048H5.54727V9.51127C5.54727 9.7746 5.32483 9.99297 5.05659 9.99297C4.78181 9.99297 4.56591 9.7746 4.56591 9.51127V8.83048H3.87242C3.60419 8.83048 3.38175 8.61854 3.38175 8.34879C3.38175 8.08547 3.60419 7.8671 3.87242 7.8671H4.56591V7.19274C4.56591 6.92941 4.78181 6.71104 5.05659 6.71104C5.32483 6.71104 5.54727 6.92941 5.54727 7.19274V7.8671H6.23422C6.50245 7.8671 6.72489 8.08547 6.72489 8.34879C6.72489 8.61854 6.50245 8.83048 6.23422 8.83048ZM9.01472 7.74508H9.08014C9.34838 7.74508 9.57082 7.53314 9.57082 7.26339C9.57082 7.00006 9.34838 6.7817 9.08014 6.7817H9.01472C8.73994 6.7817 8.52404 7.00006 8.52404 7.26339C8.52404 7.53314 8.73994 7.74508 9.01472 7.74508ZM10.1335 9.95444H10.1989C10.4671 9.95444 10.6896 9.74249 10.6896 9.47275C10.6896 9.20942 10.4671 8.99106 10.1989 8.99106H10.1335C9.85869 8.99106 9.64279 9.20942 9.64279 9.47275C9.64279 9.74249 9.85869 9.95444 10.1335 9.95444Z" fill="white"/>
</svg>
