<svg width="32" height="32" viewBox="0 0 32 32" fill="none" xmlns="http://www.w3.org/2000/svg">
<rect width="32" height="32" rx="8" fill="#F4BE5E"/>
<path d="M22.2856 9.71885C21.9523 9.37818 21.4589 9.25218 20.9989 9.38551L10.2723 12.4848C9.78693 12.6195 9.44293 13.0042 9.35026 13.4922C9.2556 13.9895 9.58626 14.6215 10.0183 14.8855L13.3723 16.9335C13.7163 17.1442 14.1603 17.0915 14.4449 16.8062L18.2856 12.9655C18.4789 12.7648 18.7989 12.7648 18.9923 12.9655C19.1856 13.1582 19.1856 13.4722 18.9923 13.6722L15.1449 17.5128C14.8596 17.7982 14.8063 18.2408 15.0163 18.5855L17.0656 21.9522C17.3056 22.3515 17.7189 22.5788 18.1723 22.5788C18.2256 22.5788 18.2856 22.5788 18.3389 22.5715C18.8589 22.5055 19.2723 22.1515 19.4256 21.6515L22.6056 11.0055C22.7456 10.5522 22.6189 10.0588 22.2856 9.71885Z" fill="white"/>
<path opacity="0.4" fill-rule="evenodd" clip-rule="evenodd" d="M10.0076 19.2052C9.87965 19.2052 9.75165 19.1565 9.65431 19.0585C9.45898 18.8632 9.45898 18.5472 9.65431 18.3518L10.5643 17.4412C10.7596 17.2465 11.0763 17.2465 11.2716 17.4412C11.4663 17.6365 11.4663 17.9532 11.2716 18.1485L10.361 19.0585C10.2636 19.1565 10.1356 19.2052 10.0076 19.2052ZM12.5151 20.0001C12.3871 20.0001 12.2591 19.9514 12.1618 19.8534C11.9664 19.6581 11.9664 19.3421 12.1618 19.1468L13.0718 18.2361C13.2671 18.0414 13.5838 18.0414 13.7791 18.2361C13.9738 18.4314 13.9738 18.7481 13.7791 18.9434L12.8684 19.8534C12.7711 19.9514 12.6431 20.0001 12.5151 20.0001ZM12.6842 22.3788C12.7816 22.4768 12.9096 22.5254 13.0376 22.5254C13.1656 22.5254 13.2936 22.4768 13.3909 22.3788L14.3016 21.4688C14.4962 21.2734 14.4962 20.9568 14.3016 20.7614C14.1062 20.5668 13.7896 20.5668 13.5942 20.7614L12.6842 21.6721C12.4889 21.8674 12.4889 22.1834 12.6842 22.3788Z" fill="white"/>
</svg>
