<svg width="28" height="28" viewBox="0 0 28 28" fill="none" xmlns="http://www.w3.org/2000/svg">
<circle cx="14" cy="14" r="14" fill="#E4EAF5"/>
<path d="M9.87723 10.018H11.8032C11.8032 8.758 12.6132 8.038 13.8912 8.038C15.1872 8.038 15.9612 8.812 15.9612 10.072C15.9612 11.962 14.3952 12.322 12.3612 12.322H11.7672L11.8572 15.148H13.6392L13.7112 13.726C16.1232 13.726 17.9232 12.61 17.9232 10.072C17.9232 7.732 16.2852 6.31 13.8732 6.31C11.4252 6.31 9.85923 7.84 9.87723 10.018ZM14.0172 17.812C14.0172 17.074 13.4412 16.498 12.7212 16.498C11.9832 16.498 11.4072 17.074 11.4072 17.812C11.4072 18.55 11.9832 19.126 12.7212 19.126C13.4412 19.126 14.0172 18.55 14.0172 17.812Z" fill="#294475"/>
</svg>
