<svg width="32" height="32" viewBox="0 0 32 32" fill="none" xmlns="http://www.w3.org/2000/svg">
<rect width="32" height="32" rx="8" fill="#6DD697"/>
<path opacity="0.4" d="M18.794 9.33331H13.2067C11.18 9.33331 10 10.52 10 12.5533V19.44C10 21.5066 11.18 22.6666 13.2067 22.6666H18.794C20.8533 22.6666 22 21.5066 22 19.44V12.5533C22 10.52 20.8533 9.33331 18.794 9.33331Z" fill="white"/>
<path fill-rule="evenodd" clip-rule="evenodd" d="M13.3866 12.4333V12.44C13.0993 12.44 12.8666 12.6733 12.8666 12.96C12.8666 13.2466 13.0993 13.48 13.3866 13.48H15.3793C15.6666 13.48 15.9 13.2466 15.9 12.9526C15.9 12.6666 15.6666 12.4333 15.3793 12.4333H13.3866ZM18.6133 16.4933H13.3866C13.0993 16.4933 12.8666 16.26 12.8666 15.9733C12.8666 15.6866 13.0993 15.4526 13.3866 15.4526H18.6133C18.9 15.4526 19.1333 15.6866 19.1333 15.9733C19.1333 16.26 18.9 16.4933 18.6133 16.4933ZM18.6133 19.54H13.3866C13.1866 19.5666 12.9933 19.4666 12.8866 19.3C12.78 19.1266 12.78 18.9066 12.8866 18.74C12.9933 18.5666 13.1866 18.4733 13.3866 18.4933H18.6133C18.8793 18.52 19.08 18.7466 19.08 19.02C19.08 19.286 18.8793 19.5133 18.6133 19.54Z" fill="white"/>
</svg>
