<svg width="18" height="18" viewBox="0 0 18 18" fill="none" xmlns="http://www.w3.org/2000/svg">
<rect width="18" height="18" rx="4" fill="#E77B7B"/>
<path opacity="0.4" d="M8.20202 10.6492H5.46222C5.11546 10.6492 4.83398 10.9257 4.83398 11.2664C4.83398 11.6066 5.11546 11.8836 5.46222 11.8836H8.20202C8.54878 11.8836 8.83026 11.6066 8.83026 11.2664C8.83026 10.9257 8.54878 10.6492 8.20202 10.6492Z" fill="white"/>
<path opacity="0.4" d="M13.1677 6.65778C13.1677 6.31756 12.8862 6.04102 12.5399 6.04102H9.80011C9.45335 6.04102 9.17188 6.31756 9.17188 6.65778C9.17188 6.99846 9.45335 7.275 9.80011 7.275H12.5399C12.8862 7.275 13.1677 6.99846 13.1677 6.65778Z" fill="white"/>
<path d="M7.69971 6.65773C7.69971 7.43551 7.05851 8.06592 6.26685 8.06592C5.47565 8.06592 4.83398 7.43551 4.83398 6.65773C4.83398 5.88041 5.47565 5.25 6.26685 5.25C7.05851 5.25 7.69971 5.88041 7.69971 6.65773Z" fill="white"/>
<path d="M13.1665 11.2496C13.1665 12.0269 12.5253 12.6574 11.7336 12.6574C10.9424 12.6574 10.3008 12.0269 10.3008 11.2496C10.3008 10.4718 10.9424 9.84143 11.7336 9.84143C12.5253 9.84143 13.1665 10.4718 13.1665 11.2496Z" fill="white"/>
</svg>
