<svg width="32" height="32" viewBox="0 0 32 32" fill="none" xmlns="http://www.w3.org/2000/svg">
<rect width="32" height="32" rx="8" fill="#F4795E"/>
<path fill-rule="evenodd" clip-rule="evenodd" d="M10.0578 18.8766L10.5704 14.7468C10.8827 13.2732 11.7665 12.6667 12.609 12.6667H19.3789C20.2332 12.6667 21.1464 13.2307 21.4116 14.7468L21.9301 18.8766C22.3543 21.9087 20.7929 22.6667 18.7543 22.6667H13.2277C11.195 22.6667 9.68074 21.5691 10.0578 18.8766ZM17.9353 16.0991C18.2607 16.0991 18.5245 15.8276 18.5245 15.4927C18.5245 15.1578 18.2607 14.8863 17.9353 14.8863C17.6099 14.8863 17.3461 15.1578 17.3461 15.4927C17.3461 15.8276 17.6099 16.0991 17.9353 16.0991ZM14.6653 15.4927C14.6653 15.8276 14.4015 16.0991 14.0761 16.0991C13.7507 16.0991 13.4869 15.8276 13.4869 15.4927C13.4869 15.1578 13.7507 14.8863 14.0761 14.8863C14.4015 14.8863 14.6653 15.1578 14.6653 15.4927Z" fill="white"/>
<path opacity="0.4" d="M12.6847 12.5163C12.6826 12.568 12.6926 12.6195 12.7138 12.6667H13.6718C13.6904 12.6187 13.7002 12.5677 13.7009 12.5163C13.7009 11.2379 14.7407 10.2016 16.0235 10.2016C17.3062 10.2016 18.3461 11.2379 18.3461 12.5163C18.3373 12.566 18.3373 12.6169 18.3461 12.6667H19.3274C19.3362 12.6169 19.3362 12.566 19.3274 12.5163C19.2528 10.7373 17.784 9.33337 15.9974 9.33337C14.2107 9.33337 12.7419 10.7373 12.6673 12.5163H12.6847Z" fill="white"/>
</svg>
