<svg width="32" height="32" viewBox="0 0 32 32" fill="none" xmlns="http://www.w3.org/2000/svg">
<rect opacity="0.5" width="32" height="32" rx="6" fill="#F4BE5E"/>
<path d="M23.8563 8.14858C23.4396 7.72275 22.8229 7.56525 22.2479 7.73191L8.8396 11.6061C8.23293 11.7744 7.80293 12.2552 7.6871 12.8652C7.56876 13.4869 7.9821 14.2769 8.5221 14.6069L12.7146 17.1669C13.1446 17.4302 13.6996 17.3644 14.0554 17.0077L18.8563 12.2069C19.0979 11.9561 19.4979 11.9561 19.7396 12.2069C19.9813 12.4477 19.9813 12.8402 19.7396 13.0902L14.9304 17.8911C14.5738 18.2477 14.5071 18.8011 14.7696 19.2319L17.3313 23.4402C17.6313 23.9394 18.1479 24.2236 18.7146 24.2236C18.7813 24.2236 18.8563 24.2236 18.9229 24.2144C19.5729 24.1319 20.0896 23.6894 20.2813 23.0644L24.2563 9.75692C24.4313 9.19025 24.2729 8.57358 23.8563 8.14858Z" fill="white"/>
<path opacity="0.4" fill-rule="evenodd" clip-rule="evenodd" d="M8.50882 20.0065C8.34882 20.0065 8.18882 19.9457 8.06716 19.8232C7.82299 19.579 7.82299 19.184 8.06716 18.9398L9.20466 17.8015C9.44883 17.5582 9.84466 17.5582 10.0888 17.8015C10.3322 18.0457 10.3322 18.4415 10.0888 18.6857L8.95049 19.8232C8.82882 19.9457 8.66882 20.0065 8.50882 20.0065ZM11.6432 21.0002C11.4832 21.0002 11.3232 20.9393 11.2015 20.8168C10.9573 20.5727 10.9573 20.1777 11.2015 19.9335L12.339 18.7952C12.5832 18.5518 12.979 18.5518 13.2232 18.7952C13.4665 19.0393 13.4665 19.4352 13.2232 19.6793L12.0848 20.8168C11.9632 20.9393 11.8032 21.0002 11.6432 21.0002ZM11.8546 23.9735C11.9762 24.096 12.1362 24.1568 12.2962 24.1568C12.4562 24.1568 12.6162 24.096 12.7379 23.9735L13.8762 22.836C14.1196 22.5918 14.1196 22.196 13.8762 21.9518C13.6321 21.7085 13.2362 21.7085 12.9921 21.9518L11.8546 23.0902C11.6104 23.3343 11.6104 23.7293 11.8546 23.9735Z" fill="white"/>
</svg>
