<svg xmlns="http://www.w3.org/2000/svg" xmlns:xlink="http://www.w3.org/1999/xlink" width="138" height="113" viewBox="0 0 138 113">
  <defs>
    <filter id="Rectangle_88" x="0" y="0" width="138" height="113" filterUnits="userSpaceOnUse">
      <feOffset dy="6" input="SourceAlpha"/>
      <feGaussianBlur stdDeviation="13" result="blur"/>
      <feFlood flood-color="#1f0" flood-opacity="0.161"/>
      <feComposite operator="in" in2="blur"/>
      <feComposite in="SourceGraphic"/>
    </filter>
  </defs>
  <g id="Group_428" data-name="Group 428" transform="translate(-22690 -1653)">
    <g transform="matrix(1, 0, 0, 1, 22690, 1653)" filter="url(#Rectangle_88)">
      <rect id="Rectangle_88-2" data-name="Rectangle 88" width="60" height="35" rx="5" transform="translate(39 33)" fill="rgba(208,219,47,0.52)"/>
    </g>
    <path id="pen" d="M14.878.647a2.315,2.315,0,0,0-3.271,0l-.819.823L2.073,10.182l-.019.019s0,.009-.009.009-.023.028-.032.042,0,0,0,.009-.014.023-.023.037,0,.009-.009.014-.009.023-.014.037,0,0,0,.009L.023,16.173a.455.455,0,0,0,.111.472.465.465,0,0,0,.328.134.546.546,0,0,0,.148-.023l5.811-1.938s0,0,.009,0a.168.168,0,0,0,.042-.019.016.016,0,0,0,.009,0l.046-.028c.014-.009.028-.023.042-.032s.009,0,.009-.009.014-.009.019-.019l9.535-9.535a2.315,2.315,0,0,0,0-3.271ZM6.274,13.73l-3.22-3.22,8.059-8.059,3.22,3.22ZM2.6,11.366l2.813,2.813L1.189,15.585ZM15.48,4.519l-.49.5-3.22-3.22.5-.495a1.388,1.388,0,0,1,1.961,0l1.258,1.258a1.392,1.392,0,0,1,0,1.962Zm0,0" transform="translate(22751.002 1695.029)"/>
  </g>
</svg>
