<svg width="32" height="32" viewBox="0 0 32 32" fill="none" xmlns="http://www.w3.org/2000/svg">
<rect width="32" height="32" rx="8" fill="#F4D35E"/>
<path d="M14.2335 17.9052C11.591 17.9052 9.33398 18.3134 9.33398 19.9449C9.33398 21.5777 11.5767 22 14.2335 22C16.8761 22 19.1331 21.5918 19.1331 19.9602C19.1331 18.3274 16.8904 17.9052 14.2335 17.9052Z" fill="white"/>
<path opacity="0.4" d="M14.2342 16.3499C16.0339 16.3499 17.4762 14.9374 17.4762 13.1749C17.4762 11.4124 16.0339 10 14.2342 10C12.4351 10 10.9922 11.4124 10.9922 13.1749C10.9922 14.9374 12.4351 16.3499 14.2342 16.3499Z" fill="white"/>
<path opacity="0.4" d="M18.7825 13.2325C18.7825 14.13 18.5072 14.9675 18.0245 15.6632C17.9743 15.7347 18.0187 15.8312 18.1061 15.8465C18.2274 15.8663 18.352 15.8785 18.4792 15.881C19.7447 15.9136 20.8804 15.1157 21.1941 13.9141C21.6592 12.1312 20.2946 10.5303 18.5562 10.5303C18.3676 10.5303 18.1869 10.5494 18.0108 10.5846C17.9867 10.5897 17.9606 10.6012 17.9475 10.6216C17.9306 10.6478 17.943 10.6817 17.9599 10.704C18.4824 11.4214 18.7825 12.2947 18.7825 13.2325Z" fill="white"/>
<path d="M22.5203 18.1129C22.2887 17.6293 21.7297 17.2977 20.879 17.1348C20.4779 17.039 19.3911 16.9029 18.3807 16.9221C18.3657 16.924 18.3572 16.9342 18.3559 16.9406C18.3539 16.9509 18.3585 16.9662 18.3781 16.9771C18.8451 17.2032 20.6501 18.187 20.4231 20.2619C20.4133 20.3526 20.487 20.4292 20.579 20.4165C21.0232 20.3545 22.1661 20.1137 22.5203 19.365C22.7166 18.9689 22.7166 18.5089 22.5203 18.1129Z" fill="white"/>
</svg>
