<svg width="32" height="32" viewBox="0 0 32 32" fill="none" xmlns="http://www.w3.org/2000/svg">
<rect width="32" height="32" rx="8" fill="#6DC9D6"/>
<path d="M6.923 11.878H8.435C8.59833 11.878 8.73133 11.9177 8.834 11.997C8.93667 12.0763 9.01367 12.179 9.065 12.305L11.452 18.479C11.5313 18.6797 11.606 18.9013 11.676 19.144C11.7507 19.382 11.8207 19.6317 11.886 19.893C11.9373 19.6317 11.9957 19.382 12.061 19.144C12.131 18.9013 12.2057 18.6797 12.285 18.479L14.658 12.305C14.6953 12.1977 14.7677 12.0997 14.875 12.011C14.987 11.9223 15.1223 11.878 15.281 11.878H16.8L12.712 22H11.011L6.923 11.878ZM24.2317 11.878V13.376H19.7377V16.372H23.5317V17.877H19.7377V22H17.8477V11.878H24.2317Z" fill="white"/>
</svg>
