<svg width="32" height="32" viewBox="0 0 32 32" fill="none" xmlns="http://www.w3.org/2000/svg">
<rect width="32" height="32" rx="8" fill="#735EF4"/>
<path opacity="0.4" d="M21.3282 20.6355H17.532C17.1616 20.6355 16.8604 20.9415 16.8604 21.3177C16.8604 21.6947 17.1616 22 17.532 22H21.3282C21.6985 22 21.9998 21.6947 21.9998 21.3177C21.9998 20.9415 21.6985 20.6355 21.3282 20.6355Z" fill="white"/>
<path d="M14.8727 12.6026L18.4699 15.5093C18.5567 15.5788 18.5715 15.7064 18.5038 15.7952L14.2392 21.3521C13.9711 21.6954 13.576 21.8896 13.1527 21.8968L10.8246 21.9254C10.7005 21.9269 10.5918 21.8409 10.5636 21.7176L10.0345 19.4172C9.94279 18.9944 10.0345 18.5572 10.3026 18.2204L14.5884 12.637C14.6575 12.5474 14.7852 12.5316 14.8727 12.6026Z" fill="white"/>
<path opacity="0.4" d="M20.0808 13.777L19.3874 14.6427C19.3175 14.7308 19.1919 14.7452 19.1052 14.6749C18.2621 13.9927 16.1034 12.2419 15.5044 11.7567C15.4169 11.6851 15.4049 11.5575 15.4755 11.4686L16.1443 10.638C16.751 9.85689 17.8092 9.78523 18.6628 10.466L19.6435 11.2472C20.0456 11.5625 20.3137 11.9782 20.4054 12.4153C20.5112 12.8962 20.3983 13.3685 20.0808 13.777Z" fill="white"/>
</svg>
