<svg width="32" height="32" viewBox="0 0 32 32" fill="none" xmlns="http://www.w3.org/2000/svg">
<rect opacity="0.5" width="32" height="32" rx="6" fill="#5E81F4"/>
<path opacity="0.4" d="M24.3332 19.2835C24.3332 21.6085 22.4665 23.4918 20.1415 23.5002H20.1332H11.8748C9.55817 23.5002 7.6665 21.6252 7.6665 19.3002V19.2918C7.6665 19.2918 7.6715 15.6035 7.67817 13.7485C7.679 13.4002 8.079 13.2052 8.3515 13.4218C10.3315 14.9927 13.8723 17.8568 13.9165 17.8943C14.5082 18.3685 15.2582 18.636 16.0248 18.636C16.7915 18.636 17.5415 18.3685 18.1332 17.8852C18.1773 17.856 21.639 15.0777 23.649 13.481C23.9223 13.2635 24.324 13.4585 24.3248 13.806C24.3332 15.6468 24.3332 19.2835 24.3332 19.2835Z" fill="white"/>
<path d="M23.8967 10.728C23.1751 9.36801 21.7551 8.49967 20.1917 8.49967H11.8751C10.3117 8.49967 8.89173 9.36801 8.17007 10.728C8.0084 11.0322 8.08507 11.4113 8.35423 11.6263L14.5417 16.5755C14.9751 16.9255 15.5001 17.0997 16.0251 17.0997C16.0284 17.0997 16.0309 17.0997 16.0334 17.0997C16.0359 17.0997 16.0392 17.0997 16.0417 17.0997C16.5667 17.0997 17.0917 16.9255 17.5251 16.5755L23.7126 11.6263C23.9817 11.4113 24.0584 11.0322 23.8967 10.728Z" fill="white"/>
</svg>
