<svg width="32" height="32" viewBox="0 0 32 32" fill="none" xmlns="http://www.w3.org/2000/svg">
<rect width="32" height="32" rx="8" fill="#5E81F4"/>
<path opacity="0.4" d="M16.8701 11.9216V12.0436C16.5429 12.0372 16.2158 12.0372 15.8887 12.0372V11.928C15.8887 11.4849 15.5158 11.1252 15.0709 11.1252H14.4232C13.6839 11.1252 13.082 10.5343 13.082 9.815C13.082 9.55168 13.3045 9.33331 13.5727 9.33331C13.8475 9.33331 14.0634 9.55168 14.0634 9.815C14.0634 10.0077 14.2269 10.1618 14.4232 10.1618H15.0709C16.0588 10.1682 16.8635 10.9582 16.8701 11.9216Z" fill="white"/>
<path fill-rule="evenodd" clip-rule="evenodd" d="M18.109 12.0551C18.3191 12.058 18.5296 12.0609 18.7409 12.063C21.0111 12.063 22.6663 13.6815 22.6663 15.9166V18.7874C22.6663 21.0225 21.0111 22.641 18.7409 22.641C17.8315 22.6602 16.9221 22.6667 16.0062 22.6667C15.0903 22.6667 14.1678 22.6602 13.2584 22.641C10.9882 22.641 9.33301 21.0225 9.33301 18.7874V15.9166C9.33301 13.6815 10.9882 12.063 13.265 12.063C14.122 12.0502 14.9987 12.0374 15.8885 12.0374C16.2156 12.0374 16.5427 12.0374 16.8698 12.0438C17.2822 12.0438 17.6947 12.0494 18.109 12.0551ZM15.2342 17.8305H14.5473V18.5113C14.5473 18.7746 14.3248 18.993 14.0566 18.993C13.7818 18.993 13.5659 18.7746 13.5659 18.5113V17.8305H12.8724C12.6042 17.8305 12.3817 17.6185 12.3817 17.3488C12.3817 17.0855 12.6042 16.8671 12.8724 16.8671H13.5659V16.1927C13.5659 15.9294 13.7818 15.711 14.0566 15.711C14.3248 15.711 14.5473 15.9294 14.5473 16.1927V16.8671H15.2342C15.5025 16.8671 15.7249 17.0855 15.7249 17.3488C15.7249 17.6185 15.5025 17.8305 15.2342 17.8305ZM18.0147 16.7451H18.0801C18.3484 16.7451 18.5708 16.5331 18.5708 16.2634C18.5708 16.0001 18.3484 15.7817 18.0801 15.7817H18.0147C17.7399 15.7817 17.524 16.0001 17.524 16.2634C17.524 16.5331 17.7399 16.7451 18.0147 16.7451ZM19.1335 18.9544H19.1989C19.4671 18.9544 19.6896 18.7425 19.6896 18.4727C19.6896 18.2094 19.4671 17.9911 19.1989 17.9911H19.1335C18.8587 17.9911 18.6428 18.2094 18.6428 18.4727C18.6428 18.7425 18.8587 18.9544 19.1335 18.9544Z" fill="white"/>
</svg>
