<svg width="32" height="32" viewBox="0 0 32 32" fill="none" xmlns="http://www.w3.org/2000/svg">
<rect opacity="0.5" width="32" height="32" rx="6" fill="#6DD697"/>
<path opacity="0.4" d="M16.0166 7.66667C11.175 7.66667 7.66663 11.6167 7.66663 16C7.66663 17.4 8.07496 18.8417 8.79163 20.1583C8.92496 20.375 8.94163 20.65 8.84996 20.9083L8.29163 22.775C8.16663 23.225 8.54996 23.5583 8.97496 23.425L10.6583 22.925C11.1166 22.775 11.475 22.9667 11.9008 23.225C13.1175 23.9417 14.6333 24.3083 16 24.3083C20.1333 24.3083 24.3333 21.1167 24.3333 15.975C24.3333 11.5417 20.75 7.66667 16.0166 7.66667Z" fill="white"/>
<path fill-rule="evenodd" clip-rule="evenodd" d="M15.9837 17.0751C15.3921 17.0667 14.9171 16.5917 14.9171 16.0001C14.9171 15.4167 15.4004 14.9334 15.9837 14.9417C16.5754 14.9417 17.0504 15.4167 17.0504 16.0084C17.0504 16.5917 16.5754 17.0751 15.9837 17.0751ZM12.1417 17.0751C11.5584 17.0751 11.0751 16.5918 11.0751 16.0084C11.0751 15.4168 11.5501 14.9418 12.1417 14.9418C12.7334 14.9418 13.2084 15.4168 13.2084 16.0084C13.2084 16.5918 12.7334 17.0668 12.1417 17.0751ZM18.7586 16.0084C18.7586 16.5918 19.2336 17.0751 19.8252 17.0751C20.4169 17.0751 20.8919 16.5918 20.8919 16.0084C20.8919 15.4168 20.4169 14.9418 19.8252 14.9418C19.2336 14.9418 18.7586 15.4168 18.7586 16.0084Z" fill="white"/>
</svg>
