<svg width="32" height="32" viewBox="0 0 32 32" fill="none" xmlns="http://www.w3.org/2000/svg">
<rect width="32" height="32" rx="8" fill="#5EF4D0"/>
<path opacity="0.4" d="M19.1102 22.6598H12.8906C11.9262 22.7197 10.9792 22.3854 10.2666 21.7341C9.61525 21.0208 9.28093 20.0738 9.34086 19.1101V12.8899C9.28093 11.9262 9.61458 10.9792 10.2659 10.2659C10.9792 9.61458 11.9262 9.28025 12.8906 9.34019H19.1102C20.0732 9.28025 21.0196 9.61391 21.7322 10.2652C22.3829 10.9792 22.7179 11.9255 22.6606 12.8899V19.1101C22.7199 20.0738 22.3862 21.0208 21.7349 21.7341C21.0216 22.3854 20.0746 22.7197 19.1102 22.6598Z" fill="white"/>
<path d="M19.3703 14.9317L15.0018 19.3219C14.7746 19.5431 14.4761 19.6666 14.1645 19.6666H12.6391C12.5547 19.6666 12.4768 19.6341 12.4184 19.5756C12.3599 19.5171 12.334 19.439 12.334 19.3545L12.3729 17.813C12.3794 17.5073 12.5028 17.2211 12.717 17.0065L15.8132 13.904C15.8651 13.852 15.956 13.852 16.008 13.904L17.0939 14.9857C17.1653 15.0566 17.2692 15.1027 17.3795 15.1027C17.6197 15.1027 17.8079 14.9076 17.8079 14.6735C17.8079 14.5564 17.7625 14.4523 17.6911 14.3743C17.6716 14.3483 16.6376 13.3187 16.6376 13.3187C16.5727 13.2536 16.5727 13.1431 16.6376 13.078L17.0725 12.6358C17.4749 12.2325 18.1241 12.2325 18.5265 12.6358L19.3703 13.4813C19.7663 13.878 19.7663 14.5284 19.3703 14.9317Z" fill="white"/>
</svg>
