<svg width="32" height="32" viewBox="0 0 32 32" fill="none" xmlns="http://www.w3.org/2000/svg">
<rect width="32" height="32" rx="8" fill="#E8BB64"/>
<path opacity="0.4" d="M22.6663 18.6268C22.6663 20.4868 21.173 21.9935 19.313 22.0002H19.3063H12.6997C10.8463 22.0002 9.33301 20.5002 9.33301 18.6402V18.6335C9.33301 18.6335 9.33701 15.6828 9.34234 14.1988C9.34301 13.9202 9.66301 13.7642 9.88101 13.9375C11.465 15.1942 14.2977 17.4855 14.333 17.5155C14.8063 17.8948 15.4063 18.1088 16.0197 18.1088C16.633 18.1088 17.233 17.8948 17.7063 17.5082C17.7417 17.4848 20.511 15.2622 22.119 13.9848C22.3377 13.8108 22.659 13.9668 22.6597 14.2448C22.6663 15.7175 22.6663 18.6268 22.6663 18.6268Z" fill="white"/>
<path d="M22.3176 11.7824C21.7402 10.6944 20.6042 9.99976 19.3536 9.99976H12.7002C11.4496 9.99976 10.3136 10.6944 9.73625 11.7824C9.60691 12.0258 9.66825 12.3291 9.88358 12.5011L14.8336 16.4604C15.1802 16.7404 15.6002 16.8798 16.0202 16.8798C16.0229 16.8798 16.0249 16.8798 16.0269 16.8798C16.0289 16.8798 16.0316 16.8798 16.0336 16.8798C16.4536 16.8798 16.8736 16.7404 17.2202 16.4604L22.1702 12.5011C22.3856 12.3291 22.4469 12.0258 22.3176 11.7824Z" fill="white"/>
</svg>
