<svg width="32" height="32" viewBox="0 0 32 32" fill="none" xmlns="http://www.w3.org/2000/svg">
<rect width="32" height="32" rx="8" fill="#E77B7B"/>
<path fill-rule="evenodd" clip-rule="evenodd" d="M18.1615 11.1583C18.1615 12.639 19.3636 13.8393 20.8464 13.8393C21.0097 13.8385 21.1726 13.8228 21.333 13.7925V19.1076C21.333 21.3437 20.014 22.6666 17.7746 22.6666H12.8972C10.652 22.6666 9.33301 21.3437 9.33301 19.1076V14.2374C9.33301 12.0013 10.652 10.6666 12.8972 10.6666H18.2084C18.1769 10.8286 18.1612 10.9933 18.1615 11.1583ZM16.7663 17.931L18.6716 15.4725V15.4608C18.8347 15.2416 18.793 14.9326 18.5778 14.7642C18.4736 14.6837 18.3412 14.6489 18.2108 14.6677C18.0804 14.6864 17.9632 14.7572 17.886 14.8637L16.2798 16.93L14.4507 15.49C14.3463 15.4087 14.2135 15.3728 14.0822 15.3904C13.951 15.408 13.8323 15.4777 13.7531 15.5837L11.7834 18.1242C11.7142 18.2105 11.6769 18.318 11.6779 18.4286C11.6665 18.652 11.8076 18.855 12.0213 18.9225C12.2349 18.9899 12.4673 18.9048 12.5866 18.7154L14.2338 16.5847L16.0629 18.0188C16.1669 18.1027 16.3006 18.1407 16.4333 18.1242C16.5659 18.1076 16.6862 18.0379 16.7663 17.931Z" fill="white"/>
<ellipse opacity="0.4" cx="20.9997" cy="11" rx="1.66667" ry="1.66667" fill="white"/>
</svg>
