<svg width="20" height="20" viewBox="0 0 20 20" xmlns="http://www.w3.org/2000/svg">
<path opacity="0.4" d="M9.99269 15.5179L4.58291 18.22C4.17438 18.4418 3.66478 18.2937 3.43628 17.8869C3.36954 17.759 3.33426 17.6168 3.33337 17.4723V11.424C3.33337 12.0236 3.67148 12.3938 4.56086 12.8083L9.99269 15.5179Z"/>
<path fill-rule="evenodd" clip-rule="evenodd" d="M7.41276 1.66663H12.5579C14.8144 1.66663 16.6447 2.555 16.6667 4.82777V17.4723C16.6658 17.6145 16.6305 17.7542 16.5638 17.8795C16.4567 18.0838 16.2717 18.2355 16.0513 18.2998C15.8309 18.364 15.594 18.3352 15.3951 18.22L9.99269 15.5179L4.56086 12.8083C3.67149 12.3938 3.33337 12.0236 3.33337 11.424V4.82777C3.33337 2.555 5.16358 1.66663 7.41276 1.66663ZM6.85413 8.01852H13.1239C13.4852 8.01852 13.7781 7.72353 13.7781 7.35964C13.7781 6.99575 13.4852 6.70076 13.1239 6.70076H6.85413C6.49284 6.70076 6.19996 6.99575 6.19996 7.35964C6.19996 7.72353 6.49284 8.01852 6.85413 8.01852Z" />
</svg>
