<svg width="18" height="18" viewBox="0 0 18 18" fill="none" xmlns="http://www.w3.org/2000/svg">
<path d="M9 0C7.37019 0 5.85577 0.411058 4.45673 1.23317C3.10096 2.02644 2.02644 3.10096 1.23317 4.45673C0.411058 5.85577 0 7.37019 0 9C0 10.6298 0.411058 12.1442 1.23317 13.5433C2.02644 14.899 3.10096 15.9736 4.45673 16.7668C5.85577 17.5889 7.37019 18 9 18C10.6298 18 12.1442 17.5889 13.5433 16.7668C14.899 15.9736 15.9736 14.899 16.7668 13.5433C17.5889 12.1442 18 10.6298 18 9C18 7.37019 17.5889 5.85577 16.7668 4.45673C15.9736 3.10096 14.899 2.02644 13.5433 1.23317C12.1442 0.411058 10.6298 0 9 0ZM9 1.38462C10.3846 1.38462 11.6683 1.73077 12.851 2.42308C13.9904 3.10096 14.899 4.00962 15.5769 5.14904C16.2692 6.33173 16.6154 7.61539 16.6154 9C16.6154 10.3846 16.2692 11.6683 15.5769 12.851C14.899 13.9904 13.9904 14.899 12.851 15.5769C11.6683 16.2692 10.3846 16.6154 9 16.6154C7.61539 16.6154 6.33173 16.2692 5.14904 15.5769C4.00962 14.899 3.10096 13.9904 2.42308 12.851C1.73077 11.6683 1.38462 10.3846 1.38462 9C1.38462 7.61539 1.73077 6.33173 2.42308 5.14904C3.10096 4.00962 4.00962 3.10096 5.14904 2.42308C6.33173 1.73077 7.61539 1.38462 9 1.38462ZM8.30769 4.84615V8.30769H4.84615V9.69231H8.30769V13.1538H9.69231V9.69231H13.1538V8.30769H9.69231V4.84615H8.30769Z" fill="white"/>
</svg>
