<svg width="24" height="24" viewBox="0 0 24 24" fill="none" xmlns="http://www.w3.org/2000/svg">
<rect width="24" height="24" rx="6" fill="#6DD697"/>
<path opacity="0.4" d="M12.0125 5.75C8.38125 5.75 5.75 8.7125 5.75 12C5.75 13.05 6.05625 14.1312 6.59375 15.1187C6.69375 15.2812 6.70625 15.4875 6.6375 15.6813L6.21875 17.0812C6.125 17.4187 6.4125 17.6687 6.73125 17.5688L7.99375 17.1937C8.3375 17.0812 8.60625 17.225 8.92562 17.4187C9.83812 17.9563 10.975 18.2312 12 18.2312C15.1 18.2312 18.25 15.8375 18.25 11.9813C18.25 8.65625 15.5625 5.75 12.0125 5.75Z" fill="white"/>
<path fill-rule="evenodd" clip-rule="evenodd" d="M11.9878 12.8063C11.544 12.8001 11.1878 12.4438 11.1878 12.0001C11.1878 11.5626 11.5503 11.2001 11.9878 11.2063C12.4315 11.2063 12.7878 11.5626 12.7878 12.0063C12.7878 12.4438 12.4315 12.8063 11.9878 12.8063ZM9.10627 12.8064C8.66877 12.8064 8.30627 12.4439 8.30627 12.0064C8.30627 11.5626 8.66252 11.2064 9.10627 11.2064C9.55002 11.2064 9.90627 11.5626 9.90627 12.0064C9.90627 12.4439 9.55002 12.8001 9.10627 12.8064ZM14.0689 12.0063C14.0689 12.4438 14.4251 12.8063 14.8689 12.8063C15.3126 12.8063 15.6689 12.4438 15.6689 12.0063C15.6689 11.5626 15.3126 11.2063 14.8689 11.2063C14.4251 11.2063 14.0689 11.5626 14.0689 12.0063Z" fill="white"/>
</svg>
