<svg width="18" height="18" viewBox="0 0 18 18" fill="none" xmlns="http://www.w3.org/2000/svg">
<path opacity="0.4" d="M12.255 1.5H5.7525C3.21 1.5 1.5 3.285 1.5 5.94V12.0675C1.5 14.715 3.21 16.5 5.7525 16.5H12.255C14.7975 16.5 16.5 14.715 16.5 12.0675V5.94C16.5 3.285 14.7975 1.5 12.255 1.5Z" fill="#9B59B6"/>
<path fill-rule="evenodd" clip-rule="evenodd" d="M8.34359 6.1416C8.34359 6.5031 8.63684 6.79785 8.99609 6.79785C9.36584 6.79785 9.65984 6.5031 9.65984 6.1416C9.65984 5.7801 9.36584 5.48535 9.00359 5.48535C8.63984 5.48535 8.34359 5.7801 8.34359 6.1416ZM9.65234 8.5212C9.65234 8.1597 9.35759 7.86495 8.99609 7.86495C8.63459 7.86495 8.33984 8.1597 8.33984 8.5212V11.8362C8.33984 12.1977 8.63459 12.4925 8.99609 12.4925C9.35759 12.4925 9.65234 12.1977 9.65234 11.8362V8.5212Z" fill="#9B59B6"/>
</svg>
