<svg width="16" height="18" viewBox="0 0 16 18" xmlns="http://www.w3.org/2000/svg">
<path fill-rule="evenodd" clip-rule="evenodd" d="M4.47408 6.26154H11.5261C13.4906 6.26154 15.0834 7.81921 15.0834 9.74042V13.8545C15.0834 15.7757 13.4906 17.3333 11.5261 17.3333H4.47408C2.50955 17.3333 0.916748 15.7757 0.916748 13.8545V9.74042C0.916748 7.81921 2.50955 6.26154 4.47408 6.26154ZM7.99585 13.4412C8.41077 13.4412 8.74102 13.1183 8.74102 12.7125V10.8741C8.74102 10.4766 8.41077 10.1536 7.99585 10.1536C7.58939 10.1536 7.25915 10.4766 7.25915 10.8741V12.7125C7.25915 13.1183 7.58939 13.4412 7.99585 13.4412Z"/>
<path opacity="0.4" d="M12.6025 5.16331V6.38891C12.3061 6.3061 11.9928 6.2647 11.671 6.2647H11.1206V5.16331C11.1206 3.48225 9.72341 2.11588 8.00444 2.11588C6.28548 2.11588 4.88829 3.47397 4.87982 5.14675V6.2647H4.33788C4.00763 6.2647 3.69432 6.3061 3.39795 6.39719V5.16331C3.40642 2.67899 5.4641 0.666687 7.98751 0.666687C10.5448 0.666687 12.6025 2.67899 12.6025 5.16331Z"/>
</svg>
