<svg width="16" height="18" viewBox="0 0 16 18" fill="none" xmlns="http://www.w3.org/2000/svg">
<path fill-rule="evenodd" clip-rule="evenodd" d="M4.47384 6.26172H11.5258C13.4904 6.26172 15.0832 7.81939 15.0832 9.7406V13.8546C15.0832 15.7759 13.4904 17.3335 11.5258 17.3335H4.47384C2.5093 17.3335 0.916504 15.7759 0.916504 13.8546V9.7406C0.916504 7.81939 2.5093 6.26172 4.47384 6.26172ZM7.9956 13.4414C8.41053 13.4414 8.74077 13.1185 8.74077 12.7127V10.8743C8.74077 10.4768 8.41053 10.1538 7.9956 10.1538C7.58915 10.1538 7.2589 10.4768 7.2589 10.8743V12.7127C7.2589 13.1185 7.58915 13.4414 7.9956 13.4414Z" fill="white"/>
<path opacity="0.4" d="M12.602 5.16337V6.38897C12.3056 6.30616 11.9923 6.26476 11.6705 6.26476H11.1201V5.16337C11.1201 3.48232 9.72292 2.11594 8.00396 2.11594C6.28499 2.11594 4.8878 3.47403 4.87933 5.14681V6.26476H4.33739C4.00714 6.26476 3.69383 6.30616 3.39746 6.39726V5.16337C3.40593 2.67905 5.46361 0.666748 7.98702 0.666748C10.5443 0.666748 12.602 2.67905 12.602 5.16337Z" fill="white"/>
</svg>
