<svg id="message" xmlns="http://www.w3.org/2000/svg" width="87.001" height="87.001" viewBox="0 0 87.001 87.001">
  <g id="Group_396" data-name="Group 396" transform="translate(0 21.006)">
    <g id="Group_389" data-name="Group 389">
      <path id="Path_476" data-name="Path 476" d="M12.583,178.37h23.31a2.146,2.146,0,0,1,2.1,2.191v6.86a2.1,2.1,0,0,0,3.26,1.823l8.266-10.138a4.068,4.068,0,0,1,2.327-.736h14.7c6.949,0,12.583-5.885,12.583-13.145V136.766c0-7.26-5.634-13.145-12.583-13.145H12.583C5.634,123.621,0,129.506,0,136.766v28.459c0,7.26,5.634,13.145,12.583,13.145Z" transform="translate(0 -123.621)" fill="#b3dafe"/>
    </g>
    <g id="Group_390" data-name="Group 390" transform="translate(61.289 0)">
      <path id="Path_477" data-name="Path 477" d="M365.938,123.622h-5.252c6.949,0,12.583,5.885,12.583,13.145v28.459c0,7.26-5.634,13.145-12.583,13.145h5.252c6.949,0,12.583-5.885,12.583-13.145V136.767C378.52,129.507,372.887,123.622,365.938,123.622Z" transform="translate(-360.686 -123.622)" fill="#8ac9fe"/>
    </g>
    <g id="Group_395" data-name="Group 395" transform="translate(9.599 10.307)">
      <g id="Group_391" data-name="Group 391">
        <path id="Path_478" data-name="Path 478" d="M92.666,186.9H57.8a1.313,1.313,0,1,1,0-2.626H92.666a1.313,1.313,0,1,1,0,2.626Z" transform="translate(-56.489 -184.278)" fill="#d8ecfe"/>
      </g>
      <g id="Group_392" data-name="Group 392" transform="translate(0 10.503)">
        <path id="Path_479" data-name="Path 479" d="M105.8,248.715H57.8a1.313,1.313,0,1,1,0-2.626H105.8a1.313,1.313,0,1,1,0,2.626Z" transform="translate(-56.489 -246.089)" fill="#d8ecfe"/>
      </g>
      <g id="Group_393" data-name="Group 393" transform="translate(0 21.006)">
        <path id="Path_480" data-name="Path 480" d="M115.1,310.526H57.8a1.313,1.313,0,1,1,0-2.626h57.3a1.313,1.313,0,0,1,0,2.626Z" transform="translate(-56.489 -307.9)" fill="#d8ecfe"/>
      </g>
      <g id="Group_394" data-name="Group 394" transform="translate(0 31.509)">
        <path id="Path_481" data-name="Path 481" d="M115.1,372.337H57.8a1.313,1.313,0,1,1,0-2.626h57.3a1.313,1.313,0,0,1,0,2.626Z" transform="translate(-56.489 -369.711)" fill="#d8ecfe"/>
      </g>
    </g>
  </g>
  <g id="Group_398" data-name="Group 398" transform="translate(48.225)">
    <circle id="Ellipse_62" data-name="Ellipse 62" cx="19.388" cy="19.388" r="19.388" transform="translate(0 0)" fill="#f28a97"/>
    <path id="Path_482" data-name="Path 482" d="M385.075,0a19.539,19.539,0,0,0-2.626.178,19.389,19.389,0,0,1,0,38.421A19.388,19.388,0,1,0,385.075,0Z" transform="translate(-365.687)" fill="#ed7382"/>
    <g id="Group_397" data-name="Group 397" transform="translate(8.804 4.93)">
      <circle id="Ellipse_63" data-name="Ellipse 63" cx="4.002" cy="4.002" r="4.002" transform="translate(6.581)" fill="#fef0ae"/>
      <path id="Path_483" data-name="Path 483" d="M387.32,29.012a3.982,3.982,0,0,0-2.166.638,4,4,0,0,1,0,6.729,4,4,0,1,0,2.166-7.367Z" transform="translate(-376.737 -29.012)" fill="#fddf80"/>
      <path id="Path_484" data-name="Path 484" d="M382.616,176.03a3.935,3.935,0,1,1-7.869,0Z" transform="translate(-368.098 -151.048)" fill="#fef0ae"/>
      <path id="Path_485" data-name="Path 485" d="M387.345,176.03a3.931,3.931,0,0,1-1.83,3.324,3.934,3.934,0,0,0,6.039-3.324Z" transform="translate(-377.036 -151.048)" fill="#fddf80"/>
      <path id="Path_486" data-name="Path 486" d="M355.941,79.221H336.46a.842.842,0,0,1-.685-1.33L336.8,76.45a3.289,3.289,0,0,0,.61-1.909V68.193a8.789,8.789,0,1,1,17.577,0v6.349a3.29,3.29,0,0,0,.61,1.909l1.027,1.441A.842.842,0,0,1,355.941,79.221Z" transform="translate(-335.617 -54.24)" fill="#fddf80"/>
      <path id="Path_487" data-name="Path 487" d="M395.5,77.891l-1.027-1.441a3.29,3.29,0,0,1-.61-1.909V68.193A8.794,8.794,0,0,0,382.45,59.8a8.792,8.792,0,0,1,6.163,8.389v6.349a3.291,3.291,0,0,0,.61,1.909l1.027,1.441a.842.842,0,0,1-.685,1.33h5.251A.842.842,0,0,0,395.5,77.891Z" transform="translate(-374.492 -54.24)" fill="#f9d070"/>
    </g>
  </g>
</svg>
