<svg width="84" height="82" viewBox="0 0 84 82" fill="none" xmlns="http://www.w3.org/2000/svg">
<g opacity="0.7">
<path opacity="0.4" d="M91.6663 66.4174C91.6663 78.0424 82.333 87.4591 70.708 87.5008H70.6663H29.3747C17.7913 87.5008 8.33301 78.1258 8.33301 66.5008V66.4591C8.33301 66.4591 8.35801 48.0174 8.39134 38.7424C8.39551 37.0008 10.3955 36.0258 11.758 37.1091C21.658 44.9633 39.3622 59.2841 39.583 59.4716C42.5413 61.8424 46.2913 63.1799 50.1247 63.1799C53.958 63.1799 57.708 61.8424 60.6663 59.4258C60.8872 59.2799 78.1955 45.3883 88.2455 37.4049C89.6122 36.3174 91.6205 37.2924 91.6247 39.0299C91.6663 48.2341 91.6663 66.4174 91.6663 66.4174Z" fill="#F5F6FA"/>
<path d="M89.4837 23.64C85.8753 16.84 78.7753 12.4983 70.9587 12.4983H29.3753C21.5587 12.4983 14.4587 16.84 10.8503 23.64C10.042 25.1608 10.4253 27.0566 11.7712 28.1316L42.7087 52.8775C44.8753 54.6275 47.5003 55.4983 50.1253 55.4983C50.142 55.4983 50.1545 55.4983 50.167 55.4983C50.1795 55.4983 50.1962 55.4983 50.2087 55.4983C52.8337 55.4983 55.4587 54.6275 57.6253 52.8775L88.5628 28.1316C89.9087 27.0566 90.292 25.1608 89.4837 23.64Z" fill="#F5F6FA"/>
</g>
</svg>
