<svg width="16" height="4" viewBox="0 0 16 4" xmlns="http://www.w3.org/2000/svg">
<path fill-rule="evenodd" clip-rule="evenodd" d="M2.028 0.404785C1.14666 0.404785 0.430664 1.12078 0.430664 1.99945C0.430664 2.87945 1.14666 3.59678 2.028 3.59678C2.90933 3.59678 3.62533 2.87945 3.62533 1.99945C3.62533 1.12078 2.90933 0.404785 2.028 0.404785ZM8 0.404785C7.11866 0.404785 6.40267 1.12078 6.40267 1.99945C6.40267 2.87945 7.11866 3.59678 8 3.59678C8.88133 3.59678 9.59733 2.87945 9.59733 1.99945C9.59733 1.12078 8.88133 0.404785 8 0.404785ZM12.3753 1.99945C12.3753 1.12078 13.0913 0.404785 13.9727 0.404785C14.854 0.404785 15.57 1.12078 15.57 1.99945C15.57 2.87945 14.854 3.59678 13.9727 3.59678C13.0913 3.59678 12.3753 2.87945 12.3753 1.99945Z"/>
</svg>
