<svg width="32" height="30" viewBox="0 0 32 30" xmlns="http://www.w3.org/2000/svg">
<g opacity="0.4">
<path d="M21.787 2.53027H10.227C5.70699 2.53027 2.66699 5.49793 2.66699 9.912V20.0993C2.66699 24.5009 5.70699 27.4685 10.227 27.4685H21.787C26.307 27.4685 29.3337 24.5009 29.3337 20.0993V9.912C29.3337 5.49793 26.307 2.53027 21.787 2.53027Z" fill="white"/>
<path d="M21.787 2.53027H10.227C5.70699 2.53027 2.66699 5.49793 2.66699 9.912V20.0993C2.66699 24.5009 5.70699 27.4685 10.227 27.4685H21.787C26.307 27.4685 29.3337 24.5009 29.3337 20.0993V9.912C29.3337 5.49793 26.307 2.53027 21.787 2.53027Z" fill-opacity="0.1"/>
</g>
<path fill-rule="evenodd" clip-rule="evenodd" d="M10.0285 13.5078C9.14715 13.5078 8.43115 14.1774 8.43115 14.9991C8.43115 15.8221 9.14715 16.4929 10.0285 16.4929C10.9098 16.4929 11.6258 15.8221 11.6258 14.9991C11.6258 14.1774 10.9098 13.5078 10.0285 13.5078ZM16.0005 13.5078C15.1192 13.5078 14.4032 14.1774 14.4032 14.9991C14.4032 15.8221 15.1192 16.4929 16.0005 16.4929C16.8818 16.4929 17.5978 15.8221 17.5978 14.9991C17.5978 14.1774 16.8818 13.5078 16.0005 13.5078ZM20.3758 14.9991C20.3758 14.1774 21.0918 13.5078 21.9732 13.5078C22.8545 13.5078 23.5705 14.1774 23.5705 14.9991C23.5705 15.8221 22.8545 16.4929 21.9732 16.4929C21.0918 16.4929 20.3758 15.8221 20.3758 14.9991Z" fill="#5E81F4"/>
</svg>
