<svg width="16" height="16" viewBox="0 0 16 16" fill="none" xmlns="http://www.w3.org/2000/svg">
<path opacity="0.4" d="M14.6673 10.6268C14.6673 12.4868 13.174 13.9935 11.314 14.0002H11.3073H4.70065C2.84732 14.0002 1.33398 12.5002 1.33398 10.6402V10.6335C1.33398 10.6335 1.33798 7.68283 1.34332 6.19883C1.34398 5.92016 1.66398 5.76416 1.88198 5.9375C3.46598 7.19416 6.29865 9.4855 6.33398 9.5155C6.80732 9.89483 7.40732 10.1088 8.02065 10.1088C8.63398 10.1088 9.23398 9.89483 9.70732 9.50816C9.74265 9.48483 12.512 7.26216 14.12 5.98483C14.3387 5.81083 14.66 5.96683 14.6607 6.24483C14.6673 7.7175 14.6673 10.6268 14.6673 10.6268Z" fill="white"/>
<path d="M14.3166 3.78242C13.7393 2.69442 12.6033 1.99976 11.3526 1.99976H4.69927C3.4486 1.99976 2.3126 2.69442 1.73527 3.78242C1.60594 4.02576 1.66727 4.32909 1.8826 4.50109L6.8326 8.46042C7.17927 8.74042 7.59927 8.87976 8.01927 8.87976C8.02194 8.87976 8.02394 8.87976 8.02594 8.87976C8.02794 8.87976 8.0306 8.87976 8.03261 8.87976C8.45261 8.87976 8.8726 8.74042 9.21927 8.46042L14.1693 4.50109C14.3846 4.32909 14.4459 4.02576 14.3166 3.78242Z" fill="white"/>
</svg>
