<svg width="20" height="20" viewBox="0 0 20 20" fill="none" xmlns="http://www.w3.org/2000/svg">
<path opacity="0.4" d="M15.6734 7.51758C15.2971 7.51758 14.7987 7.50925 14.1782 7.50925C12.6649 7.50925 11.4206 6.25675 11.4206 4.72925V2.04925C11.4206 1.83841 11.2523 1.66675 11.0436 1.66675H6.6357C4.57865 1.66675 2.91602 3.35508 2.91602 5.42425V14.4034C2.91602 16.5742 4.65787 18.3334 6.80733 18.3334H13.3712C15.4209 18.3334 17.0827 16.6559 17.0827 14.5851V7.89258C17.0827 7.68092 16.9152 7.51008 16.7056 7.51091C16.3533 7.51341 15.9308 7.51758 15.6734 7.51758Z" fill="white"/>
<path opacity="0.4" d="M13.4029 2.13947C13.1537 1.88031 12.7188 2.05864 12.7188 2.41781V4.61531C12.7188 5.53698 13.4779 6.29531 14.3996 6.29531C14.9804 6.30198 15.7871 6.30364 16.4721 6.30198C16.8229 6.30114 17.0012 5.88198 16.7579 5.62864C15.8787 4.71448 14.3046 3.07614 13.4029 2.13947Z" fill="white"/>
<path fill-rule="evenodd" clip-rule="evenodd" d="M7.47742 9.48986H10.2983C10.6408 9.48986 10.9191 9.21236 10.9191 8.86986C10.9191 8.52736 10.6408 8.24902 10.2983 8.24902H7.47742C7.13492 8.24902 6.85742 8.52736 6.85742 8.86986C6.85742 9.21236 7.13492 9.48986 7.47742 9.48986ZM7.47751 13.6517H12.0142C12.3567 13.6517 12.635 13.3742 12.635 13.0317C12.635 12.6892 12.3567 12.4109 12.0142 12.4109H7.47751C7.13501 12.4109 6.85751 12.6892 6.85751 13.0317C6.85751 13.3742 7.13501 13.6517 7.47751 13.6517Z" fill="white"/>
</svg>
