<svg xmlns="http://www.w3.org/2000/svg" width="22.326" height="22.108" viewBox="0 0 22.326 22.108">
  <g id="paper" transform="translate(0 -2.493)">
    <path id="Path_491" data-name="Path 491" d="M22.142,5.2,19.506,2.689a.535.535,0,0,0-.4-.2H8.551a.56.56,0,0,0-.559.559V4.77l-3.721.638a.551.551,0,0,0-.447.636l.189,1.1C2.8,7.551,1.561,7.971.362,8.4a.554.554,0,0,0-.331.7l2.385,6.629a.327.327,0,0,0,.615-.221L.682,8.981c1.129-.4,2.3-.8,3.442-1.185l1.124,6.551,1.293,7.545a.554.554,0,0,0,.636.448l3.5-.6,2.737-.469L9.3,22.751,6.054,23.918,3.533,16.907a.327.327,0,1,0-.615.221l2.556,7.111a.552.552,0,0,0,.518.363.541.541,0,0,0,.186-.033l3.343-1.2,7.591-2.729,1.45-.249h3.2a.561.561,0,0,0,.559-.56V5.571a.471.471,0,0,0-.184-.369Zm-.866.077H19.6c-.078,0-.262,0-.308-.044a.184.184,0,0,1-.023-.113l0-1.762Zm.4,14.455H8.646V13.361a.327.327,0,1,0-.654,0v6.467a.561.561,0,0,0,.559.56h6.14l-4.123.707-3.4.584L5.893,14.237l-1.407-8.2,3.506-.6v6.411a.327.327,0,1,0,.654,0v-8.7h9.963l0,1.976a.779.779,0,0,0,.217.576,1,1,0,0,0,.727.234h2.116Z" transform="translate(0)"/>
    <path id="Path_492" data-name="Path 492" d="M234.43,111.776a.327.327,0,0,0,.327.327h9.35a.327.327,0,0,0,0-.654h-9.35A.327.327,0,0,0,234.43,111.776Z" transform="translate(-224.208 -104.205)"/>
    <path id="Path_493" data-name="Path 493" d="M244.107,164.731h-9.35a.327.327,0,1,0,0,.654h9.35a.327.327,0,0,0,0-.654Z" transform="translate(-224.208 -155.164)"/>
    <path id="Path_494" data-name="Path 494" d="M244.107,218.013h-9.35a.327.327,0,1,0,0,.654h9.35a.327.327,0,0,0,0-.654Z" transform="translate(-224.208 -206.122)"/>
    <path id="Path_495" data-name="Path 495" d="M244.107,271.3h-9.35a.327.327,0,1,0,0,.654h9.35a.327.327,0,1,0,0-.654Z" transform="translate(-224.208 -257.081)"/>
    <path id="Path_496" data-name="Path 496" d="M244.107,324.578h-9.35a.327.327,0,1,0,0,.654h9.35a.327.327,0,1,0,0-.654Z" transform="translate(-224.208 -308.041)"/>
  </g>
</svg>
