<svg width="14" height="12" viewBox="0 0 14 12" xmlns="http://www.w3.org/2000/svg">
<path opacity="0.4" fill-rule="evenodd" clip-rule="evenodd" d="M6.99341 0.585938H6.99992C7.93 0.585938 8.83407 0.809093 9.66659 1.22849L7.49423 3.42132C7.33813 3.39507 7.16902 3.37538 6.99992 3.37538C5.56252 3.37538 4.39829 4.55023 4.39829 6.00073C4.39829 6.17138 4.4178 6.34203 4.44382 6.49955L2.03732 8.92801C1.38691 8.16665 0.821057 7.24712 0.372276 6.19107C0.320244 6.07293 0.320244 5.92854 0.372276 5.80383C1.76415 2.53526 4.2422 0.585938 6.99341 0.585938ZM11.2861 2.36461C12.2292 3.23098 13.0292 4.39926 13.6276 5.80383C13.6796 5.92853 13.6796 6.07293 13.6276 6.19107C12.2357 9.45964 9.75763 11.4155 6.99991 11.4155H6.99341C5.73812 11.4155 4.53487 11.002 3.47471 10.2472L5.5365 8.16665C5.95276 8.44822 6.46007 8.61952 6.99991 8.61952C8.43081 8.61952 9.59503 7.44468 9.59503 6.00073C9.59503 5.45597 9.42593 4.94402 9.14625 4.52397L11.2861 2.36461Z"/>
<path fill-rule="evenodd" clip-rule="evenodd" d="M11.2862 2.36504L12.47 1.1705C12.6651 0.980166 12.6651 0.665123 12.47 0.474785C12.2814 0.284447 11.9757 0.284447 11.7805 0.474785L11.1692 1.09174C11.1627 1.10487 11.1496 1.118 11.1366 1.13112C11.1301 1.14425 11.1171 1.15738 11.1041 1.1705L10.5253 1.7553L8.46347 3.8359L1.48461 10.8778L1.46509 10.904C1.33501 11.0943 1.36103 11.3575 1.52363 11.5216C1.61469 11.6194 1.74477 11.6654 1.86835 11.6654C1.99192 11.6654 2.1155 11.6194 2.21306 11.5216L9.1464 4.5244L11.2862 2.36504ZM7.00012 7.6357C7.89118 7.6357 8.61963 6.9006 8.61963 6.00142C8.61963 5.72576 8.55459 5.46322 8.43752 5.24007L6.24565 7.45193C6.46679 7.57007 6.72695 7.6357 7.00012 7.6357Z"/>
</svg>
