<svg width="14" height="12" viewBox="0 0 14 12" xmlns="http://www.w3.org/2000/svg">
<path fill-rule="evenodd" clip-rule="evenodd" d="M10.8243 2.03201C11.9625 2.91055 12.9316 4.19767 13.6276 5.80736C13.6796 5.92954 13.6796 6.07241 13.6276 6.18878C12.2357 9.40817 9.75764 11.3346 6.99992 11.3346H6.99341C4.2422 11.3346 1.76415 9.40817 0.372276 6.18878C0.320244 6.07241 0.320244 5.92954 0.372276 5.80736C1.76415 2.58732 4.2422 0.667969 6.99341 0.667969H6.99992C8.37878 0.667969 9.6861 1.14635 10.8243 2.03201ZM4.3983 6.0013C4.3983 7.42352 5.56253 8.58069 6.99993 8.58069C8.43082 8.58069 9.59505 7.42352 9.59505 6.0013C9.59505 4.57261 8.43082 3.41544 6.99993 3.41544C5.56253 3.41544 4.3983 4.57261 4.3983 6.0013Z"/>
<path opacity="0.4" d="M8.62053 5.99897C8.62053 6.88463 7.89207 7.60867 7.00102 7.60867C6.10346 7.60867 5.375 6.88463 5.375 5.99897C5.375 5.88907 5.38801 5.78629 5.40752 5.68285H5.44004C6.16199 5.68285 6.74736 5.11396 6.77337 4.40221C6.84492 4.38992 6.92297 4.38281 7.00102 4.38281C7.89207 4.38281 8.62053 5.10685 8.62053 5.99897Z"/>
</svg>
