<svg width="20" height="20" viewBox="0 0 20 20" fill="none" xmlns="http://www.w3.org/2000/svg">
<path opacity="0.4" d="M15.7573 7.51783C15.3811 7.51783 14.8827 7.50949 14.2622 7.50949C12.7489 7.50949 11.5046 6.25699 11.5046 4.72949V2.04949C11.5046 1.83866 11.3363 1.66699 11.1275 1.66699H6.71969C4.66264 1.66699 3 3.35533 3 5.42449V14.4037C3 16.5745 4.74185 18.3337 6.89132 18.3337H13.4552C15.5049 18.3337 17.1667 16.6562 17.1667 14.5853V7.89283C17.1667 7.68116 16.9992 7.51033 16.7896 7.51116C16.4373 7.51366 16.0148 7.51783 15.7573 7.51783Z" fill="white"/>
<path opacity="0.4" d="M13.4869 2.13947C13.2377 1.88031 12.8027 2.05864 12.8027 2.41781V4.61531C12.8027 5.53698 13.5619 6.29531 14.4836 6.29531C15.0644 6.30198 15.8711 6.30364 16.5561 6.30198C16.9069 6.30114 17.0852 5.88198 16.8419 5.62864C15.9627 4.71448 14.3886 3.07614 13.4869 2.13947Z" fill="white"/>
<path d="M6.741 13.202C6.825 13.304 6.916 13.376 7.014 13.418C7.114 13.46 7.222 13.481 7.338 13.481C7.45 13.481 7.551 13.46 7.641 13.418C7.731 13.376 7.807 13.312 7.869 13.226C7.933 13.14 7.982 13.032 8.016 12.902C8.05 12.77 8.067 12.615 8.067 12.437C8.067 12.257 8.052 12.105 8.022 11.981C7.994 11.855 7.953 11.753 7.899 11.675C7.845 11.597 7.779 11.54 7.701 11.504C7.625 11.468 7.538 11.45 7.44 11.45C7.286 11.45 7.155 11.483 7.047 11.549C6.939 11.613 6.837 11.704 6.741 11.822V13.202ZM6.702 11.342C6.828 11.2 6.971 11.085 7.131 10.997C7.291 10.909 7.479 10.865 7.695 10.865C7.863 10.865 8.016 10.9 8.154 10.97C8.294 11.04 8.414 11.142 8.514 11.276C8.616 11.408 8.694 11.572 8.748 11.768C8.804 11.962 8.832 12.185 8.832 12.437C8.832 12.667 8.801 12.88 8.739 13.076C8.677 13.272 8.588 13.442 8.472 13.586C8.358 13.73 8.219 13.843 8.055 13.925C7.893 14.005 7.711 14.045 7.509 14.045C7.337 14.045 7.19 14.019 7.068 13.967C6.946 13.913 6.837 13.839 6.741 13.745V15.005H6V10.922H6.453C6.549 10.922 6.612 10.967 6.642 11.057L6.702 11.342Z" fill="white"/>
<path d="M11.3422 11.708C11.2582 11.606 11.1662 11.534 11.0662 11.492C10.9682 11.45 10.8622 11.429 10.7482 11.429C10.6362 11.429 10.5352 11.45 10.4452 11.492C10.3552 11.534 10.2782 11.598 10.2142 11.684C10.1502 11.768 10.1012 11.876 10.0672 12.008C10.0332 12.138 10.0162 12.292 10.0162 12.47C10.0162 12.65 10.0302 12.803 10.0582 12.929C10.0882 13.053 10.1302 13.155 10.1842 13.235C10.2382 13.313 10.3042 13.37 10.3822 13.406C10.4602 13.44 10.5472 13.457 10.6432 13.457C10.7972 13.457 10.9282 13.425 11.0362 13.361C11.1442 13.297 11.2462 13.206 11.3422 13.088V11.708ZM12.0832 9.54199V14H11.6302C11.5322 14 11.4702 13.955 11.4442 13.865L11.3812 13.568C11.2572 13.71 11.1142 13.825 10.9522 13.913C10.7922 14.001 10.6052 14.045 10.3912 14.045C10.2232 14.045 10.0692 14.01 9.92916 13.94C9.78916 13.87 9.66816 13.769 9.56616 13.637C9.46616 13.503 9.38816 13.338 9.33216 13.142C9.27816 12.946 9.25116 12.722 9.25116 12.47C9.25116 12.242 9.28216 12.03 9.34416 11.834C9.40616 11.638 9.49516 11.468 9.61116 11.324C9.72716 11.18 9.86616 11.068 10.0282 10.988C10.1902 10.906 10.3722 10.865 10.5742 10.865C10.7462 10.865 10.8932 10.892 11.0152 10.946C11.1372 11 11.2462 11.073 11.3422 11.165V9.54199H12.0832Z" fill="white"/>
<path d="M13.0305 14V11.48L12.7635 11.438C12.7055 11.426 12.6585 11.406 12.6225 11.378C12.5885 11.348 12.5715 11.306 12.5715 11.252V10.949H13.0305V10.721C13.0305 10.545 13.0565 10.387 13.1085 10.247C13.1625 10.107 13.2385 9.98799 13.3365 9.88999C13.4365 9.79199 13.5575 9.71699 13.6995 9.66499C13.8415 9.61299 14.0015 9.58699 14.1795 9.58699C14.3215 9.58699 14.4535 9.60599 14.5755 9.64399L14.5605 10.016C14.5585 10.044 14.5505 10.067 14.5365 10.085C14.5225 10.101 14.5035 10.114 14.4795 10.124C14.4575 10.132 14.4315 10.138 14.4015 10.142C14.3715 10.144 14.3395 10.145 14.3055 10.145C14.2175 10.145 14.1385 10.155 14.0685 10.175C14.0005 10.193 13.9425 10.226 13.8945 10.274C13.8465 10.32 13.8095 10.382 13.7835 10.46C13.7595 10.536 13.7475 10.631 13.7475 10.745V10.949H14.5485V11.477H13.7715V14H13.0305Z" fill="white"/>
</svg>
