<svg xmlns="http://www.w3.org/2000/svg" width="16.811" height="16.808" viewBox="0 0 16.811 16.808">
  <path id="pen" d="M14.878.647a2.315,2.315,0,0,0-3.271,0l-.819.823L2.073,10.182l-.019.019s0,.009-.009.009-.023.028-.032.042,0,0,0,.009-.014.023-.023.037,0,.009-.009.014-.009.023-.014.037,0,0,0,.009L.023,16.173a.455.455,0,0,0,.111.472.465.465,0,0,0,.328.134.546.546,0,0,0,.148-.023l5.811-1.938s0,0,.009,0a.168.168,0,0,0,.042-.019.016.016,0,0,0,.009,0l.046-.028c.014-.009.028-.023.042-.032s.009,0,.009-.009.014-.009.019-.019l9.535-9.535a2.315,2.315,0,0,0,0-3.271ZM6.274,13.73l-3.22-3.22,8.059-8.059,3.22,3.22ZM2.6,11.366l2.813,2.813L1.189,15.585ZM15.48,4.519l-.49.5-3.22-3.22.5-.495a1.388,1.388,0,0,1,1.961,0l1.258,1.258a1.392,1.392,0,0,1,0,1.962Zm0,0" transform="translate(0.002 0.029)"/>
</svg>
