<svg width="14" height="14" viewBox="0 0 14 14" xmlns="http://www.w3.org/2000/svg">
<path d="M7 0C5.73237 0 4.55449 0.319712 3.46635 0.959135C2.41186 1.57612 1.57612 2.41186 0.959135 3.46635C0.319712 4.55449 0 5.73237 0 7C0 8.26763 0.319712 9.44551 0.959135 10.5337C1.57612 11.5881 2.41186 12.4239 3.46635 13.0409C4.55449 13.6803 5.73237 14 7 14C8.26763 14 9.44551 13.6803 10.5337 13.0409C11.5881 12.4239 12.4239 11.5881 13.0409 10.5337C13.6803 9.44551 14 8.26763 14 7C14 5.73237 13.6803 4.55449 13.0409 3.46635C12.4239 2.41186 11.5881 1.57612 10.5337 0.959135C9.44551 0.319712 8.26763 0 7 0ZM7 1.07692C8.07692 1.07692 9.07532 1.34615 9.99519 1.88462C10.8814 2.41186 11.5881 3.11859 12.1154 4.00481C12.6538 4.92468 12.9231 5.92308 12.9231 7C12.9231 8.07692 12.6538 9.07532 12.1154 9.99519C11.5881 10.8814 10.8814 11.5881 9.99519 12.1154C9.07532 12.6538 8.07692 12.9231 7 12.9231C5.92308 12.9231 4.92468 12.6538 4.00481 12.1154C3.11859 11.5881 2.41186 10.8814 1.88462 9.99519C1.34615 9.07532 1.07692 8.07692 1.07692 7C1.07692 5.92308 1.34615 4.92468 1.88462 4.00481C2.41186 3.11859 3.11859 2.41186 4.00481 1.88462C4.92468 1.34615 5.92308 1.07692 7 1.07692ZM6.46154 3.76923V6.46154H3.76923V7.53846H6.46154V10.2308H7.53846V7.53846H10.2308V6.46154H7.53846V3.76923H6.46154Z"/>
</svg>
