<svg width="20" height="20" viewBox="0 0 20 20" xmlns="http://www.w3.org/2000/svg">
<path opacity="0.4" d="M9.18707 2.59472L7.33167 6.32328C7.19497 6.59342 6.93408 6.78101 6.63318 6.8227L2.46562 7.42968C2.22224 7.46386 2.00136 7.59226 1.85216 7.78819C1.70463 7.98162 1.64128 8.22675 1.67712 8.46771C1.70629 8.66781 1.80048 8.8529 1.94468 8.99464L4.96449 11.922C5.18537 12.1262 5.28539 12.4289 5.23205 12.7249L4.48856 16.8403C4.40937 17.3372 4.73861 17.8058 5.23205 17.9C5.43543 17.9325 5.6438 17.8983 5.82718 17.805L9.54464 15.8681C9.82053 15.7289 10.1464 15.7289 10.4223 15.8681L14.1398 17.805C14.5966 18.0476 15.1625 17.8825 15.4167 17.4323C15.5109 17.253 15.5443 17.0487 15.5134 16.8495L14.7699 12.7332C14.7166 12.4381 14.8174 12.1337 15.0375 11.9295L18.0573 9.00381C18.4165 8.65697 18.4274 8.08584 18.0815 7.72649C18.074 7.71899 18.0656 7.71065 18.0573 7.70232C17.9139 7.55641 17.7256 7.46386 17.5222 7.43968L13.3546 6.83187C13.0546 6.78935 12.7937 6.60342 12.6561 6.33162L10.8674 2.59472C10.7082 2.27456 10.3782 2.07529 10.0197 2.08363H9.90805C9.59715 2.12114 9.32626 2.31374 9.18707 2.59472Z" />
<path d="M10.0073 15.7643C10.1687 15.7693 10.326 15.8127 10.4674 15.8902L14.1667 17.8227C14.6194 18.0387 15.161 17.871 15.4148 17.4382C15.5088 17.2614 15.5429 17.0587 15.5113 16.8602L14.7724 12.7527C14.7225 12.4541 14.8224 12.1505 15.0395 11.9403L18.0607 9.01544C18.4193 8.66432 18.426 8.08801 18.0748 7.72855C18.0699 7.72355 18.0657 7.71938 18.0607 7.71521C17.9176 7.57342 17.7329 7.48001 17.534 7.45082L13.363 6.83699C13.0609 6.79862 12.7988 6.61013 12.6657 6.33657L10.8527 2.55264C10.6804 2.24739 10.3501 2.06557 10.0007 2.08476C10.0073 2.33246 10.0073 15.5958 10.0073 15.7643Z" />
</svg>
