<svg id="printer" xmlns="http://www.w3.org/2000/svg" width="13" height="13" viewBox="0 0 13 13">
  <path id="Path_562" data-name="Path 562" d="M11.1,3.275H10.74V1.9A1.906,1.906,0,0,0,8.836,0H4.164a1.906,1.906,0,0,0-1.9,1.9V3.275H1.9A1.906,1.906,0,0,0,0,5.18V8.227a1.906,1.906,0,0,0,1.9,1.9H2.26v1.727A1.144,1.144,0,0,0,3.4,13H9.6a1.144,1.144,0,0,0,1.143-1.143V10.131H11.1a1.906,1.906,0,0,0,1.9-1.9V5.18A1.906,1.906,0,0,0,11.1,3.275ZM3.021,1.9A1.144,1.144,0,0,1,4.164.762H8.836A1.144,1.144,0,0,1,9.979,1.9V3.275H3.021Zm6.957,9.953a.381.381,0,0,1-.381.381H3.4a.381.381,0,0,1-.381-.381V8.1H9.979Zm2.26-3.631A1.144,1.144,0,0,1,11.1,9.369H10.74V8.1h.229a.381.381,0,1,0,0-.762H2.031a.381.381,0,1,0,0,.762H2.26v1.27H1.9A1.144,1.144,0,0,1,.762,8.227V5.18A1.144,1.144,0,0,1,1.9,4.037H11.1A1.144,1.144,0,0,1,12.238,5.18Z" fill="#fff"/>
  <path id="Path_563" data-name="Path 563" d="M203.412,353h-2.031a.381.381,0,1,0,0,.762h2.031a.381.381,0,1,0,0-.762Z" transform="translate(-195.896 -344.037)" fill="#fff"/>
  <path id="Path_564" data-name="Path 564" d="M203.412,417h-2.031a.381.381,0,0,0,0,.762h2.031a.381.381,0,0,0,0-.762Z" transform="translate(-195.896 -406.412)" fill="#fff"/>
  <path id="Path_565" data-name="Path 565" d="M66.6,193H65.381a.381.381,0,0,0,0,.762H66.6a.381.381,0,0,0,0-.762Z" transform="translate(-63.35 -188.1)" fill="#fff"/>
</svg>
