<svg width="16" height="18" viewBox="0 0 16 18" xmlns="http://www.w3.org/2000/svg">
<path opacity="0.4" d="M14.3691 6.90705C14.3691 6.96371 13.925 12.581 13.6713 14.9451C13.5125 16.3959 12.5772 17.2759 11.1743 17.3009C10.0964 17.325 9.04118 17.3333 8.00298 17.3333C6.90076 17.3333 5.82284 17.325 4.77654 17.3009C3.42064 17.2684 2.48456 16.3709 2.33381 14.9451C2.07284 12.5727 1.63682 6.96371 1.62871 6.90705C1.62061 6.73622 1.67572 6.57373 1.78756 6.44206C1.89778 6.3204 2.05663 6.24707 2.22359 6.24707H13.7824C13.9485 6.24707 14.0993 6.3204 14.2184 6.44206C14.3294 6.57373 14.3854 6.73622 14.3691 6.90705Z"/>
<path d="M15.5 3.98068C15.5 3.63819 15.2301 3.36986 14.9059 3.36986H12.4762C11.9818 3.36986 11.5522 3.01821 11.442 2.52239L11.3059 1.91492C11.1154 1.18077 10.4581 0.666626 9.72061 0.666626H6.2802C5.53458 0.666626 4.88378 1.18077 4.68603 1.95491L4.55879 2.52323C4.44775 3.01821 4.01821 3.36986 3.52464 3.36986H1.09488C0.769883 3.36986 0.5 3.63819 0.5 3.98068V4.29733C0.5 4.63149 0.769883 4.90814 1.09488 4.90814H14.9059C15.2301 4.90814 15.5 4.63149 15.5 4.29733V3.98068Z"/>
</svg>
