<svg xmlns="http://www.w3.org/2000/svg" width="17.715" height="15.741" viewBox="0 0 17.715 15.741">
  <g id="scissors" transform="translate(0 -28.52)">
    <g id="Group_426" data-name="Group 426" transform="translate(0 28.52)">
      <path id="Path_497" data-name="Path 497" d="M17.715,31.245a2.609,2.609,0,0,0-3.615-.659L8.088,34.8,5.9,33.265a3.161,3.161,0,1,0-1.33,1.251l2.678,1.875L4.571,38.266A3.164,3.164,0,1,0,5.9,39.517l2.186-1.531L14.1,42.195a2.608,2.608,0,0,0,3.615-.659l-7.349-5.145ZM3.17,33.33a1.64,1.64,0,1,1,1.64-1.64A1.64,1.64,0,0,1,3.17,33.33Zm0,9.4a1.64,1.64,0,1,1,1.64-1.64A1.64,1.64,0,0,1,3.17,42.731Z" transform="translate(0 -28.52)"/>
    </g>
  </g>
</svg>
