<svg width="76" height="74" viewBox="0 0 76 74" fill="none" xmlns="http://www.w3.org/2000/svg">
<path d="M81.2816 2.74289C79.1982 0.613724 76.1149 -0.173776 73.2399 0.659557L6.19824 20.0304C3.1649 20.8721 1.0149 23.2762 0.435735 26.3262C-0.155932 29.4346 1.91074 33.3846 4.61074 35.0346L25.5732 47.8346C27.7232 49.1512 30.4982 48.8221 32.2774 47.0387L56.2816 23.0346C57.4899 21.7804 59.4899 21.7804 60.6982 23.0346C61.9066 24.2387 61.9066 26.2012 60.6982 27.4512L36.6524 51.4554C34.8691 53.2387 34.5357 56.0054 35.8482 58.1596L48.6566 79.2012C50.1566 81.6971 52.7399 83.1179 55.5732 83.1179C55.9066 83.1179 56.2816 83.1179 56.6149 83.0721C59.8649 82.6596 62.4482 80.4471 63.4066 77.3221L83.2816 10.7846C84.1566 7.95122 83.3649 4.86789 81.2816 2.74289Z" fill="#F5F6FA"/>
<path opacity="0.4" fill-rule="evenodd" clip-rule="evenodd" d="M4.54388 62.0325C3.74388 62.0325 2.94388 61.7284 2.33555 61.1159C1.11471 59.895 1.11471 57.92 2.33555 56.6992L8.02305 51.0075C9.24388 49.7909 11.223 49.7909 12.4439 51.0075C13.6605 52.2284 13.6605 54.2075 12.4439 55.4284L6.75221 61.1159C6.14388 61.7284 5.34388 62.0325 4.54388 62.0325ZM20.2155 67.0008C19.4155 67.0008 18.6155 66.6966 18.0072 66.0841C16.7864 64.8633 16.7864 62.8883 18.0072 61.6675L23.6947 55.9758C24.9155 54.7591 26.8947 54.7591 28.1155 55.9758C29.3322 57.1966 29.3322 59.1758 28.1155 60.3966L22.4239 66.0841C21.8155 66.6966 21.0155 67.0008 20.2155 67.0008ZM21.2726 81.8676C21.881 82.4801 22.681 82.7842 23.481 82.7842C24.281 82.7842 25.081 82.4801 25.6893 81.8676L31.381 76.1801C32.5977 74.9592 32.5977 72.9801 31.381 71.7592C30.1602 70.5426 28.181 70.5426 26.9602 71.7592L21.2726 77.4509C20.0518 78.6717 20.0518 80.6467 21.2726 81.8676Z" fill="#F5F6FA"/>
</svg>
