<svg width="10" height="10" viewBox="0 0 10 10" xmlns="http://www.w3.org/2000/svg">
<path d="M8.92777 1.07433C8.71943 0.861415 8.4111 0.782665 8.1236 0.865998L1.41943 2.80308C1.1161 2.88725 0.9011 3.12767 0.843183 3.43266C0.784016 3.7435 0.990683 4.1385 1.26068 4.3035L3.35693 5.5835C3.57193 5.71517 3.84943 5.68225 4.02735 5.50391L6.42777 3.1035C6.5486 2.97808 6.7486 2.97808 6.86943 3.1035C6.99027 3.22392 6.99027 3.42017 6.86943 3.54517L4.46485 5.94558C4.28652 6.12392 4.25318 6.40058 4.38443 6.616L5.66527 8.72017C5.81527 8.96975 6.0736 9.11183 6.35693 9.11183C6.39027 9.11183 6.42777 9.11183 6.4611 9.10725C6.7861 9.066 7.04443 8.84475 7.14027 8.53225L9.12777 1.8785C9.21527 1.59517 9.1361 1.28683 8.92777 1.07433Z"/>
<path opacity="0.4" fill-rule="evenodd" clip-rule="evenodd" d="M1.2538 7.0032C1.1738 7.0032 1.0938 6.97278 1.03297 6.91153C0.910885 6.78945 0.910885 6.59195 1.03297 6.46986L1.60172 5.9007C1.7238 5.77903 1.92172 5.77903 2.0438 5.9007C2.16547 6.02278 2.16547 6.2207 2.0438 6.34278L1.47464 6.91153C1.4138 6.97278 1.3338 7.0032 1.2538 7.0032ZM2.82099 7.50004C2.74099 7.50004 2.66099 7.46962 2.60016 7.40837C2.47807 7.28629 2.47807 7.08879 2.60016 6.96671L3.16891 6.39754C3.29099 6.27587 3.48891 6.27587 3.61099 6.39754C3.73266 6.51962 3.73266 6.71754 3.61099 6.83962L3.04182 7.40837C2.98099 7.46962 2.90099 7.50004 2.82099 7.50004ZM2.9267 8.98666C2.98754 9.04791 3.06754 9.07832 3.14754 9.07832C3.22754 9.07832 3.30754 9.04791 3.36837 8.98666L3.93754 8.41791C4.05921 8.29582 4.05921 8.09791 3.93754 7.97582C3.81546 7.85416 3.61754 7.85416 3.49546 7.97582L2.9267 8.54499C2.80462 8.66707 2.80462 8.86457 2.9267 8.98666Z"/>
</svg>
