<svg width="20" height="20" viewBox="0 0 20 20" xmlns="http://www.w3.org/2000/svg">
<path fill-rule="evenodd" clip-rule="evenodd" d="M2.57228 13.5955L3.21303 8.43331C3.60337 6.59129 4.70811 5.83325 5.76129 5.83325H14.2236C15.2915 5.83325 16.433 6.53822 16.7645 8.43331L17.4126 13.5955C17.9429 17.3857 15.9912 18.3333 13.4429 18.3333H6.53461C3.99371 18.3333 2.10093 16.9612 2.57228 13.5955ZM12.4192 10.1237C12.8259 10.1237 13.1557 9.78435 13.1557 9.3657C13.1557 8.94705 12.8259 8.60766 12.4192 8.60766C12.0124 8.60766 11.6827 8.94705 11.6827 9.3657C11.6827 9.78435 12.0124 10.1237 12.4192 10.1237ZM8.33164 9.3657C8.33164 9.78435 8.0019 10.1237 7.59515 10.1237C7.1884 10.1237 6.85866 9.78435 6.85866 9.3657C6.85866 8.94705 7.1884 8.60766 7.59515 8.60766C8.0019 8.60766 8.33164 8.94705 8.33164 9.3657Z"/>
<path opacity="0.4" d="M5.85507 5.64523C5.85245 5.70987 5.86487 5.77423 5.89136 5.83329H7.08895C7.11214 5.77324 7.12443 5.70957 7.12524 5.64523C7.12524 4.04731 8.42508 2.75195 10.0285 2.75195C11.6319 2.75195 12.9318 4.04731 12.9318 5.64523C12.9208 5.70744 12.9208 5.77108 12.9318 5.83329H14.1584C14.1694 5.77108 14.1694 5.70744 14.1584 5.64523C14.0652 3.42155 12.2291 1.66663 9.99584 1.66663C7.76255 1.66663 5.92649 3.42155 5.83329 5.64523H5.85507Z"/>
</svg>
