<svg width="30" height="30" viewBox="0 0 30 30" fill="none" xmlns="http://www.w3.org/2000/svg">
<path opacity="0.01" fill-rule="evenodd" clip-rule="evenodd" d="M0 0V30H30V0H0Z" fill="#1C8FF8" fill-opacity="0.338428"/>
<circle cx="14.5" cy="14.5" r="2.86364" stroke="#6C7B8A" stroke-width="2" stroke-linecap="round" stroke-linejoin="round"/>
<path fill-rule="evenodd" clip-rule="evenodd" d="M21.5636 17.3636C21.3037 17.9527 21.4284 18.6406 21.8786 19.1009L21.9359 19.1582C22.2944 19.5163 22.4958 20.0022 22.4958 20.5089C22.4958 21.0156 22.2944 21.5015 21.9359 21.8595C21.5778 22.218 21.0919 22.4195 20.5852 22.4195C20.0785 22.4195 19.5926 22.218 19.2345 21.8595L19.1773 21.8023C18.717 21.352 18.029 21.2273 17.44 21.4873C16.863 21.7346 16.488 22.3009 16.4855 22.9286V23.0909C16.4855 24.1453 15.6307 25 14.5764 25C13.522 25 12.6673 24.1453 12.6673 23.0909V23.005C12.6521 22.3585 12.2433 21.7869 11.6364 21.5636C11.0473 21.3037 10.3594 21.4284 9.89909 21.8786L9.84182 21.9359C9.48373 22.2944 8.99783 22.4958 8.49114 22.4958C7.98445 22.4958 7.49854 22.2944 7.14045 21.9359C6.78197 21.5778 6.58054 21.0919 6.58054 20.5852C6.58054 20.0785 6.78197 19.5926 7.14045 19.2345L7.19773 19.1773C7.64795 18.717 7.77269 18.029 7.51273 17.44C7.26543 16.863 6.69911 16.488 6.07136 16.4855H5.90909C4.85473 16.4855 4 15.6307 4 14.5764C4 13.522 4.85473 12.6673 5.90909 12.6673H5.995C6.64154 12.6521 7.21313 12.2433 7.43636 11.6364C7.69633 11.0473 7.57159 10.3594 7.12136 9.89909L7.06409 9.84182C6.70561 9.48373 6.50418 8.99783 6.50418 8.49114C6.50418 7.98445 6.70561 7.49854 7.06409 7.14045C7.42218 6.78197 7.90808 6.58054 8.41477 6.58054C8.92146 6.58054 9.40737 6.78197 9.76545 7.14045L9.82273 7.19773C10.283 7.64795 10.971 7.77269 11.56 7.51273H11.6364C12.2134 7.26543 12.5884 6.69911 12.5909 6.07136V5.90909C12.5909 4.85473 13.4456 4 14.5 4C15.5544 4 16.4091 4.85473 16.4091 5.90909V5.995C16.4116 6.62275 16.7866 7.18907 17.3636 7.43636C17.9527 7.69633 18.6406 7.57159 19.1009 7.12136L19.1582 7.06409C19.5163 6.70561 20.0022 6.50418 20.5089 6.50418C21.0156 6.50418 21.5015 6.70561 21.8595 7.06409C22.218 7.42218 22.4195 7.90808 22.4195 8.41477C22.4195 8.92146 22.218 9.40737 21.8595 9.76545L21.8023 9.82273C21.352 10.283 21.2273 10.971 21.4873 11.56V11.6364C21.7346 12.2134 22.3009 12.5884 22.9286 12.5909H23.0909C24.1453 12.5909 25 13.4456 25 14.5C25 15.5544 24.1453 16.4091 23.0909 16.4091H23.005C22.3772 16.4116 21.8109 16.7866 21.5636 17.3636Z" stroke="#6C7B8A" stroke-width="2" stroke-linecap="round" stroke-linejoin="round"/>
</svg>
