<svg width="48" height="48" viewBox="0 0 48 48" fill="none" xmlns="http://www.w3.org/2000/svg">
<path opacity="0.4" d="M24.04 4C12.42 4 4 13.48 4 24C4 27.36 4.98 30.82 6.7 33.98C7.02 34.5 7.06 35.16 6.84 35.78L5.5 40.26C5.2 41.34 6.12 42.14 7.14 41.82L11.18 40.62C12.28 40.26 13.14 40.72 14.162 41.34C17.082 43.06 20.72 43.94 24 43.94C33.92 43.94 44 36.28 44 23.94C44 13.3 35.4 4 24.04 4Z" fill="#6DD697"/>
<path fill-rule="evenodd" clip-rule="evenodd" d="M23.961 26.5802C22.541 26.5602 21.401 25.4202 21.401 24.0002C21.401 22.6002 22.561 21.4402 23.961 21.4602C25.381 21.4602 26.521 22.6002 26.521 24.0202C26.521 25.4202 25.381 26.5802 23.961 26.5802ZM14.7402 26.5802C13.3402 26.5802 12.1802 25.4202 12.1802 24.0202C12.1802 22.6002 13.3202 21.4602 14.7402 21.4602C16.1602 21.4602 17.3002 22.6002 17.3002 24.0202C17.3002 25.4202 16.1602 26.5602 14.7402 26.5802ZM30.6206 24.0202C30.6206 25.4202 31.7606 26.5802 33.1806 26.5802C34.6006 26.5802 35.7406 25.4202 35.7406 24.0202C35.7406 22.6002 34.6006 21.4602 33.1806 21.4602C31.7606 21.4602 30.6206 22.6002 30.6206 24.0202Z" fill="#6DD697"/>
</svg>
