<svg xmlns="http://www.w3.org/2000/svg" width="85" height="85" viewBox="0 0 85 85">
  <g id="sms" transform="translate(0 -0.041)">
    <circle id="Ellipse_59" data-name="Ellipse 59" cx="42.5" cy="42.5" r="42.5" transform="translate(0 0.041)" fill="#fe5d6d"/>
    <path id="Path_471" data-name="Path 471" d="M93.715,26.137H32.83A10.119,10.119,0,0,0,22.72,36.265V70.854A10.119,10.119,0,0,0,32.83,80.982,6.216,6.216,0,0,1,39.041,87.2v7.582a2.228,2.228,0,0,0,4.115,1.19l4.7-7.464a16.094,16.094,0,0,1,13.622-7.53H93.715a10.119,10.119,0,0,0,10.11-10.128V36.265A10.119,10.119,0,0,0,93.715,26.137Z" transform="translate(-18.825 -21.616)" fill="#fec753"/>
    <path id="Path_472" data-name="Path 472" d="M43.635,80.982A10.057,10.057,0,0,1,33.65,70.854V36.265a10.057,10.057,0,0,1,9.985-10.128H32.705A10.057,10.057,0,0,0,22.72,36.265V70.854a10.057,10.057,0,0,0,9.985,10.128A6.179,6.179,0,0,1,38.84,87.2v7.582a2.2,2.2,0,0,0,4.064,1.19l4.637-7.464A16.072,16.072,0,0,1,49.62,85.85,6.154,6.154,0,0,0,43.635,80.982Z" transform="translate(-18.825 -21.615)" fill="#e0a336"/>
    <g id="Group_378" data-name="Group 378" transform="translate(24.73 24.44)">
      <path id="Path_473" data-name="Path 473" d="M146.339,147.727a4.977,4.977,0,0,1,4.023,1.944,5.14,5.14,0,0,1,1.07,4.478,5.021,5.021,0,0,1-1.845,3.014,5.215,5.215,0,0,1-3.346,1.169h-.012a5.061,5.061,0,0,1-3.149-1.07,5.176,5.176,0,0,1-1.858-2.694,1.158,1.158,0,0,1,.172-1.058,1.092,1.092,0,0,1,.935-.48,1.044,1.044,0,0,1,1.107.824,2.9,2.9,0,0,0,1.033,1.513,2.79,2.79,0,0,0,1.759.6h.049a2.9,2.9,0,0,0,1.784-.591,2.827,2.827,0,0,0,1.058-1.55,2.875,2.875,0,0,0-.5-2.584,2.775,2.775,0,0,0-2.239-1.156,4.758,4.758,0,0,1-3.383-1.415,4.53,4.53,0,0,1-1.4-3.359v-.344a4.631,4.631,0,0,1,1.39-3.383,4.521,4.521,0,0,1,3.334-1.39h.074a4.539,4.539,0,0,1,2.768.91,4.678,4.678,0,0,1,1.7,2.325,1.121,1.121,0,0,1-.172,1.058,1.092,1.092,0,0,1-.935.48h-.012a1.043,1.043,0,0,1-1.083-.775,2.394,2.394,0,0,0-.861-1.181,2.292,2.292,0,0,0-1.4-.467h-.074a2.253,2.253,0,0,0-1.685.714,2.327,2.327,0,0,0-.7,1.71v.381a2.253,2.253,0,0,0,.713,1.686A2.335,2.335,0,0,0,146.339,147.727Z" transform="translate(-141.164 -140.198)" fill="#fff"/>
      <path id="Path_474" data-name="Path 474" d="M227.047,140.555a1.125,1.125,0,0,1,.824.344,1.105,1.105,0,0,1,.332.812v15.76a1.135,1.135,0,0,1-1.157,1.157,1.131,1.131,0,0,1-.812-.332,1.146,1.146,0,0,1-.332-.824v-11l-3.371,6.582a.828.828,0,0,1-.135.184,1.015,1.015,0,0,1-.357.32,1.147,1.147,0,0,1-.886.062,1.079,1.079,0,0,1-.664-.566l-3.346-6.557v10.974a1.146,1.146,0,0,1-.332.824,1.131,1.131,0,0,1-.812.332,1.135,1.135,0,0,1-1.156-1.157v-15.76a1.1,1.1,0,0,1,.332-.812,1.125,1.125,0,0,1,.824-.344,1.075,1.075,0,0,1,1,.591.034.034,0,0,0,.012.025l.012.012,4.491,8.809,4.515-8.809q0,.012.049-.086c.025-.033.033-.045.025-.037a1.177,1.177,0,0,1,.086-.1l.344-.406h.517Z" transform="translate(-202.211 -140.494)" fill="#fff"/>
      <path id="Path_475" data-name="Path 475" d="M309.39,147.727a4.977,4.977,0,0,1,4.023,1.944,5.14,5.14,0,0,1,1.07,4.478,5.022,5.022,0,0,1-1.846,3.014,5.215,5.215,0,0,1-3.346,1.169h-.012a5.061,5.061,0,0,1-3.149-1.07,5.176,5.176,0,0,1-1.858-2.694,1.158,1.158,0,0,1,.172-1.058,1.091,1.091,0,0,1,.935-.48,1.044,1.044,0,0,1,1.107.824,2.9,2.9,0,0,0,1.033,1.513,2.79,2.79,0,0,0,1.759.6h.049a2.9,2.9,0,0,0,1.784-.591,2.827,2.827,0,0,0,1.058-1.55,2.874,2.874,0,0,0-.5-2.584,2.775,2.775,0,0,0-2.239-1.156,4.758,4.758,0,0,1-3.383-1.415,4.53,4.53,0,0,1-1.4-3.359v-.344a4.631,4.631,0,0,1,1.39-3.383,4.521,4.521,0,0,1,3.334-1.39h.074a4.539,4.539,0,0,1,2.768.91,4.678,4.678,0,0,1,1.7,2.325,1.12,1.12,0,0,1-.172,1.058,1.092,1.092,0,0,1-.935.48h-.012a1.043,1.043,0,0,1-1.083-.775,2.394,2.394,0,0,0-.861-1.181,2.292,2.292,0,0,0-1.4-.467h-.074a2.253,2.253,0,0,0-1.685.714,2.327,2.327,0,0,0-.7,1.71v.381a2.253,2.253,0,0,0,.714,1.686A2.336,2.336,0,0,0,309.39,147.727Z" transform="translate(-276.263 -140.198)" fill="#fff"/>
    </g>
    <circle id="Ellipse_60" data-name="Ellipse 60" cx="3.771" cy="3.771" r="3.771" transform="translate(74.366 9.474)" fill="#ffe6a9"/>
    <circle id="Ellipse_61" data-name="Ellipse 61" cx="2.743" cy="2.743" r="2.743" transform="translate(68.849 17.265)" fill="#ffe6a9"/>
  </g>
</svg>
