<svg width="21" height="20" viewBox="0 0 21 20" xmlns="http://www.w3.org/2000/svg">
<path d="M19.7372 7.40938L18.6591 8.48752L17.6951 9.45157C17.3045 9.84209 16.6714 9.84209 16.2808 9.45157L15.34 8.51069L14.2391 7.40984C13.7843 6.955 13.7904 6.21056 14.2507 5.75027C14.711 5.28999 15.4554 5.28384 15.9103 5.73868L17.0111 6.83953L18.0893 5.7614C18.5495 5.30111 19.2949 5.29591 19.7488 5.74981C20.2037 6.20465 20.1975 6.94909 19.7372 7.40938Z"/>
<path d="M7.5 13.0156C3.45422 13.0156 0 13.6625 0 16.2467C0 18.83 3.4332 19.5001 7.5 19.5001C11.5448 19.5001 15 18.8533 15 16.269C15 13.6848 11.5668 13.0156 7.5 13.0156Z" />
<path opacity="0.4" d="M7.5 10.5542C10.2546 10.5542 12.4626 8.31769 12.4626 5.52761C12.4626 2.73754 10.2546 0.5 7.5 0.5C4.74543 0.5 2.53737 2.73754 2.53737 5.52761C2.53737 8.31769 4.74543 10.5542 7.5 10.5542Z"/>
</svg>
