<svg width="20" height="20" viewBox="0 0 20 20" xmlns="http://www.w3.org/2000/svg">
<path opacity="0.4" d="M15.674 7.51752C15.2977 7.51752 14.7993 7.50919 14.1788 7.50919C12.6655 7.50919 11.4212 6.25669 11.4212 4.72919V2.04919C11.4212 1.83835 11.2529 1.66669 11.0442 1.66669H6.63632C4.57926 1.66669 2.91663 3.35502 2.91663 5.42419V14.4034C2.91663 16.5742 4.65848 18.3334 6.80794 18.3334H13.3719C15.4215 18.3334 17.0833 16.6559 17.0833 14.585V7.89252C17.0833 7.68085 16.9158 7.51002 16.7062 7.51085C16.3539 7.51335 15.9314 7.51752 15.674 7.51752Z"/>
<path opacity="0.4" d="M13.4033 2.13941C13.1541 1.88025 12.7191 2.05858 12.7191 2.41775V4.61525C12.7191 5.53691 13.4783 6.29525 14.3999 6.29525C14.9808 6.30191 15.7874 6.30358 16.4724 6.30191C16.8233 6.30108 17.0016 5.88191 16.7583 5.62858C15.8791 4.71441 14.3049 3.07608 13.4033 2.13941Z"/>
<path fill-rule="evenodd" clip-rule="evenodd" d="M7.47815 9.48967H10.299C10.6415 9.48967 10.9198 9.21217 10.9198 8.86967C10.9198 8.52717 10.6415 8.24884 10.299 8.24884H7.47815C7.13565 8.24884 6.85815 8.52717 6.85815 8.86967C6.85815 9.21217 7.13565 9.48967 7.47815 9.48967ZM7.47824 13.6515H12.0149C12.3574 13.6515 12.6357 13.374 12.6357 13.0315C12.6357 12.689 12.3574 12.4107 12.0149 12.4107H7.47824C7.13574 12.4107 6.85824 12.689 6.85824 13.0315C6.85824 13.374 7.13574 13.6515 7.47824 13.6515Z"/>
</svg>
