<svg width="20" height="20" viewBox="0 0 20 20"  xmlns="http://www.w3.org/2000/svg">
<path d="M18.3332 12.252V13.4049C18.3332 13.5962 18.3249 13.7892 18.3082 13.9805C18.0744 16.6131 16.2457 18.3333 13.6071 18.3333H6.3927C5.05669 18.3333 3.92944 17.8997 3.11949 17.1135C2.80218 16.822 2.53498 16.4794 2.32623 16.0868C2.60178 15.7517 2.91074 15.385 3.21134 15.0174C3.72069 14.4075 4.21334 13.8051 4.52229 13.4133C4.98154 12.8451 6.1923 11.3496 7.87066 12.0514C8.21301 12.1935 8.51361 12.394 8.78916 12.5694C9.46551 13.0206 9.74941 13.1543 10.2254 12.8953C10.7514 12.6112 11.0938 12.0514 11.4528 11.4666C11.6449 11.1567 11.8369 10.8567 12.0457 10.581C12.9558 9.39465 14.3586 9.07718 15.5276 9.77897C16.1121 10.1299 16.6131 10.5727 17.0807 11.023C17.1809 11.1232 17.2811 11.216 17.373 11.3079C17.4982 11.4332 17.9157 11.8509 18.3332 12.252Z" />
<path opacity="0.4" d="M13.6156 1.66666H6.39281C3.56214 1.66666 1.66669 3.64672 1.66669 6.59508V13.405C1.66669 14.4318 1.90049 15.3433 2.32634 16.0868C2.60189 15.7518 2.91084 15.385 3.21144 15.0166C3.7208 14.4075 4.21345 13.8052 4.5224 13.4133C4.98165 12.8452 6.19241 11.3497 7.87076 12.0515C8.21311 12.1936 8.51371 12.3941 8.78927 12.5695C9.46562 13.0207 9.74952 13.1543 10.2255 12.8945C10.7515 12.6113 11.0939 12.0515 11.4529 11.4659C11.645 11.1567 11.837 10.8568 12.0458 10.5811C12.9559 9.39473 14.3587 9.07726 15.5277 9.77905C16.1122 10.1299 16.6132 10.5727 17.0808 11.0231C17.1811 11.1233 17.2813 11.2161 17.3731 11.308C17.4984 11.4324 17.9159 11.8502 18.3334 12.252V6.59508C18.3334 3.64672 16.4379 1.66666 13.6156 1.66666Z"/>
<path d="M9.54536 7.33053C9.54536 8.50436 8.56758 9.48186 7.3944 9.48186C6.22205 9.48186 5.24426 8.50436 5.24426 7.33053C5.24426 6.15753 6.22205 5.1792 7.3944 5.1792C8.56758 5.1792 9.54536 6.15753 9.54536 7.33053Z" />
</svg>
