<svg id="tick" xmlns="http://www.w3.org/2000/svg" width="18.051" height="18.051" viewBox="0 0 18.051 18.051">
  <g id="Group_492" data-name="Group 492" transform="translate(3.957 5.569)">
    <g id="Group_491" data-name="Group 491">
      <path id="Path_555" data-name="Path 555" d="M133.1,165.611a.791.791,0,0,0-1.119-.03l-5.053,4.793-2.41-2.475a.792.792,0,0,0-1.134,1.1l2.955,3.034a.792.792,0,0,0,1.112.022l5.62-5.33A.791.791,0,0,0,133.1,165.611Z" transform="translate(-123.158 -165.364)" fill="#2ec114"/>
    </g>
  </g>
  <g id="Group_494" data-name="Group 494">
    <g id="Group_493" data-name="Group 493">
      <path id="Path_556" data-name="Path 556" d="M9.026,0a9.026,9.026,0,1,0,9.026,9.026A9.036,9.036,0,0,0,9.026,0Zm0,16.588a7.562,7.562,0,1,1,7.562-7.562A7.571,7.571,0,0,1,9.026,16.588Z" fill="#2ec114"/>
    </g>
  </g>
</svg>
