<svg width="20" height="20" viewBox="0 0 20 20" xmlns="http://www.w3.org/2000/svg">
<path opacity="0.4" d="M11.4581 8.08586V6.40265C11.1277 6.40265 10.8536 6.13647 10.8536 5.81549V3.8113C10.8536 3.54434 10.636 3.33374 10.362 3.33374H4.82527C3.08446 3.33374 1.66602 4.71084 1.66602 6.40265V8.42955C1.66602 8.58691 1.73049 8.73565 1.84332 8.84526C1.95615 8.95408 2.10928 9.01671 2.27046 9.01671C2.88297 9.01671 3.35041 9.43947 3.35041 9.99532C3.35041 10.5754 2.87491 11.0373 2.27852 11.0444C1.94809 11.0444 1.66602 11.2714 1.66602 11.6002V13.6052C1.66602 15.2962 3.08446 16.6663 4.81721 16.6663H10.362C10.636 16.6663 10.8536 16.4541 10.8536 16.1887V14.4969C10.8536 14.1689 11.1277 13.9097 11.4581 13.9097V12.3917C11.1277 12.3917 10.8536 12.1248 10.8536 11.8046V8.67302C10.8536 8.35204 11.1277 8.08586 11.4581 8.08586Z" />
<path d="M16.6492 9.99573C16.6492 10.5751 17.1327 11.037 17.7211 11.0448C18.0515 11.0448 18.3336 11.2718 18.3336 11.5928V13.6048C18.3336 15.2967 16.9232 16.6667 15.1824 16.6667H12.5551C12.2891 16.6667 12.0634 16.4545 12.0634 16.1884V14.4973C12.0634 14.1685 11.7975 13.9102 11.459 13.9102V12.3921C11.7975 12.3921 12.0634 12.1252 12.0634 11.805V8.67344C12.0634 8.35167 11.7975 8.08628 11.459 8.08628V6.40229C11.7975 6.40229 12.0634 6.13611 12.0634 5.81512V3.81172C12.0634 3.54475 12.2891 3.33337 12.5551 3.33337H15.1824C16.9232 3.33337 18.3336 4.70342 18.3336 6.39446V8.36733C18.3336 8.52391 18.2691 8.67344 18.1563 8.78226C18.0434 8.89186 17.8903 8.9545 17.7291 8.9545C17.1327 8.9545 16.6492 9.42501 16.6492 9.99573Z" />
</svg>
