<svg width="20" height="20" viewBox="0 0 20 20" xmlns="http://www.w3.org/2000/svg">
<path opacity="0.4" d="M6.86566 7.25758V6.1394C6.87413 4.47539 8.27132 3.11618 9.99875 3.11618C11.3197 3.11618 12.5052 3.93618 12.9371 5.16286C13.081 5.54387 13.5044 5.74183 13.8855 5.61013C14.0718 5.55132 14.2242 5.4188 14.3089 5.24486C14.3936 5.07092 14.4105 4.87213 14.3427 4.68991C13.6992 2.88509 11.9548 1.66669 9.98182 1.66669C7.45841 1.66669 5.40072 3.68024 5.38379 6.15597V7.42572L6.86566 7.25758Z"/>
<path fill-rule="evenodd" clip-rule="evenodd" d="M6.47384 7.25922H13.5258C15.4904 7.25922 17.0832 8.81721 17.0832 10.7388V14.8537C17.0832 16.7753 15.4904 18.3333 13.5258 18.3333H6.47384C4.5093 18.3333 2.9165 16.7753 2.9165 14.8537V10.7388C2.9165 8.81721 4.5093 7.25922 6.47384 7.25922ZM9.9956 14.4404C10.4105 14.4404 10.7408 14.1174 10.7408 13.7115V11.8727C10.7408 11.4752 10.4105 11.1521 9.9956 11.1521C9.58915 11.1521 9.2589 11.4752 9.2589 11.8727V13.7115C9.2589 14.1174 9.58915 14.4404 9.9956 14.4404Z"/>
</svg>
