<svg width="16" height="18" viewBox="0 0 16 18" fill="none" xmlns="http://www.w3.org/2000/svg">
<path opacity="0.4" d="M4.86566 6.25764V5.13946C4.87413 3.47545 6.27132 2.11624 7.99875 2.11624C9.31973 2.11624 10.5052 2.93624 10.9371 4.16292C11.081 4.54393 11.5044 4.74189 11.8855 4.61019C12.0718 4.55139 12.2242 4.41886 12.3089 4.24492C12.3936 4.07098 12.4105 3.8722 12.3427 3.68997C11.6992 1.88515 9.95482 0.666748 7.98182 0.666748C5.45841 0.666748 3.40072 2.6803 3.38379 5.15603V6.42579L4.86566 6.25764Z" fill="#5E81F4"/>
<path fill-rule="evenodd" clip-rule="evenodd" d="M4.47384 6.25928H11.5258C13.4904 6.25928 15.0832 7.81727 15.0832 9.73889V13.8538C15.0832 15.7754 13.4904 17.3334 11.5258 17.3334H4.47384C2.5093 17.3334 0.916504 15.7754 0.916504 13.8538V9.73889C0.916504 7.81727 2.5093 6.25928 4.47384 6.25928ZM7.9956 13.4405C8.41053 13.4405 8.74077 13.1174 8.74077 12.7116V10.8728C8.74077 10.4752 8.41053 10.1522 7.9956 10.1522C7.58915 10.1522 7.2589 10.4752 7.2589 10.8728V12.7116C7.2589 13.1174 7.58915 13.4405 7.9956 13.4405Z" fill="#5E81F4"/>
</svg>
