<svg width="16" height="16" viewBox="0 0 16 16" xmlns="http://www.w3.org/2000/svg">
<path opacity="0.4" d="M3.83525 15.5C1.997 15.5 0.5 13.9773 0.5 12.1066L0.5 8.38577C0.5 6.51886 1.9925 5 3.82775 5H12.1648C14.0037 5 15.5 6.52268 15.5 8.39416V12.1135C15.5 13.9811 14.0075 15.5 12.1722 15.5H11.4672H3.83525Z"/>
<path d="M7.5925 0.665834L5.41075 2.80018C5.18575 3.02077 5.18575 3.37576 5.41225 3.59562C5.63875 3.81476 6.004 3.81403 6.229 3.59416L7.42375 2.42473V3.54595V9.83869C7.42375 10.1491 7.6825 10.4011 8.00125 10.4011C8.32075 10.4011 8.57875 10.1491 8.57875 9.83869V2.42473L9.7735 3.59416C9.9985 3.81403 10.3638 3.81476 10.5903 3.59562C10.7035 3.48533 10.7605 3.34143 10.7605 3.19681C10.7605 3.05364 10.7035 2.90974 10.5918 2.80018L8.41075 0.665834C8.302 0.559921 8.155 0.500025 8.00125 0.500025C7.84825 0.500025 7.70125 0.559921 7.5925 0.665834Z"/>
</svg>
