<svg width="48" height="48" viewBox="0 0 48 48" fill="none" xmlns="http://www.w3.org/2000/svg">
<path d="M42.8548 5.1566C41.8548 4.1346 40.3748 3.7566 38.9948 4.1566L6.81484 13.4546C5.35884 13.8586 4.32684 15.0126 4.04884 16.4766C3.76484 17.9686 4.75684 19.8646 6.05284 20.6566L16.1148 26.8006C17.1468 27.4326 18.4788 27.2746 19.3328 26.4186L30.8548 14.8966C31.4348 14.2946 32.3948 14.2946 32.9748 14.8966C33.5548 15.4746 33.5548 16.4166 32.9748 17.0166L21.4328 28.5386C20.5768 29.3946 20.4168 30.7226 21.0468 31.7566L27.1948 41.8566C27.9148 43.0546 29.1548 43.7366 30.5148 43.7366C30.6748 43.7366 30.8548 43.7366 31.0148 43.7146C32.5748 43.5166 33.8148 42.4546 34.2748 40.9546L43.8148 9.0166C44.2348 7.6566 43.8548 6.1766 42.8548 5.1566Z" fill="#F4BE5E"/>
<path opacity="0.4" fill-rule="evenodd" clip-rule="evenodd" d="M6.02098 33.6156C5.63698 33.6156 5.25298 33.4696 4.96098 33.1756C4.37498 32.5896 4.37498 31.6416 4.96098 31.0556L7.69098 28.3236C8.27698 27.7396 9.22698 27.7396 9.81298 28.3236C10.397 28.9096 10.397 29.8596 9.81298 30.4456L7.08098 33.1756C6.78898 33.4696 6.40498 33.6156 6.02098 33.6156ZM13.5434 36.0004C13.1594 36.0004 12.7754 35.8544 12.4834 35.5604C11.8974 34.9744 11.8974 34.0264 12.4834 33.4404L15.2134 30.7084C15.7994 30.1244 16.7494 30.1244 17.3354 30.7084C17.9194 31.2944 17.9194 32.2444 17.3354 32.8304L14.6034 35.5604C14.3114 35.8544 13.9274 36.0004 13.5434 36.0004ZM14.0508 43.1364C14.3428 43.4304 14.7268 43.5764 15.1108 43.5764C15.4948 43.5764 15.8788 43.4304 16.1708 43.1364L18.9028 40.4064C19.4868 39.8204 19.4868 38.8704 18.9028 38.2844C18.3168 37.7004 17.3668 37.7004 16.7808 38.2844L14.0508 41.0164C13.4648 41.6024 13.4648 42.5504 14.0508 43.1364Z" fill="#F4BE5E"/>
</svg>
