<svg width="10" height="10" viewBox="0 0 10 10" fill="none" xmlns="http://www.w3.org/2000/svg">
<path d="M9.16634 4.99992C9.16634 7.30159 7.30092 9.16659 4.99967 9.16659C2.69842 9.16659 0.833008 7.30159 0.833008 4.99992C0.833008 2.69909 2.69842 0.833252 4.99967 0.833252C7.30092 0.833252 9.16634 2.69909 9.16634 4.99992Z" fill="white"/>
<path fill-rule="evenodd" clip-rule="evenodd" d="M5.36296 5.26277C5.36296 5.4636 5.19921 5.62735 4.99837 5.62735C4.79754 5.62735 4.63379 5.4636 4.63379 5.26277V3.4211C4.63379 3.22027 4.79754 3.05652 4.99837 3.05652C5.19921 3.05652 5.36296 3.22027 5.36296 3.4211V5.26277ZM4.63582 6.5848C4.63582 6.38397 4.79874 6.22022 4.99832 6.22022C5.20373 6.22022 5.36707 6.38397 5.36707 6.5848C5.36707 6.78564 5.20373 6.94939 5.00248 6.94939C4.8004 6.94939 4.63582 6.78564 4.63582 6.5848Z" fill="#E77B7B"/>
</svg>
