<svg xmlns="http://www.w3.org/2000/svg" width="19.328" height="18.231" viewBox="0 0 19.328 18.231">
  <g id="warning" transform="translate(-0.001 -14.519)">
    <g id="Group_425" data-name="Group 425" transform="translate(0.001 14.519)">
      <path id="Path_490" data-name="Path 490" d="M18.936,28.489,12.1,15.906a2.835,2.835,0,0,0-4.874,0l-.011.02L.4,28.469A2.833,2.833,0,0,0,2.84,32.75H16.45a2.864,2.864,0,0,0,2.5-1.433A2.793,2.793,0,0,0,18.936,28.489ZM8.53,20.281a1.134,1.134,0,0,1,2.267,0v4.534a1.134,1.134,0,0,1-2.267,0Zm1.134,10.2a1.7,1.7,0,1,1,1.7-1.7A1.7,1.7,0,0,1,9.664,30.483Z" transform="translate(-0.001 -14.519)" fill="#f69c06"/>
    </g>
  </g>
</svg>
