<svg width="15" height="18" viewBox="0 0 15 18" fill="none" xmlns="http://www.w3.org/2000/svg">
<path opacity="0.4" d="M12.7573 6.51783C12.3811 6.51783 11.8827 6.50949 11.2622 6.50949C9.74892 6.50949 8.50462 5.25699 8.50462 3.72949V1.04949C8.50462 0.838659 8.3363 0.666992 8.12754 0.666992H3.71969C1.66264 0.666992 0 2.35533 0 4.42449V13.4037C0 15.5745 1.74185 17.3337 3.89132 17.3337H10.4552C12.5049 17.3337 14.1667 15.6562 14.1667 13.5853V6.89283C14.1667 6.68116 13.9992 6.51033 13.7896 6.51116C13.4373 6.51366 13.0148 6.51783 12.7573 6.51783Z" fill="white"/>
<path d="M5.096 13H4.382C4.328 13 4.284 12.986 4.25 12.958C4.218 12.93 4.191 12.898 4.169 12.862L3.518 11.791C3.508 11.825 3.496 11.857 3.482 11.887C3.47 11.917 3.456 11.945 3.44 11.971L2.864 12.862C2.842 12.896 2.815 12.928 2.783 12.958C2.751 12.986 2.711 13 2.663 13H2L3.056 11.413L2.042 9.92199H2.756C2.81 9.92199 2.85 9.92999 2.876 9.94599C2.902 9.95999 2.925 9.98399 2.945 10.018L3.59 11.044C3.612 10.976 3.643 10.909 3.683 10.843L4.202 10.033C4.246 9.95899 4.303 9.92199 4.373 9.92199H5.054L4.043 11.38L5.096 13Z" fill="white"/>
<path d="M6.23277 8.54199V13H5.49177V8.54199H6.23277Z" fill="white"/>
<path d="M8.84905 10.522C8.82905 10.554 8.80805 10.577 8.78605 10.591C8.76405 10.603 8.73605 10.609 8.70205 10.609C8.66605 10.609 8.62705 10.599 8.58505 10.579C8.54505 10.559 8.49805 10.537 8.44405 10.513C8.39005 10.487 8.32805 10.464 8.25805 10.444C8.19005 10.424 8.10905 10.414 8.01505 10.414C7.86905 10.414 7.75405 10.445 7.67005 10.507C7.58805 10.569 7.54705 10.65 7.54705 10.75C7.54705 10.816 7.56805 10.872 7.61005 10.918C7.65405 10.962 7.71105 11.001 7.78105 11.035C7.85305 11.069 7.93405 11.1 8.02405 11.128C8.11405 11.154 8.20505 11.183 8.29705 11.215C8.39105 11.247 8.48305 11.284 8.57305 11.326C8.66305 11.366 8.74305 11.418 8.81305 11.482C8.88505 11.544 8.94205 11.619 8.98405 11.707C9.02805 11.795 9.05005 11.901 9.05005 12.025C9.05005 12.173 9.02305 12.31 8.96905 12.436C8.91705 12.56 8.83905 12.668 8.73505 12.76C8.63105 12.85 8.50205 12.921 8.34805 12.973C8.19605 13.023 8.02005 13.048 7.82005 13.048C7.71405 13.048 7.61005 13.038 7.50805 13.018C7.40805 13 7.31105 12.974 7.21705 12.94C7.12505 12.906 7.03905 12.866 6.95905 12.82C6.88105 12.774 6.81205 12.724 6.75205 12.67L6.92305 12.388C6.94505 12.354 6.97105 12.328 7.00105 12.31C7.03105 12.292 7.06905 12.283 7.11505 12.283C7.16105 12.283 7.20405 12.296 7.24405 12.322C7.28605 12.348 7.33405 12.376 7.38805 12.406C7.44205 12.436 7.50505 12.464 7.57705 12.49C7.65105 12.516 7.74405 12.529 7.85605 12.529C7.94405 12.529 8.01905 12.519 8.08105 12.499C8.14505 12.477 8.19705 12.449 8.23705 12.415C8.27905 12.381 8.30905 12.342 8.32705 12.298C8.34705 12.252 8.35705 12.205 8.35705 12.157C8.35705 12.085 8.33505 12.026 8.29105 11.98C8.24905 11.934 8.19205 11.894 8.12005 11.86C8.05005 11.826 7.96905 11.796 7.87705 11.77C7.78705 11.742 7.69405 11.712 7.59805 11.68C7.50405 11.648 7.41105 11.611 7.31905 11.569C7.22905 11.525 7.14805 11.47 7.07605 11.404C7.00605 11.338 6.94905 11.257 6.90505 11.161C6.86305 11.065 6.84205 10.949 6.84205 10.813C6.84205 10.687 6.86705 10.567 6.91705 10.453C6.96705 10.339 7.04005 10.24 7.13605 10.156C7.23405 10.07 7.35505 10.002 7.49905 9.95199C7.64505 9.89999 7.81305 9.87399 8.00305 9.87399C8.21505 9.87399 8.40805 9.90899 8.58205 9.97899C8.75605 10.049 8.90105 10.141 9.01705 10.255L8.84905 10.522Z" fill="white"/>
<path d="M12.3558 13H11.6418C11.5878 13 11.5438 12.986 11.5098 12.958C11.4778 12.93 11.4508 12.898 11.4288 12.862L10.7778 11.791C10.7678 11.825 10.7558 11.857 10.7418 11.887C10.7298 11.917 10.7158 11.945 10.6998 11.971L10.1238 12.862C10.1018 12.896 10.0748 12.928 10.0428 12.958C10.0108 12.986 9.97077 13 9.92277 13H9.25977L10.3158 11.413L9.30177 9.92199H10.0158C10.0698 9.92199 10.1098 9.92999 10.1358 9.94599C10.1618 9.95999 10.1848 9.98399 10.2048 10.018L10.8498 11.044C10.8718 10.976 10.9028 10.909 10.9428 10.843L11.4618 10.033C11.5058 9.95899 11.5628 9.92199 11.6328 9.92199H12.3138L11.3028 11.38L12.3558 13Z" fill="white"/>
<path opacity="0.4" d="M10.4029 1.13947C10.1537 0.880308 9.71875 1.05864 9.71875 1.41781V3.61531C9.71875 4.53698 10.4779 5.29531 11.3996 5.29531C11.9804 5.30198 12.7871 5.30364 13.4721 5.30198C13.8229 5.30114 14.0012 4.88198 13.7579 4.62864C12.8787 3.71448 11.3046 2.07614 10.4029 1.13947Z" fill="white"/>
</svg>
